<?xml version="1.0" standalone="no"?>
<!DOCTYPE svg PUBLIC "-//W3C//DTD SVG 1.1//EN" "http://www.w3.org/Graphics/SVG/1.1/DTD/svg11.dtd" >
<svg xmlns="http://www.w3.org/2000/svg">
<metadata></metadata>
<defs>
<font id="exo_2.0semi_bold" horiz-adv-x="1163" >
<font-face units-per-em="2048" ascent="1638" descent="-410" />
<missing-glyph horiz-adv-x="450" />
<glyph unicode="&#xfb01;" horiz-adv-x="1312" d="M49 823v170l178 11v139q0 161 73.5 245.5t240.5 84.5q148 0 254 -19v-176h-166q-86 0 -119 -36.5t-33 -129.5v-108h688v-1004h-247v823h-441v-823h-250v823h-178zM911 1260v110q0 72 72 72h115q71 0 71 -72v-110q0 -72 -71 -72h-115q-72 0 -72 72z" />
<glyph unicode="&#xfb02;" horiz-adv-x="1431" d="M47 823v170l178 11v139q0 161 73.5 246t238.5 84q469 0 649 -33v-1153q0 -115 117 -115h86l28 -160q-32 -16 -98.5 -25.5t-114.5 -9.5q-125 0 -196.5 66.5t-71.5 183.5v1053h-311q-84 1 -117 -36.5t-33 -131.5v-108h270v-181h-270v-823h-250v823h-178z" />
<glyph horiz-adv-x="2048" />
<glyph horiz-adv-x="2048" />
<glyph unicode="&#xd;" horiz-adv-x="2048" />
<glyph unicode=" "  horiz-adv-x="450" />
<glyph unicode="&#x09;" horiz-adv-x="450" />
<glyph unicode="&#xa0;" horiz-adv-x="450" />
<glyph unicode="!" horiz-adv-x="587" d="M170 840v583h248v-583l-27 -398h-194zM176 88v105q0 50 19.5 69t70.5 19h60q50 0 69 -19.5t19 -68.5v-105q0 -50 -19 -69t-69 -19h-60q-51 0 -70.5 19t-19.5 69z" />
<glyph unicode="&#x22;" horiz-adv-x="751" d="M123 1413h192l-16 -446h-162zM438 1413h193l-17 -446h-159z" />
<glyph unicode="#" horiz-adv-x="1429" d="M74 418l28 151h236l55 322h-233l28 153h232l65 369h191l-64 -369h322l65 369h191l-64 -369h228l-31 -153h-223l-58 -322h226l-31 -151h-219l-74 -418h-190l71 418h-321l-74 -418h-190l71 418h-237zM528 569h324l55 322h-321z" />
<glyph unicode="$" horiz-adv-x="1167" d="M102 1059q0 97 19 164t53.5 109.5t96 65.5t134 31.5t181.5 8.5h24l17 192h110l-16 -194q178 -11 307 -45l-16 -183q-264 6 -312 6l-32 -395l120 -37q160 -52 224.5 -150.5t64.5 -260.5q0 -97 -18 -165t-53 -113.5t-96.5 -71t-140 -36t-191.5 -10.5h-5l-18 -225h-113 l21 227q-166 7 -344 43l16 195l348 -6l35 399l-131 41q-153 50 -219 148.5t-66 261.5zM358 1055q0 -61 18.5 -97.5t49 -54.5t92.5 -37l39 -12l33 363q-49 -1 -76.5 -2.5t-58 -7t-45.5 -15.5t-28.5 -28t-18.5 -44.5t-5 -64.5zM594 207q134 2 179.5 34t45.5 132q0 48 -8 78.5 t-29 51t-44.5 31.5t-67.5 25l-45 14z" />
<glyph unicode="%" horiz-adv-x="1845" d="M80 1020q0 231 76 325.5t266 94.5t266 -94.5t76 -325.5q0 -230 -76.5 -325t-265.5 -95t-265.5 95t-76.5 325zM266 1020q0 -159 32 -215.5t122 -56.5q91 0 124.5 56.5t33.5 215.5q0 158 -33.5 215t-124.5 57q-89 0 -121.5 -57t-32.5 -215zM399 0l877 1413h164l-875 -1413 h-166zM1081 399q0 230 76 325t264 95q189 0 265.5 -95t76.5 -325q0 -233 -76 -327.5t-266 -94.5q-188 0 -264 94.5t-76 327.5zM1268 399q-1 -161 30.5 -217.5t122.5 -56.5q90 0 123 57t33 217t-33 215.5t-123 55.5q-91 0 -122.5 -55.5t-30.5 -215.5z" />
<glyph unicode="&#x26;" horiz-adv-x="1570" d="M119 358q0 170 64.5 264t213.5 107v8q-126 12 -180.5 92t-54.5 238q0 71 10.5 124t29 92.5t52.5 66.5t73 44t100 26t123.5 12.5t151.5 3.5q189 0 330 -23l-31 -186q-94 6 -307 6q-84 0 -131.5 -7t-82 -29t-46.5 -61.5t-12 -107.5q0 -120 47 -162.5t176 -42.5h340l19 234 h208v-234h236v-186h-236v-332q0 -65 24 -91t87 -26h137l27 -176q-46 -16 -118 -25.5t-124 -9.5q-100 0 -165 42t-89 118q-86 -87 -189.5 -123.5t-262.5 -36.5q-227 0 -323.5 85t-96.5 296zM389 406q0 -124 45.5 -168.5t173.5 -44.5q230 3 371 118v326h-348 q-138 0 -190 -48.5t-52 -182.5z" />
<glyph unicode="'" horiz-adv-x="436" d="M123 1413h192l-16 -446h-162z" />
<glyph unicode="(" horiz-adv-x="741" d="M92 639q0 403 138.5 640.5t433.5 338.5l28 -111q-188 -89 -273 -304t-85 -562q0 -341 85.5 -557.5t272.5 -310.5l-28 -111q-294 103 -433 340.5t-139 636.5z" />
<glyph unicode=")" horiz-adv-x="741" d="M49 -227q187 94 273 310.5t86 557.5q0 347 -85.5 562t-273.5 304l31 111q294 -101 432.5 -338.5t138.5 -640.5q0 -400 -138.5 -637t-432.5 -340z" />
<glyph unicode="*" horiz-adv-x="921" d="M90 1110l45 133l238 -96v-62l-29 -38zM197 815l213 262l-21 338h143l-22 -336l213 -264l-113 -84l-149 250l-150 -248zM547 1085v62l239 96l45 -135l-251 -61z" />
<glyph unicode="+" horiz-adv-x="1118" d="M100 522v185h365v350h186v-350h367v-185h-367v-350h-186v350h-365z" />
<glyph unicode="," horiz-adv-x="487" d="M119 78v115q3 49 23.5 68.5t68.5 19.5h68q49 0 67.5 -19t18.5 -69v-132q-3 -191 -91 -348l-112 31q26 124 26 256q-33 0 -51 20.5t-18 57.5z" />
<glyph unicode="-" horiz-adv-x="876" d="M131 432v176h614v-176h-614z" />
<glyph unicode="." horiz-adv-x="491" d="M119 88v105q0 50 19.5 69t70.5 19h74q51 0 70.5 -19t19.5 -69v-105q0 -50 -19.5 -69t-70.5 -19h-74q-51 0 -70.5 19t-19.5 69z" />
<glyph unicode="/" horiz-adv-x="1093" d="M45 -141l805 1554h199l-805 -1554h-199z" />
<glyph unicode="0" horiz-adv-x="1263" d="M115 707q0 400 115 566.5t401 166.5q146 0 243.5 -39.5t159.5 -129.5t88.5 -226t26.5 -338q0 -269 -49.5 -427t-162 -232.5t-306.5 -74.5q-286 0 -401 167t-115 567zM365 707q0 -201 24.5 -311.5t81 -159t158.5 -48.5q79 0 129.5 25t82.5 87t45 158.5t13 248.5 q0 202 -25 312t-82.5 158t-162.5 48q-102 0 -158.5 -48t-81 -158.5t-24.5 -311.5z" />
<glyph unicode="1" horiz-adv-x="847" d="M31 1270l352 143h256v-1413h-256v1042q0 81 10 140l-332 -95z" />
<glyph unicode="2" horiz-adv-x="1165" d="M102 0v154q0 66 37 106l369 408q131 138 193 242t61 188q-3 73 -53 94.5t-168 21.5q-198 0 -414 -24l-14 196q238 52 454 52q89 0 155 -8t124.5 -29t95 -56.5t57.5 -92t21 -134.5q0 -128 -49.5 -231.5t-186.5 -253.5l-374 -404q91 13 219 13h436v-242h-963z" />
<glyph unicode="3" horiz-adv-x="1148" d="M94 10l12 201q246 -16 390 -16q157 0 217.5 48.5t60.5 180.5q0 57 -9.5 95t-35 68t-73.5 43.5t-121 12.5h-263v191h263q57 0 97 11t62.5 28.5t34.5 47.5t15.5 58t3.5 70q-1 47 -9.5 77t-24 49.5t-47 29.5t-68 13t-97.5 3q-210 0 -369 -13l-12 195q215 37 422 37 q242 0 345 -72t103 -256q0 -75 -9.5 -131.5t-32 -104.5t-64 -78.5t-101.5 -41.5v-8q132 -22 186.5 -109t57.5 -246q3 -222 -103 -321t-362 -99q-191 0 -469 37z" />
<glyph unicode="4" horiz-adv-x="1284" d="M80 557l377 856h248l-359 -821q-15 -38 -2 -56t47 -18h393v393l43 230h199v-623h182v-172l-178 -27h-4v-319h-242v319h-555q-94 0 -140 75.5t-9 162.5z" />
<glyph unicode="5" horiz-adv-x="1114" d="M90 23l27 206q193 -30 360 -30q87 0 142.5 13t86 43.5t42.5 71t14 103.5q1 46 -5.5 80.5t-16 59t-37.5 42t-50.5 28.5t-74.5 19.5t-90.5 13t-116.5 11.5l-135 14q-41 3 -66.5 32.5t-22.5 70.5l33 612h793l-8 -211h-582l-16 -301l178 -20q258 -26 364.5 -133.5 t104.5 -319.5q0 -75 -11.5 -136.5t-43.5 -122t-83 -102t-136.5 -67t-198.5 -25.5q-200 0 -451 48z" />
<glyph unicode="6" horiz-adv-x="1185" d="M119 690q0 161 15 280t48.5 201.5t77.5 135t112 81.5t141 39.5t175 10.5q186 0 311 -35l-16 -178q-98 4 -295 4q-89 0 -142 -14.5t-94 -59.5t-58.5 -127t-22.5 -217q66 66 140.5 92.5t184.5 26.5q224 0 310 -102t86 -355q0 -98 -11 -169.5t-41.5 -136.5t-82 -105 t-136 -63.5t-200.5 -23.5q-90 0 -157.5 10.5t-122 33t-91.5 62.5t-63 92.5t-40.5 130.5t-21 170t-6.5 216zM369 637q0 -99 2.5 -159.5t12 -117t25.5 -86t45.5 -52.5t69.5 -30.5t99 -7.5q60 0 101.5 12.5t65.5 33.5t37 59.5t17 78.5t4 103q0 148 -46 204t-177 56 q-72 0 -128.5 -20.5t-127.5 -73.5z" />
<glyph unicode="7" horiz-adv-x="1062" d="M66 1413h823q71 0 102.5 -41.5t9.5 -105.5l-432 -1266h-254l373 1077q21 71 53 121h-663z" />
<glyph unicode="8" horiz-adv-x="1249" d="M123 352q0 171 52.5 267.5t182.5 109.5v8q-70 8 -116.5 53.5t-66 113.5t-19.5 157q0 102 20.5 169t72.5 115t143.5 69.5t232.5 21.5q142 0 234 -21t144.5 -69.5t72.5 -115.5t20 -169q0 -137 -50.5 -225t-154.5 -99v-8q130 -13 183.5 -110t53.5 -267q0 -81 -13 -138.5 t-46 -104t-90.5 -74.5t-144.5 -43.5t-209 -16.5q-149 -1 -247 21t-154 71t-78.5 116.5t-22.5 168.5zM365 408q0 -130 52.5 -176t209.5 -46q156 0 207 46t51 176q0 138 -50 183.5t-206 45.5q-160 -1 -212 -47.5t-52 -181.5zM387 1034q0 -122 48.5 -163.5t193.5 -41.5 q101 0 150 19t66 60t17 126q0 62 -9 99.5t-35.5 63t-71.5 35t-119 9.5q-144 0 -192 -43t-48 -164z" />
<glyph unicode="9" horiz-adv-x="1185" d="M98 940q-2 261 106.5 379.5t368.5 118.5q92 0 160.5 -11.5t121.5 -33.5t89 -63.5t60 -93t37 -131t18.5 -168.5t5.5 -214q-1 -158 -14 -273.5t-43.5 -199.5t-72.5 -137t-109 -84t-143.5 -42.5t-184.5 -11.5q-199 0 -338 35l18 180q106 -6 318 -6q120 0 185 36.5t97 126.5 t39 261q-67 -70 -143.5 -97.5t-188.5 -27.5q-387 0 -387 457zM340 942q-2 -137 45.5 -199.5t173.5 -62.5q72 0 128.5 21.5t131.5 76.5q0 74 -1.5 122.5t-6 98.5t-12 79.5t-20.5 58.5t-30.5 44t-43.5 27.5t-58 16.5t-76 4q-59 0 -100.5 -12t-67.5 -33.5t-40 -58.5t-19 -79.5 t-4 -103.5z" />
<glyph unicode=":" horiz-adv-x="514" d="M121 90v103q0 51 19.5 69.5t70.5 18.5h74q51 0 70.5 -18.5t19.5 -69.5v-103q0 -51 -19.5 -70.5t-70.5 -19.5h-74q-51 0 -70.5 19.5t-19.5 70.5zM121 721v104q0 50 19.5 69t70.5 19h74q51 0 70.5 -19t19.5 -69v-104q0 -50 -19.5 -69t-70.5 -19h-74q-51 0 -70.5 19 t-19.5 69z" />
<glyph unicode=";" horiz-adv-x="516" d="M135 78v115q3 50 23 69t69 19h66q49 0 68.5 -19.5t19.5 -68.5v-132q-3 -189 -92 -348l-111 31q24 115 27 256q-34 0 -52 20.5t-18 57.5zM135 721v104q0 49 19.5 68.5t68.5 19.5h76q49 0 68.5 -19.5t19.5 -68.5v-104q0 -49 -19.5 -68.5t-68.5 -19.5h-76q-49 0 -68.5 19.5 t-19.5 68.5z" />
<glyph unicode="&#x3c;" horiz-adv-x="1071" d="M94 516v195l848 346v-197l-637 -246l637 -245v-195z" />
<glyph unicode="=" horiz-adv-x="1191" d="M135 297v180h922v-180h-922zM135 731v180h922v-180h-922z" />
<glyph unicode="&#x3e;" horiz-adv-x="1071" d="M129 174v195l637 245l-637 246v197l848 -346v-195z" />
<glyph unicode="?" horiz-adv-x="1040" d="M70 1411q15 3 67.5 12.5t67.5 12t60.5 8.5t77.5 8t85 4t115 2q216 0 321 -77.5t105 -239.5q0 -61 -19 -115t-50 -95.5t-69 -81.5t-76.5 -82t-71 -87t-55 -106.5t-26.5 -131.5h-207q-2 75 13.5 141.5t42.5 116t59.5 93.5t66.5 81.5t62 72t47 72t21 75.5q5 82 -47.5 119.5 t-172.5 37.5q-164 0 -407 -14zM379 88v105q0 50 19.5 69t70.5 19h59q51 0 70.5 -19t19.5 -69v-105q0 -50 -19.5 -69t-70.5 -19h-59q-51 0 -70.5 19t-19.5 69z" />
<glyph unicode="@" horiz-adv-x="1509" d="M131 547q0 119 3.5 198.5t15.5 154t29 118.5t51.5 83.5t76 59t109 34t142.5 18.5t185 4h301q167 0 250.5 -74t83.5 -246v-623h-184l-23 146q-61 -66 -161 -116t-213 -50q-125 0 -202 66.5t-77 189.5v100q0 103 62.5 161t181.5 58h383v62q0 76 -31.5 102.5t-118.5 26.5 h-252q-58 0 -92.5 -0.5t-75.5 -5t-62.5 -10t-47.5 -19.5t-37.5 -30t-25.5 -44.5t-19 -59.5t-10.5 -79.5t-6.5 -100t-1 -124.5q0 -95 1.5 -157.5t13.5 -117.5t20.5 -85.5t41 -56.5t55 -36t83 -17.5t105 -8t138.5 -0.5h553v-177q-286 -22 -553 -22q-124 -1 -209 2.5t-161 18 t-123 34t-86 59.5t-58.5 85t-33.5 121t-17.5 156.5t-3.5 201.5zM745 553q0 -61 27 -87t82 -26q75 0 155.5 28.5t135.5 82.5v139l-291 -8q-63 -3 -86 -24t-23 -72v-33z" />
<glyph unicode="A" horiz-adv-x="1302" d="M10 0l424 1346q9 32 34 49.5t58 17.5h250q33 0 58 -17.5t34 -49.5l424 -1346h-262l-117 399h-524l-117 -399h-262zM451 610h401l-141 488q-3 13 -10.5 38t-12.5 45.5t-8 37.5h-55l-33 -121z" />
<glyph unicode="B" horiz-adv-x="1286" d="M158 0v1413q185 17 499 17q138 0 226.5 -16.5t148 -59t84.5 -113t25 -180.5q0 -154 -57.5 -233t-184.5 -91v-8q154 -13 219.5 -107t65.5 -270q0 -109 -25 -180t-83.5 -113t-142 -58.5t-212.5 -16.5q-369 0 -563 16zM410 193l268 -3q145 0 197.5 42t52.5 167 q0 95 -24.5 146t-78.5 72t-155 22h-260v-446zM410 825h256q131 0 180 41.5t49 161.5q0 116 -53 155.5t-197 39.5h-235v-398z" />
<glyph unicode="C" horiz-adv-x="1183" d="M109 707q0 205 30 342t99 225t177 126t269 38q138 0 225 -10t181 -35l-25 -195q-178 14 -381 14q-119 0 -183.5 -46.5t-93 -154t-28.5 -304.5q0 -148 14.5 -242.5t51 -155t93.5 -84.5t146 -24q261 0 412 20l22 -192q-95 -30 -192 -42t-242 -12q-215 0 -339 71.5 t-180 229.5t-56 431z" />
<glyph unicode="D" horiz-adv-x="1374" d="M158 0v1413q296 19 528 19q163 0 270 -35t177.5 -120.5t100.5 -222.5t30 -347t-30 -347t-100.5 -222.5t-177.5 -120.5t-270 -35q-247 0 -528 18zM414 201q160 -4 272 -4q89 0 146.5 24.5t94 85t51.5 156t15 244.5q0 198 -28.5 307t-94 157t-184.5 48q-55 0 -144.5 -1 t-127.5 -1v-1016z" />
<glyph unicode="E" d="M145 264v885q1 124 83.5 196t220.5 72q436 0 622 -16l-12 -197h-553q-56 0 -79.5 -26.5t-23.5 -92.5v-247h580v-197h-580v-315q0 -66 23.5 -92.5t79.5 -26.5h553l12 -195q-186 -16 -622 -16q-140 0 -221.5 72t-82.5 196z" />
<glyph unicode="F" horiz-adv-x="1118" d="M154 0v1139q0 132 81.5 205t221.5 73q422 0 602 -18l-15 -195h-512q-67 0 -93.5 -26.5t-26.5 -92.5v-272h557v-199h-557v-614h-258z" />
<glyph unicode="G" horiz-adv-x="1300" d="M111 713q0 214 31.5 352t107 223t189 118.5t290.5 33.5q238 0 406 -47l-21 -191q-200 12 -373 12q-73 0 -120.5 -6t-92 -25.5t-69.5 -53.5t-45 -92t-27.5 -140.5t-7.5 -198.5q0 -284 55.5 -393.5t198.5 -109.5q138 0 297 98v522h250v-815h-191l-22 139 q-71 -67 -176.5 -116.5t-237.5 -49.5q-233 0 -337.5 177.5t-104.5 562.5z" />
<glyph unicode="H" horiz-adv-x="1388" d="M158 0v1413h256v-555h559v555h256v-1413h-256v647h-559v-647h-256z" />
<glyph unicode="I" horiz-adv-x="571" d="M158 0v1413h256v-1413h-256z" />
<glyph unicode="J" horiz-adv-x="724" d="M51 12l27 178h96q143 0 143 127v1096h254v-1102q0 -161 -77 -247.5t-218 -86.5q-50 0 -119 10.5t-106 24.5z" />
<glyph unicode="K" horiz-adv-x="1253" d="M158 0v1413h256v-416q0 -83 -15 -163h140l387 579h278l-381 -569q-36 -57 -94 -107v-6q72 -60 111 -121l391 -610h-287l-405 637h-140q15 -71 15 -139v-498h-256z" />
<glyph unicode="L" horiz-adv-x="1067" d="M154 289v1124h256v-1083q0 -65 26.5 -91t93.5 -26h492l10 -199q-200 -18 -561 -18q-317 0 -317 293z" />
<glyph unicode="M" horiz-adv-x="1830" d="M131 0l53 1313q3 100 101 100h266q83 0 104 -86l201 -766q10 -37 43 -192h31q18 101 43 194l201 764q21 86 106 86h264q98 0 101 -100l57 -1313h-252l-47 1206h-39l-244 -940q-22 -86 -106 -86h-197q-86 0 -108 86l-248 940h-35l-45 -1206h-250z" />
<glyph unicode="N" horiz-adv-x="1464" d="M158 0v1319q0 46 25 70t71 24h199q40 0 63 -18t43 -60l385 -841q85 -191 98 -224h25q-10 130 -10 230v913h250v-1319q0 -46 -24.5 -70t-70.5 -24h-202q-40 0 -64.5 18.5t-42.5 59.5l-397 866q-71 150 -84 211h-25q13 -94 13 -213v-942h-252z" />
<glyph unicode="O" horiz-adv-x="1382" d="M109 707q0 213 29.5 351.5t100.5 225t178.5 121.5t272.5 35q133 0 227 -23t164.5 -73.5t112 -137t61 -207.5t19.5 -292t-19.5 -292.5t-61 -208t-112 -137t-164.5 -73.5t-227 -23q-110 0 -192.5 15t-149 50.5t-110.5 91t-73.5 138t-42.5 190t-13 249.5zM379 707 q0 -200 28.5 -309.5t95 -157t187.5 -47.5q122 0 189 47.5t96 157t29 309.5t-29 309.5t-96 157t-189 47.5q-121 0 -187.5 -47.5t-95 -157t-28.5 -309.5z" />
<glyph unicode="P" horiz-adv-x="1230" d="M158 0v1413q192 19 512 19q142 0 231.5 -20.5t148 -74t82 -139t23.5 -221.5t-23 -222.5t-79 -139t-138.5 -73t-212.5 -20.5q-142 0 -288 17v-539h-256zM414 731h250q92 1 140.5 22t70.5 73t22 151q0 145 -49 194.5t-184 49.5h-250v-490z" />
<glyph unicode="Q" horiz-adv-x="1386" d="M111 707q0 213 29.5 351.5t100.5 225t178.5 121.5t272.5 35t273 -35t179.5 -121.5t101.5 -225t30 -351.5q0 -283 -57.5 -441.5t-182 -225.5t-344.5 -67q-110 0 -192.5 15t-149 50.5t-110.5 91t-73.5 138t-42.5 190t-13 249.5zM379 707q0 -150 15 -246.5t52.5 -157.5 t96 -85.5t149.5 -24.5q122 0 189 47.5t96 157t29 309.5t-29 309.5t-96 157t-189 47.5q-91 0 -149.5 -24.5t-96 -85.5t-52.5 -157.5t-15 -246.5zM535 -227l63 149q255 -90 590 -135l-80 -246q-268 64 -573 232z" />
<glyph unicode="R" horiz-adv-x="1288" d="M158 0v1413q192 19 514 19q135 0 224.5 -19.5t151 -67t88.5 -127t27 -200.5q0 -164 -61 -251t-203 -105v-11q61 -14 114 -65t74 -144l127 -442h-272l-113 438q-22 68 -60 97.5t-103 29.5l-254 2v-567h-254zM412 776h254q136 2 186.5 49t50.5 176t-50 174.5t-187 45.5 h-254v-445z" />
<glyph unicode="S" horiz-adv-x="1167" d="M98 1059q0 97 19 164t54 109.5t97 65.5t134.5 31.5t181.5 8.5q261 0 444 -47l-16 -183q-263 9 -420 9q-59 0 -91.5 -2.5t-65 -11t-47 -26t-23.5 -47t-9 -75.5q0 -89 34 -125t124 -64l272 -84q161 -52 226 -150t65 -261q0 -81 -11.5 -141t-38.5 -104.5t-65 -73.5 t-96.5 -46t-127.5 -24t-163 -7q-233 0 -458 45l16 189q357 -8 449 -8q141 0 188 32.5t47 139.5q0 48 -8 78.5t-29 51t-44.5 31.5t-67.5 25l-285 90q-153 50 -219 148.5t-66 261.5z" />
<glyph unicode="T" horiz-adv-x="1212" d="M43 1194v219h1126v-219h-436v-1194h-258v1194h-432z" />
<glyph unicode="U" horiz-adv-x="1374" d="M147 553v860h256v-860q0 -203 62.5 -281.5t222.5 -78.5q157 0 219 78.5t62 281.5v860h258v-860q0 -317 -119.5 -448.5t-409.5 -131.5q-302 0 -426.5 131.5t-124.5 448.5z" />
<glyph unicode="V" horiz-adv-x="1273" d="M23 1413h264l288 -1061q6 -26 18.5 -78.5t18.5 -78.5h52q13 65 38 157l285 1061h264l-399 -1341q-9 -32 -34.5 -52t-59.5 -20h-242q-34 0 -59 20t-33 52z" />
<glyph unicode="W" horiz-adv-x="1968" d="M59 1413h267l168 -1030q12 -69 22 -193h43q15 100 33 193l174 948q6 37 31 59.5t63 22.5h250q35 0 60.5 -22.5t31.5 -59.5l174 -950q21 -111 29 -191h45q4 29 11.5 93.5t11.5 95.5l169 1034h267l-244 -1341q-8 -32 -33.5 -52t-60.5 -20h-268q-36 0 -62.5 20.5t-32.5 53.5 l-178 985q-9 51 -26 166h-41q-15 -100 -27 -166l-176 -985q-6 -33 -33 -53.5t-63 -20.5h-267q-35 0 -61.5 20t-32.5 52z" />
<glyph unicode="X" horiz-adv-x="1282" d="M35 0l375 727l-349 686h269l288 -590h44l288 590h271l-351 -686l377 -727h-272l-316 639h-38l-316 -639h-270z" />
<glyph unicode="Y" horiz-adv-x="1206" d="M10 1413h271l258 -549q16 -33 57 -170h16q39 131 58 170l258 549h266l-463 -936v-477h-256v481z" />
<glyph unicode="Z" horiz-adv-x="1175" d="M92 0v209l696 995h-684v209h967v-209l-696 -995h710v-209h-993z" />
<glyph unicode="[" horiz-adv-x="694" d="M170 -201v1637q0 60 38.5 98.5t98.5 38.5h314v-158h-185q-14 0 -24.5 -10t-10.5 -27v-1521q0 -17 10.5 -27t24.5 -10h185v-158h-314q-137 0 -137 137z" />
<glyph unicode="\" horiz-adv-x="1095" d="M45 1413h201l805 -1554h-201z" />
<glyph unicode="]" horiz-adv-x="694" d="M74 -180h182q15 0 25 10t10 27v1521q0 17 -10 27t-25 10h-182v158h311q61 0 100 -38.5t39 -98.5v-1637q0 -60 -39 -98.5t-100 -38.5h-311v158z" />
<glyph unicode="^" horiz-adv-x="915" d="M61 813l308 449h180l305 -449l-98 -57l-289 346h-16l-291 -346z" />
<glyph unicode="_" d="M129 0h905v-176h-905v176z" />
<glyph unicode="`" horiz-adv-x="690" d="M49 1315l127 182l385 -301l-78 -111z" />
<glyph unicode="a" horiz-adv-x="1142" d="M88 268v103q0 120 78 186t219 66h377v61q-1 86 -38.5 114.5t-145.5 28.5q-157 0 -420 -20l-25 176q107 20 254.5 34.5t247.5 14.5q194 0 285.5 -78t91.5 -272v-682h-197l-27 154q-66 -73 -163 -125t-219 -52q-142 0 -230 76.5t-88 214.5zM336 301q0 -64 31.5 -93.5 t99.5 -29.5q64 0 143.5 30t151.5 89v156h-320q-59 -3 -82.5 -31t-23.5 -82v-39z" />
<glyph unicode="b" horiz-adv-x="1189" d="M135 51v1383h250v-338q0 -141 -25 -234q77 83 173 126.5t196 43.5q190 0 278.5 -123t88.5 -401q0 -128 -21.5 -220.5t-73 -165.5t-145.5 -110t-231 -37q-117 0 -258 20t-232 56zM385 199q110 -25 211 -25h22q122 2 171.5 74t50.5 260q-1 94 -9 150.5t-30.5 95.5t-61.5 54 t-104 15q-62 0 -116.5 -27t-133.5 -85v-512z" />
<glyph unicode="c" horiz-adv-x="1019" d="M94 504q0 290 111.5 409t380.5 119q212 0 350 -57l-29 -156q-100 4 -278 4q-156 0 -215.5 -67t-59.5 -252q0 -187 59.5 -255.5t215.5 -68.5q155 0 301 21l22 -164q-150 -62 -368 -62q-269 0 -379.5 119t-110.5 410z" />
<glyph unicode="d" horiz-adv-x="1193" d="M96 508q0 148 24 250t74 162t119.5 86t167.5 26q193 0 334 -88q-10 82 -10 201v289h250v-1434h-197l-20 137q-174 -162 -389 -162q-185 0 -269 135t-84 398zM352 510q0 -131 20.5 -202t59.5 -96.5t109 -25.5t121 22t143 83v497q-160 41 -250 41q-59 0 -94.5 -12 t-61.5 -46.5t-36.5 -97t-10.5 -163.5z" />
<glyph unicode="e" horiz-adv-x="1122" d="M94 504q0 149 27.5 250t88.5 163t150 88.5t220 26.5q239 0 347.5 -87t108.5 -261q0 -287 -268 -287h-410q14 -131 73.5 -175t195.5 -44q144 0 360 25l23 -160q-73 -35 -188 -51.5t-226 -16.5q-273 0 -387.5 121.5t-114.5 407.5zM354 571h344q90 0 90 117 q0 81 -42.5 114.5t-155.5 33.5q-131 0 -181.5 -54.5t-54.5 -210.5z" />
<glyph unicode="f" horiz-adv-x="808" d="M49 823v170l178 11v165q0 147 74 225.5t240 78.5q191 0 305 -19l-21 -176h-196q-84 0 -118 -32t-34 -109v-133h293v-181h-293v-823h-250v823h-178z" />
<glyph unicode="g" d="M63 -94q0 79 36.5 128t121.5 93q-58 54 -58 135q0 13 2 28q11 99 83 146q-75 36 -108.5 102.5t-33.5 168.5q0 179 100.5 252t354.5 73q149 0 252 -28h317l-14 -121l-131 -15q27 -67 27 -159q0 -174 -100.5 -249t-352.5 -75q-110 0 -184 14q-14 -26 -15 -54.5t17.5 -52 t56.5 -28.5l367 -51q147 -20 211.5 -90t64.5 -203q0 -184 -109.5 -252.5t-396.5 -68.5q-197 0 -306 29.5t-155.5 95t-46.5 182.5zM303 -68q0 -87 49.5 -111t216.5 -24q165 0 217 24.5t52 108.5q0 26 -5.5 43t-14.5 28t-33 18t-47 10.5t-70 9.5l-287 35q-40 -37 -59 -68.5 t-19 -73.5zM334 709q0 -84 49 -117t176 -33t175 33t48 117q0 85 -47.5 116t-175.5 31t-176.5 -31.5t-48.5 -115.5z" />
<glyph unicode="h" horiz-adv-x="1208" d="M139 0v1434h252v-369q0 -112 -16 -203q223 170 424 170q134 0 205 -71.5t71 -206.5v-754h-250v678q0 84 -22.5 113.5t-83.5 29.5q-70 0 -145 -29.5t-185 -93.5v-698h-250z" />
<glyph unicode="i" horiz-adv-x="542" d="M141 1255v113q0 34 18.5 53t53.5 19h115q71 0 71 -72v-113q0 -71 -71 -71h-115q-72 0 -72 71zM147 0v1004h248v-1004h-248z" />
<glyph unicode="j" horiz-adv-x="546" d="M31 -301q63 75 91 149.5t28 169.5v986h249v-986q0 -132 -61.5 -247t-167.5 -181zM145 1260v110q0 72 72 72h115q71 0 71 -72v-110q0 -72 -71 -72h-115q-72 0 -72 72z" />
<glyph unicode="k" horiz-adv-x="1093" d="M139 0v1434h252v-611q0 -96 -14 -176h108l275 357h282l-280 -357q-16 -25 -40.5 -49t-43.5 -35v-4q39 -24 84 -96l313 -463h-282l-306 479h-110q12 -106 12 -153v-326h-250z" />
<glyph unicode="l" horiz-adv-x="643" d="M141 252v1182h250v-1121v-6q0 -110 119 -110h86l29 -185q-31 -16 -97 -25.5t-116 -9.5q-126 0 -198.5 72t-72.5 203z" />
<glyph unicode="m" horiz-adv-x="1792" d="M139 0v1004h203l14 -148q200 176 394 176q203 0 256 -168q189 168 380 168q133 0 203 -71.5t70 -206.5v-754h-244v678q-2 78 -29 110.5t-96 32.5q-59 0 -111 -24.5t-159 -96.5v-700h-240v678v5q0 75 -28 106q-30 32 -97 32q-58 0 -111 -24.5t-157 -94.5v-702h-248z" />
<glyph unicode="n" horiz-adv-x="1208" d="M139 0v1004h209l17 -148q231 176 434 176q134 0 205 -71.5t71 -206.5v-754h-250v678q0 84 -22.5 113.5t-83.5 29.5q-70 0 -143 -29t-187 -94v-698h-250z" />
<glyph unicode="o" horiz-adv-x="1179" d="M94 502q0 289 113.5 409.5t384.5 120.5q270 0 381.5 -120.5t111.5 -409.5t-111.5 -409t-381.5 -120q-272 0 -385 120t-113 409zM354 502q0 -193 50 -261.5t188 -68.5q136 0 185.5 69t49.5 261q0 194 -49.5 263t-185.5 69q-94 0 -144.5 -29.5t-72 -99.5t-21.5 -203z" />
<glyph unicode="p" horiz-adv-x="1210" d="M139 -399v1403h205l16 -150q70 78 185.5 127t226.5 49q178 0 260 -136.5t82 -399.5q0 -146 -24 -246.5t-74 -160.5t-119.5 -86t-167.5 -26q-204 0 -348 99q7 -78 7 -157q0 -26 -1 -52v-264h-248zM387 221q7 -2 46 -11t48 -11t39.5 -8t46 -7.5t40.5 -3.5t48 -2 q78 0 119.5 24t62.5 93t21 201q0 127 -18 198.5t-56 101t-104 29.5q-67 0 -131.5 -29.5t-161.5 -95.5v-479z" />
<glyph unicode="q" horiz-adv-x="1187" d="M94 498q0 105 12.5 184t45 147t86 111t137 67.5t196.5 24.5q110 0 251 -20t231 -56v-1355h-250v309q0 130 20 217q-181 -154 -377 -154q-179 0 -265.5 128t-86.5 397zM350 485q0 -162 38 -230.5t147 -68.5q70 0 128 24t142 77v520q-105 27 -211 27h-27q-84 -3 -129 -33 t-66.5 -104t-21.5 -212z" />
<glyph unicode="r" horiz-adv-x="845" d="M139 0v1004h195l22 -148q213 176 414 176h49l-26 -233h-72q-67 0 -139 -21t-193 -69v-709h-250z" />
<glyph unicode="s" horiz-adv-x="1058" d="M88 748q0 162 92 223t318 61q238 -3 444 -37l-18 -172q-254 8 -383 8q-136 0 -174.5 -13t-38.5 -73q0 -15 2.5 -26.5t5 -20t11.5 -16t14 -11.5t20 -9.5t22.5 -7.5t29 -8t32.5 -9l270 -74q130 -37 185 -99t55 -190q0 -74 -17.5 -125.5t-50 -85t-89 -52.5t-125 -26.5 t-167.5 -7.5q-226 0 -420 33l17 174q107 -8 342 -8q162 0 216 18.5t54 77.5q0 13 -1.5 23t-6.5 18.5t-9 14.5t-14 12t-15.5 9.5t-21 8.5t-23 7t-27.5 7.5t-29 8.5l-264 72q-131 38 -183.5 105.5t-52.5 189.5z" />
<glyph unicode="t" horiz-adv-x="819" d="M45 823v170l180 11v288h248v-288h295v-181h-295v-510q0 -66 26.5 -91t94.5 -25h137l27 -185q-48 -16 -126.5 -25.5t-131.5 -9.5q-132 0 -202.5 76.5t-70.5 216.5v553h-182z" />
<glyph unicode="u" horiz-adv-x="1185" d="M133 252v752h250v-678v-11q-1 -71 25 -100q28 -31 98 -31q61 0 127 26.5t166 84.5v709h248v-1004h-197l-19 135q-213 -162 -419 -162q-137 0 -208 70.5t-71 208.5z" />
<glyph unicode="v" horiz-adv-x="1118" d="M25 1004h262l209 -662q5 -19 15.5 -54.5t19 -65t14.5 -54.5h26l54 174l206 662h265l-344 -945q-22 -59 -84 -59h-217q-30 0 -52.5 16t-29.5 43z" />
<glyph unicode="w" horiz-adv-x="1708" d="M39 1004h254l166 -691q21 -93 26 -159h27q3 13 14.5 70.5t16.5 88.5l123 617q6 34 29.5 54t58.5 20h202q35 0 60 -20.5t31 -55.5l118 -615q5 -30 16 -84.5t15 -74.5h27q18 124 26 159l166 691h254l-264 -936q-7 -32 -31 -50t-57 -18h-211q-35 0 -60.5 21.5t-31.5 56.5 l-121 616q-4 20 -12 76.5t-15 87.5h-24l-29 -164l-117 -616q-6 -35 -32 -56.5t-62 -21.5h-207q-34 0 -59 18t-31 50z" />
<glyph unicode="x" horiz-adv-x="1118" d="M31 0l317 516l-293 488h260l228 -394h32l228 394h260l-293 -488l317 -516h-262l-252 430h-28l-252 -430h-262z" />
<glyph unicode="y" horiz-adv-x="1118" d="M25 1004h264l219 -691q22 -70 33 -133h28q7 23 41 133l215 691h267l-373 -1035q-21 -60 -49 -113.5t-72.5 -107t-97.5 -90t-128 -58.5q-60 -17 -127 -17q-16 0 -32 1l-20 158q119 33 187.5 89t106.5 146l11 23h-49q-31 0 -54 16t-30 45z" />
<glyph unicode="z" horiz-adv-x="1060" d="M92 0v190l590 623h-582v191h861v-191l-590 -623h598v-190h-877z" />
<glyph unicode="{" horiz-adv-x="677" d="M80 588v168q68 22 82 32q27 20 30 85q1 14 1 32v389q0 322 405 279v-154q-98 0 -133 -31t-35 -116v-334q2 -129 -40 -187t-159 -79q119 -34 162 -91t45 -167v-453q0 -85 35 -115t133 -30v-154q-405 -43 -405 279v505q0 36 -5 57.5t-22.5 37t-31.5 22t-52 21.5q-6 3 -10 4 z" />
<glyph unicode="|" horiz-adv-x="520" d="M172 -346v1945h176v-1945h-176z" />
<glyph unicode="}" horiz-adv-x="679" d="M74 -184q98 0 133 30t35 115v453q2 110 45 167t162 91q-117 21 -159 79t-40 187v334q0 85 -35 116t-133 31v154q405 43 405 -279v-389q0 -81 16.5 -102.5t81.5 -41.5q10 -3 15 -5v-168q-71 -27 -88 -42q-33 -27 -33 -100v-505q0 -322 -405 -279v154z" />
<glyph unicode="~" horiz-adv-x="1062" d="M141 453q-19 139 29 210t133 68q69 -3 222.5 -53.5t197.5 -54.5q49 -7 64.5 14.5t15.5 83.5h121q20 -136 -26.5 -208t-135.5 -67q-60 2 -143 26.5t-161 51t-118 31.5q-49 6 -63.5 -16t-14.5 -86h-121z" />
<glyph unicode="&#xa1;" horiz-adv-x="555" d="M154 186l26 398h195l26 -398v-575h-247v575zM160 831v107q0 50 19.5 69t70.5 19h59q49 0 68.5 -19t19.5 -69v-107q0 -49 -19 -67.5t-69 -18.5h-59q-51 0 -70.5 18.5t-19.5 67.5z" />
<glyph unicode="&#xa2;" horiz-adv-x="1050" d="M92 715q0 289 112 408.5t382 119.5l26 -2l19 172h110l-16 -178q130 -15 211 -49l-29 -160q-65 5 -205 10l-61 -647q151 0 287 19l24 -160q-136 -55 -334 -62l-18 -186h-111l19 188q-226 13 -321 134.5t-95 392.5zM338 715q0 -160 43.5 -232.5t150.5 -87.5l58 641 q-142 -6 -197 -75t-55 -246z" />
<glyph unicode="&#xa3;" horiz-adv-x="1181" d="M104 813h152l-16 248q-5 94 10 161t46 109t84.5 66t115 32.5t149.5 8.5q160 0 397 -21l-14 -200q-144 6 -362 6q-104 0 -142.5 -35t-31.5 -135l16 -240h393l-8 -137h-377l8 -113q8 -135 -26 -211.5t-119 -148.5q49 12 145 12h563v-215h-974v215q100 44 132.5 131 t24.5 217l-6 113h-158z" />
<glyph unicode="&#xa5;" horiz-adv-x="1300" d="M57 1413h267l260 -530q11 -23 21 -50t22 -67.5t16 -52.5h19q32 109 59 172l258 528h264l-375 -731h256v-139h-327l-17 -33v-66h344v-137h-344v-307h-256v307h-336l-2 137h338v64l-18 35h-318l-4 139h250z" />
<glyph unicode="&#xa7;" horiz-adv-x="1122" d="M113 1155q0 87 27 144t85 87.5t132.5 42t187.5 11.5q247 -4 450 -25l-16 -188q-144 10 -365 10q-37 1 -68.5 0t-57 -3t-45.5 -8t-34.5 -16t-22.5 -25.5t-9 -37.5q-3 -56 27 -90t94 -68l299 -164q104 -54 154 -126t51.5 -162.5t-27.5 -206.5h-176q8 127 -22.5 192.5 t-127.5 120.5l-332 191q-49 28 -80 51.5t-62.5 61t-46.5 89t-15 119.5zM123 554q-2 91 27 208h176q-9 -130 20 -194t127 -119l332 -189q49 -28 80.5 -52t63.5 -62t47.5 -91t15.5 -121q0 -72 -20 -124t-54 -83t-90.5 -49t-117.5 -24t-148 -6q-275 5 -455 24l18 189 q161 -10 367 -13q64 0 100 2.5t69.5 12t48 29.5t15.5 53q4 56 -26 90t-90 65l-299 166q-104 53 -154.5 125t-52.5 163z" />
<glyph unicode="&#xa8;" horiz-adv-x="856" d="M145 1264v112q0 64 60 64h84q59 0 59 -64v-112q0 -62 -59 -62h-84q-60 0 -60 62zM510 1264v112q0 64 63 64h80q29 0 46.5 -17.5t17.5 -46.5v-112q0 -62 -64 -62h-80q-63 0 -63 62z" />
<glyph unicode="&#xa9;" horiz-adv-x="1683" d="M102 707q0 157 58 294t157 233t235.5 151t289.5 55q204 0 372.5 -93.5t266.5 -262t98 -377.5q0 -157 -57.5 -294t-156 -233t-234.5 -151.5t-289 -55.5t-289.5 55.5t-235.5 151.5t-157 233t-58 294zM231 707q0 -172 83 -313t222.5 -219.5t305.5 -78.5t305.5 78.5 t221 219.5t81.5 313t-81.5 312.5t-220.5 219t-306 78.5q-166 0 -305.5 -78t-222.5 -219t-83 -313zM453 711q0 239 89.5 337.5t309.5 98.5q157 0 276 -29l-16 -139q-132 6 -262 6q-120 0 -163.5 -58t-43.5 -216q0 -160 43.5 -217.5t163.5 -57.5q173 0 285 8l14 -137 q-121 -33 -297 -33q-220 0 -309.5 98t-89.5 339z" />
<glyph unicode="&#xaa;" horiz-adv-x="899" d="M111 729v76q0 78 53.5 123t148.5 45h273v41q0 45 -25.5 67.5t-87.5 22.5q-89 0 -311 -12l-17 129q196 32 369 32q128 0 192 -55t64 -186v-451h-147l-21 117q-116 -133 -278 -133q-95 0 -154 48t-59 136zM289 768q0 -41 23.5 -57.5t72.5 -16.5q46 0 100.5 22.5t100.5 57.5 v103l-209 -19q-49 -3 -68.5 -20t-19.5 -50v-20z" />
<glyph unicode="&#xab;" horiz-adv-x="1032" d="M80 487v54l326 405l131 -84l-234 -348l236 -356l-131 -84zM481 487v54l326 405l131 -84l-233 -348l235 -356l-131 -84z" />
<glyph unicode="&#xac;" horiz-adv-x="1202" d="M133 522v183h924v-431h-187v248h-737z" />
<glyph unicode="&#xad;" horiz-adv-x="876" d="M131 432v176h614v-176h-614z" />
<glyph unicode="&#xae;" horiz-adv-x="1097" d="M94 983q0 189 133.5 322t323.5 133q189 0 322 -133t133 -322q0 -190 -133 -323.5t-322 -133.5q-125 0 -230 61t-166 166t-61 230zM174 983q0 -157 110 -268t267 -111q154 0 264.5 111.5t110.5 267.5q0 158 -110.5 268.5t-264.5 110.5q-157 0 -267 -110.5t-110 -268.5z M346 737v500q70 6 219 6q115 0 163 -31t48 -114q0 -55 -26 -85.5t-88 -37.5v-4q63 -8 81 -78l54 -156h-115l-47 152q-10 26 -27 36.5t-45 10.5h-108v-199h-109zM455 1012h108q61 2 82.5 17.5t20.5 57.5q1 45 -20.5 59.5t-82.5 14.5h-108v-149z" />
<glyph unicode="&#xb0;" horiz-adv-x="720" d="M88 1176q0 109 79 186.5t193 77.5q111 0 192 -77.5t81 -186.5q0 -111 -80.5 -191t-192.5 -80t-192 80t-80 191zM231 1176q0 -58 37 -95t92 -37q53 0 90 37t37 95q0 56 -36 91.5t-91 35.5t-92 -35.5t-37 -91.5z" />
<glyph unicode="&#xb1;" horiz-adv-x="1189" d="M135 113v184h920v-184h-920zM135 657v185h367v258h186v-258h367v-185h-369v-256h-184v256h-367z" />
<glyph unicode="&#xb4;" horiz-adv-x="690" d="M104 1196l385 301l129 -182l-436 -230z" />
<glyph unicode="&#xb6;" horiz-adv-x="1220" d="M68 922q0 283 146.5 399.5t492.5 116.5q199 0 331 -35v-1403h-178v1278q-93 4 -149 6v-1714h-174v842q-251 23 -360 141.5t-109 368.5z" />
<glyph unicode="&#xb7;" horiz-adv-x="509" d="M129 477v103q0 51 19 70.5t69 19.5h76q50 0 69 -19.5t19 -70.5v-103q0 -51 -19 -70.5t-69 -19.5h-76q-50 0 -69 19.5t-19 70.5z" />
<glyph unicode="&#xb8;" horiz-adv-x="495" d="M59 -481l35 121q75 -2 123.5 31.5t52.5 92.5q2 28 -22.5 37t-102.5 9l25 108q150 16 210.5 -9.5t57.5 -123.5q-4 -142 -111.5 -214.5t-267.5 -51.5z" />
<glyph unicode="&#xba;" horiz-adv-x="903" d="M102 897q0 196 78.5 276t272.5 80q193 0 271.5 -80.5t78.5 -275.5q0 -194 -78.5 -273t-271.5 -79q-194 0 -272.5 79t-78.5 273zM293 897q0 -122 33.5 -165.5t126.5 -43.5q91 0 124 43.5t33 165.5q0 125 -32.5 168t-124.5 43q-93 0 -126.5 -43t-33.5 -168z" />
<glyph unicode="&#xbb;" horiz-adv-x="1032" d="M92 158l236 356l-234 348l131 84l326 -405v-54l-328 -413zM494 158l235 356l-233 348l131 84l325 -405v-54l-327 -413z" />
<glyph unicode="&#xbf;" horiz-adv-x="1030" d="M68 -106q0 61 19 115t50.5 95.5t69 81t76.5 81.5t71.5 87t55 106.5t26.5 131.5h205q3 -87 -18 -163.5t-55 -128t-74.5 -102t-76 -88t-60.5 -82.5t-27 -89q-5 -80 48 -118t173 -38q162 0 405 14l11 -174q-8 -1 -46.5 -9t-45.5 -9t-39.5 -7t-45 -7t-43 -5t-52 -4.5 t-55.5 -2.5t-69 -2.5t-77 -0.5q-215 0 -320.5 78t-105.5 240zM422 840v106q0 50 19.5 69t70.5 19h57q51 0 70.5 -19t19.5 -69v-106q0 -50 -19.5 -69t-70.5 -19h-57q-51 0 -70.5 19t-19.5 69z" />
<glyph unicode="&#xc0;" horiz-adv-x="1302" d="M10 0l424 1346q9 32 34 49.5t58 17.5h250q33 0 58 -17.5t34 -49.5l424 -1346h-262l-117 399h-524l-117 -399h-262zM262 1712l129 184l385 -303l-78 -110zM451 610h401l-141 488q-3 13 -10.5 38t-12.5 45.5t-8 37.5h-55l-33 -121z" />
<glyph unicode="&#xc1;" horiz-adv-x="1302" d="M10 0l424 1346q9 32 34 49.5t58 17.5h250q33 0 58 -17.5t34 -49.5l424 -1346h-262l-117 399h-524l-117 -399h-262zM451 610h401l-141 488q-3 13 -10.5 38t-12.5 45.5t-8 37.5h-55l-33 -121zM498 1593l385 303l127 -184l-435 -229z" />
<glyph unicode="&#xc2;" horiz-adv-x="1302" d="M10 0l424 1346q9 32 34 49.5t58 17.5h250q33 0 58 -17.5t34 -49.5l424 -1346h-262l-117 399h-524l-117 -399h-262zM293 1583l270 270h180l269 -272l-78 -100l-272 196h-17l-276 -196zM451 610h401l-141 488q-3 13 -10.5 38t-12.5 45.5t-8 37.5h-55l-33 -121z" />
<glyph unicode="&#xc3;" horiz-adv-x="1302" d="M10 0l424 1346q9 32 34 49.5t58 17.5h250q33 0 58 -17.5t34 -49.5l424 -1346h-262l-117 399h-524l-117 -399h-262zM311 1556q-18 133 31.5 203t132.5 64q68 -5 166 -50.5t152 -52.5q52 -7 70 14t18 78h108q18 -128 -29 -199t-135 -65q-60 4 -118 27.5t-110 48.5t-91 31 q-51 6 -68.5 -17t-17.5 -82h-109zM451 610h401l-141 488q-3 13 -10.5 38t-12.5 45.5t-8 37.5h-55l-33 -121z" />
<glyph unicode="&#xc4;" horiz-adv-x="1302" d="M10 0l424 1346q9 32 34 49.5t58 17.5h250q33 0 58 -17.5t34 -49.5l424 -1346h-262l-117 399h-524l-117 -399h-262zM367 1624v113q0 63 61 63h82q59 0 59 -63v-113q0 -32 -14 -46.5t-45 -14.5h-82q-61 0 -61 61zM451 610h401l-141 488q-3 13 -10.5 38t-12.5 45.5t-8 37.5 h-55l-33 -121zM733 1624v113q0 63 62 63h82q61 0 61 -63v-113q0 -61 -61 -61h-82q-32 0 -47 14.5t-15 46.5z" />
<glyph unicode="&#xc5;" horiz-adv-x="1302" d="M10 0l424 1346q9 32 34 49.5t58 17.5h250q33 0 58 -17.5t34 -49.5l424 -1346h-262l-117 399h-524l-117 -399h-262zM420 1686q0 96 68.5 161.5t164.5 65.5q95 0 163.5 -65.5t68.5 -161.5t-68 -161t-164 -65q-97 0 -165 65t-68 161zM451 610h401l-141 488q-3 13 -10.5 38 t-12.5 45.5t-8 37.5h-55l-33 -121zM545 1686q0 -50 31 -79.5t77 -29.5t77.5 30t31.5 79q0 51 -31.5 81.5t-77.5 30.5q-47 0 -77.5 -30.5t-30.5 -81.5z" />
<glyph unicode="&#xc6;" horiz-adv-x="1886" d="M-16 0l639 1163q75 146 187.5 199t348.5 53q401 0 635 -14l-12 -199h-508q-55 0 -88 -33.5t-33 -91.5v-237h553v-199h-553v-313q0 -65 27.5 -92t93.5 -27h508l12 -197q-199 -16 -629 -16q-113 0 -182.5 74.5t-69.5 193.5v150h-444l-219 -414h-266zM578 616h335v490 q0 40 16 80t38 61h-19q-43 -26 -98 -117z" />
<glyph unicode="&#xc7;" horiz-adv-x="1183" d="M109 707q0 205 30 342t99 225t177 126t269 38q138 0 225 -10t181 -35l-25 -195q-178 14 -381 14q-119 0 -183.5 -46.5t-93 -154t-28.5 -304.5q0 -148 14.5 -242.5t51 -155t93.5 -84.5t146 -24q261 0 412 20l22 -192q-95 -30 -192 -42t-242 -12q-215 0 -339 71.5 t-180 229.5t-56 431zM444 -510l37 121q74 -2 122.5 31t51.5 92q1 29 -22.5 37t-102.5 8l25 108q152 16 212 -9.5t56 -123.5q-4 -142 -111.5 -214t-267.5 -50z" />
<glyph unicode="&#xc8;" d="M145 264v885q1 124 83.5 196t220.5 72q436 0 622 -16l-12 -197h-553q-56 0 -79.5 -26.5t-23.5 -92.5v-247h580v-197h-580v-315q0 -66 23.5 -92.5t79.5 -26.5h553l12 -195q-186 -16 -622 -16q-140 0 -221.5 72t-82.5 196zM248 1745l129 184l385 -301l-78 -110z" />
<glyph unicode="&#xc9;" d="M145 264v885q1 124 83.5 196t220.5 72q436 0 622 -16l-12 -197h-553q-56 0 -79.5 -26.5t-23.5 -92.5v-247h580v-197h-580v-315q0 -66 23.5 -92.5t79.5 -26.5h553l12 -195q-186 -16 -622 -16q-140 0 -221.5 72t-82.5 196zM483 1628l385 301l127 -184l-434 -227z" />
<glyph unicode="&#xca;" d="M145 264v885q1 124 83.5 196t220.5 72q436 0 622 -16l-12 -197h-553q-56 0 -79.5 -26.5t-23.5 -92.5v-247h580v-197h-580v-315q0 -66 23.5 -92.5t79.5 -26.5h553l12 -195q-186 -16 -622 -16q-140 0 -221.5 72t-82.5 196zM279 1618l270 268h180l268 -270l-77 -100 l-273 194h-16l-277 -194z" />
<glyph unicode="&#xcb;" d="M145 264v885q1 124 83.5 196t220.5 72q436 0 622 -16l-12 -197h-553q-56 0 -79.5 -26.5t-23.5 -92.5v-247h580v-197h-580v-315q0 -66 23.5 -92.5t79.5 -26.5h553l12 -195q-186 -16 -622 -16q-140 0 -221.5 72t-82.5 196zM352 1659v113q0 61 62 61h82q59 0 59 -61v-113 q0 -64 -59 -64h-82q-62 0 -62 64zM719 1659v113q0 61 61 61h82q29 0 45.5 -16t16.5 -45v-113q0 -64 -62 -64h-82q-61 0 -61 64z" />
<glyph unicode="&#xcc;" horiz-adv-x="571" d="M-102 1712l127 184l385 -303l-78 -110zM158 0v1413h256v-1413h-256z" />
<glyph unicode="&#xcd;" horiz-adv-x="571" d="M131 1593l385 303l129 -184l-436 -229zM158 0v1413h256v-1413h-256z" />
<glyph unicode="&#xce;" horiz-adv-x="571" d="M-72 1583l269 270h180l270 -272l-80 -100l-272 196h-16l-275 -196zM158 0v1413h256v-1413h-256z" />
<glyph unicode="&#xcf;" horiz-adv-x="571" d="M2 1624v113q0 63 59 63h82q62 0 62 -63v-113q0 -61 -62 -61h-82q-31 0 -45 14.5t-14 46.5zM158 0v1413h256v-1413h-256zM367 1624v113q0 63 63 63h80q61 0 61 -63v-113q0 -61 -61 -61h-80q-63 0 -63 61z" />
<glyph unicode="&#xd0;" horiz-adv-x="1382" d="M39 678v135h127v600q296 19 528 19q164 0 271 -35t177 -120.5t100 -222.5t30 -347t-30 -347t-100 -222.5t-177 -120.5t-271 -35q-247 0 -528 18v678h-127zM424 201q156 -4 270 -4q89 0 146.5 24.5t94 85t51.5 156t15 244.5q0 198 -28.5 307t-94 157t-184.5 48 q-54 0 -143.5 -1t-126.5 -1v-404h274v-135h-274v-477z" />
<glyph unicode="&#xd1;" horiz-adv-x="1464" d="M158 0v1319q0 46 25 70t71 24h199q40 0 63 -18t43 -60l385 -841q85 -191 98 -224h25q-10 130 -10 230v913h250v-1319q0 -46 -24.5 -70t-70.5 -24h-202q-40 0 -64.5 18.5t-42.5 59.5l-397 866q-71 150 -84 211h-25q13 -94 13 -213v-942h-252zM403 1556q-18 132 32 202.5 t132 64.5q69 -5 167.5 -51t150.5 -52q52 -7 70 14t18 78h108q20 -128 -27 -199t-136 -65q-47 3 -95 19t-80.5 33t-72.5 33.5t-72 21.5q-51 6 -68.5 -17t-17.5 -82h-109z" />
<glyph unicode="&#xd2;" horiz-adv-x="1382" d="M109 707q0 213 29.5 351.5t100.5 225t178.5 121.5t272.5 35q133 0 227 -23t164.5 -73.5t112 -137t61 -207.5t19.5 -292t-19.5 -292.5t-61 -208t-112 -137t-164.5 -73.5t-227 -23q-110 0 -192.5 15t-149 50.5t-110.5 91t-73.5 138t-42.5 190t-13 249.5zM299 1712l127 184 l385 -303l-78 -110zM379 707q0 -200 28.5 -309.5t95 -157t187.5 -47.5q122 0 189 47.5t96 157t29 309.5t-29 309.5t-96 157t-189 47.5q-121 0 -187.5 -47.5t-95 -157t-28.5 -309.5z" />
<glyph unicode="&#xd3;" horiz-adv-x="1382" d="M109 707q0 213 29.5 351.5t100.5 225t178.5 121.5t272.5 35q133 0 227 -23t164.5 -73.5t112 -137t61 -207.5t19.5 -292t-19.5 -292.5t-61 -208t-112 -137t-164.5 -73.5t-227 -23q-110 0 -192.5 15t-149 50.5t-110.5 91t-73.5 138t-42.5 190t-13 249.5zM379 707 q0 -200 28.5 -309.5t95 -157t187.5 -47.5q122 0 189 47.5t96 157t29 309.5t-29 309.5t-96 157t-189 47.5q-121 0 -187.5 -47.5t-95 -157t-28.5 -309.5zM535 1593l383 303l129 -184l-437 -229z" />
<glyph unicode="&#xd4;" horiz-adv-x="1382" d="M109 707q0 213 29.5 351.5t100.5 225t178.5 121.5t272.5 35q133 0 227 -23t164.5 -73.5t112 -137t61 -207.5t19.5 -292t-19.5 -292.5t-61 -208t-112 -137t-164.5 -73.5t-227 -23q-110 0 -192.5 15t-149 50.5t-110.5 91t-73.5 138t-42.5 190t-13 249.5zM330 1583l270 270 h178l271 -272l-80 -100l-273 196h-16l-274 -196zM379 707q0 -200 28.5 -309.5t95 -157t187.5 -47.5q122 0 189 47.5t96 157t29 309.5t-29 309.5t-96 157t-189 47.5q-121 0 -187.5 -47.5t-95 -157t-28.5 -309.5z" />
<glyph unicode="&#xd5;" horiz-adv-x="1382" d="M109 707q0 213 29.5 351.5t100.5 225t178.5 121.5t272.5 35q133 0 227 -23t164.5 -73.5t112 -137t61 -207.5t19.5 -292t-19.5 -292.5t-61 -208t-112 -137t-164.5 -73.5t-227 -23q-110 0 -192.5 15t-149 50.5t-110.5 91t-73.5 138t-42.5 190t-13 249.5zM348 1556 q-19 132 30.5 202.5t133.5 64.5q68 -5 165.5 -50.5t151.5 -52.5q52 -7 70.5 14t18.5 78h108q18 -128 -29 -199t-135 -65q-60 4 -118.5 27.5t-110.5 48.5t-90 31q-51 6 -68.5 -17t-17.5 -82h-109zM379 707q0 -200 28.5 -309.5t95 -157t187.5 -47.5q122 0 189 47.5t96 157 t29 309.5t-29 309.5t-96 157t-189 47.5q-121 0 -187.5 -47.5t-95 -157t-28.5 -309.5z" />
<glyph unicode="&#xd6;" horiz-adv-x="1382" d="M109 707q0 213 29.5 351.5t100.5 225t178.5 121.5t272.5 35q133 0 227 -23t164.5 -73.5t112 -137t61 -207.5t19.5 -292t-19.5 -292.5t-61 -208t-112 -137t-164.5 -73.5t-227 -23q-110 0 -192.5 15t-149 50.5t-110.5 91t-73.5 138t-42.5 190t-13 249.5zM379 707 q0 -200 28.5 -309.5t95 -157t187.5 -47.5q122 0 189 47.5t96 157t29 309.5t-29 309.5t-96 157t-189 47.5q-121 0 -187.5 -47.5t-95 -157t-28.5 -309.5zM403 1624v113q0 63 60 63h84q59 0 59 -63v-113q0 -32 -14 -46.5t-45 -14.5h-84q-60 0 -60 61zM770 1624v113q0 63 61 63 h80q30 0 47 -16.5t17 -46.5v-113q0 -61 -64 -61h-80q-32 0 -46.5 14.5t-14.5 46.5z" />
<glyph unicode="&#xd8;" horiz-adv-x="1382" d="M109 707q0 213 29.5 351.5t100.5 225t178.5 121.5t272.5 35q161 0 258 -31l64 135l112 -47l-63 -139q113 -73 163 -228t50 -423q0 -171 -19.5 -292.5t-61 -208t-112 -137t-164.5 -73.5t-227 -23q-156 0 -262 33l-61 -131l-115 47l65 135q-111 74 -159.5 229t-48.5 421z M379 707q0 -281 57 -392l412 877q-62 29 -158 29q-121 0 -187.5 -47.5t-95 -157t-28.5 -309.5zM530 223q62 -30 160 -30q122 0 189 47.5t96 157t29 309.5q0 287 -62 397z" />
<glyph unicode="&#xd9;" horiz-adv-x="1374" d="M147 553v860h256v-860q0 -203 62.5 -281.5t222.5 -78.5q157 0 219 78.5t62 281.5v860h258v-860q0 -317 -119.5 -448.5t-409.5 -131.5q-302 0 -426.5 131.5t-124.5 448.5zM299 1712l127 184l385 -303l-78 -110z" />
<glyph unicode="&#xda;" horiz-adv-x="1374" d="M147 553v860h256v-860q0 -203 62.5 -281.5t222.5 -78.5q157 0 219 78.5t62 281.5v860h258v-860q0 -317 -119.5 -448.5t-409.5 -131.5q-302 0 -426.5 131.5t-124.5 448.5zM535 1593l383 303l129 -184l-437 -229z" />
<glyph unicode="&#xdb;" horiz-adv-x="1374" d="M147 553v860h256v-860q0 -203 62.5 -281.5t222.5 -78.5q157 0 219 78.5t62 281.5v860h258v-860q0 -317 -119.5 -448.5t-409.5 -131.5q-302 0 -426.5 131.5t-124.5 448.5zM330 1583l270 270h178l271 -272l-80 -100l-273 196h-16l-274 -196z" />
<glyph unicode="&#xdc;" horiz-adv-x="1374" d="M147 553v860h256v-860q0 -203 62.5 -281.5t222.5 -78.5q157 0 219 78.5t62 281.5v860h258v-860q0 -317 -119.5 -448.5t-409.5 -131.5q-302 0 -426.5 131.5t-124.5 448.5zM403 1624v113q0 63 60 63h84q59 0 59 -63v-113q0 -32 -14 -46.5t-45 -14.5h-84q-60 0 -60 61z M770 1624v113q0 63 61 63h80q30 0 47 -16.5t17 -46.5v-113q0 -61 -64 -61h-80q-32 0 -46.5 14.5t-14.5 46.5z" />
<glyph unicode="&#xdd;" horiz-adv-x="1206" d="M10 1413h271l258 -549q16 -33 57 -170h16q39 131 58 170l258 549h266l-463 -936v-477h-256v481zM446 1593l385 303l130 -184l-437 -229z" />
<glyph unicode="&#xde;" horiz-adv-x="1230" d="M158 0v1153v2v258h258v-242q105 3 254 3q140 0 228.5 -21t147 -75t82 -141.5t23.5 -225.5q0 -137 -23 -224.5t-78.5 -140.5t-138 -73.5t-211.5 -20.5q-150 0 -284 16v-268h-258zM416 463h246q92 1 139.5 21.5t69.5 73t22 153.5q0 150 -48.5 201t-182.5 51h-246v-500z" />
<glyph unicode="&#xdf;" horiz-adv-x="1415" d="M47 821v183h178v122q0 90 20.5 154t58 104.5t100 64t135.5 32t176 8.5q185 0 288.5 -28t149 -91t45.5 -176q0 -75 -31.5 -135t-126.5 -129q-23 -17 -55 -39t-47.5 -33.5t-33 -28t-24 -33.5t-6.5 -38q0 -19 7.5 -34.5t23.5 -29t35.5 -25t48.5 -27.5q11 -6 17 -9l180 -96 q97 -54 134.5 -110.5t37.5 -160.5q0 -164 -88 -226.5t-293 -62.5q-144 0 -332 23l14 178q141 -6 263 -6q114 0 152 18t38 86q0 46 -24.5 70.5t-96.5 64.5q-4 2 -6.5 3.5t-5.5 3.5l-180 94q-160 87 -160 238q0 34 9.5 63.5t20.5 49t37 44.5t41.5 36.5t53 38t53.5 38.5 q65 50 89 83t24 81q0 37 -15 58.5t-70 36.5t-157 15q-150 0 -200 -38.5t-50 -157.5v-1098h-250v821h-178z" />
<glyph unicode="&#xe0;" horiz-adv-x="1142" d="M88 268v103q0 120 78 186t219 66h377v61q-1 86 -38.5 114.5t-145.5 28.5q-157 0 -420 -20l-25 176q107 20 254.5 34.5t247.5 14.5q194 0 285.5 -78t91.5 -272v-682h-197l-27 154q-66 -73 -163 -125t-219 -52q-142 0 -230 76.5t-88 214.5zM172 1343l127 183l385 -301 l-78 -111zM336 301q0 -64 31.5 -93.5t99.5 -29.5q64 0 143.5 30t151.5 89v156h-320q-59 -3 -82.5 -31t-23.5 -82v-39z" />
<glyph unicode="&#xe1;" horiz-adv-x="1142" d="M88 268v103q0 120 78 186t219 66h377v61q-1 86 -38.5 114.5t-145.5 28.5q-157 0 -420 -20l-25 176q107 20 254.5 34.5t247.5 14.5q194 0 285.5 -78t91.5 -272v-682h-197l-27 154q-66 -73 -163 -125t-219 -52q-142 0 -230 76.5t-88 214.5zM336 301q0 -64 31.5 -93.5 t99.5 -29.5q64 0 143.5 30t151.5 89v156h-320q-59 -3 -82.5 -31t-23.5 -82v-39zM406 1225l385 301l129 -183l-437 -229z" />
<glyph unicode="&#xe2;" horiz-adv-x="1142" d="M88 268v103q0 120 78 186t219 66h377v61q-1 86 -38.5 114.5t-145.5 28.5q-157 0 -420 -20l-25 176q107 20 254.5 34.5t247.5 14.5q194 0 285.5 -78t91.5 -272v-682h-197l-27 154q-66 -73 -163 -125t-219 -52q-142 0 -230 76.5t-88 214.5zM203 1214l268 269h180l271 -271 l-80 -100l-273 197h-16l-274 -197zM336 301q0 -64 31.5 -93.5t99.5 -29.5q64 0 143.5 30t151.5 89v156h-320q-59 -3 -82.5 -31t-23.5 -82v-39z" />
<glyph unicode="&#xe3;" horiz-adv-x="1142" d="M88 268v103q0 120 78 186t219 66h377v61q-1 86 -38.5 114.5t-145.5 28.5q-157 0 -420 -20l-25 176q107 20 254.5 34.5t247.5 14.5q194 0 285.5 -78t91.5 -272v-682h-197l-27 154q-66 -73 -163 -125t-219 -52q-142 0 -230 76.5t-88 214.5zM221 1186q-19 133 30 202.5 t132 63.5q69 -5 167.5 -49.5t151.5 -50.5q51 -9 68.5 12.5t17.5 77.5h111q18 -128 -29 -198t-135 -64q-60 4 -118.5 27.5t-110.5 48t-90 30.5q-52 6 -69 -17t-17 -83h-109zM336 301q0 -64 31.5 -93.5t99.5 -29.5q64 0 143.5 30t151.5 89v156h-320q-59 -3 -82.5 -31 t-23.5 -82v-39z" />
<glyph unicode="&#xe4;" horiz-adv-x="1142" d="M88 268v103q0 120 78 186t219 66h377v61q-1 86 -38.5 114.5t-145.5 28.5q-157 0 -420 -20l-25 176q107 20 254.5 34.5t247.5 14.5q194 0 285.5 -78t91.5 -272v-682h-197l-27 154q-66 -73 -163 -125t-219 -52q-142 0 -230 76.5t-88 214.5zM276 1255v113q0 64 60 64h84 q59 0 59 -64v-113q0 -32 -14 -46.5t-45 -14.5h-84q-60 0 -60 61zM336 301q0 -64 31.5 -93.5t99.5 -29.5q64 0 143.5 30t151.5 89v156h-320q-59 -3 -82.5 -31t-23.5 -82v-39zM641 1255v113q0 64 64 64h79q29 0 46.5 -17.5t17.5 -46.5v-113q0 -61 -64 -61h-79q-64 0 -64 61z " />
<glyph unicode="&#xe5;" horiz-adv-x="1142" d="M88 268v103q0 120 78 186t219 66h377v61q-1 86 -38.5 114.5t-145.5 28.5q-157 0 -420 -20l-25 176q107 20 254.5 34.5t247.5 14.5q194 0 285.5 -78t91.5 -272v-682h-197l-27 154q-66 -73 -163 -125t-219 -52q-142 0 -230 76.5t-88 214.5zM330 1317q0 96 68 161.5 t165 65.5q95 0 163.5 -65.5t68.5 -161.5t-68 -160.5t-164 -64.5q-99 0 -166 64.5t-67 160.5zM336 301q0 -64 31.5 -93.5t99.5 -29.5q64 0 143.5 30t151.5 89v156h-320q-59 -3 -82.5 -31t-23.5 -82v-39zM455 1317q0 -51 30.5 -81t77.5 -30q46 0 76.5 30t30.5 81t-30.5 82 t-76.5 31q-48 0 -78 -30.5t-30 -82.5z" />
<glyph unicode="&#xe6;" horiz-adv-x="1781" d="M88 268v103q0 119 78 185.5t217 66.5h377v61q0 85 -38.5 114t-146.5 29q-156 0 -419 -20l-23 176q107 20 253.5 34.5t246.5 14.5q196 0 285 -78q108 78 325 78q239 0 346 -86.5t109 -261.5q0 -287 -268 -287h-410q14 -131 73.5 -175t196.5 -44q143 0 359 25l22 -160 q-73 -35 -187.5 -51.5t-226.5 -16.5q-176 0 -283 49t-159 156q-29 -35 -65 -67t-87.5 -64.5t-118 -52t-138.5 -19.5q-142 0 -230 76.5t-88 214.5zM336 301q0 -65 31 -94t100 -29q67 0 150 32.5t157 98.5q-13 71 -16 144h-316q-60 -3 -83 -30.5t-23 -82.5v-39zM1016 571h344 q90 0 90 117q0 81 -42.5 114.5t-154.5 33.5q-132 0 -182.5 -54.5t-54.5 -210.5z" />
<glyph unicode="&#xe7;" horiz-adv-x="1019" d="M94 504q0 290 111.5 409t380.5 119q212 0 350 -57l-29 -156q-100 4 -278 4q-156 0 -215.5 -67t-59.5 -252q0 -187 59.5 -255.5t215.5 -68.5q155 0 301 21l22 -164q-150 -62 -368 -62q-269 0 -379.5 119t-110.5 410zM348 -506l37 121q74 -2 122.5 31t51.5 92 q1 29 -22.5 37t-102.5 8l25 108q152 16 212 -9.5t56 -123.5q-4 -142 -111.5 -214t-267.5 -50z" />
<glyph unicode="&#xe8;" horiz-adv-x="1122" d="M94 504q0 149 27.5 250t88.5 163t150 88.5t220 26.5q239 0 347.5 -87t108.5 -261q0 -287 -268 -287h-410q14 -131 73.5 -175t195.5 -44q144 0 360 25l23 -160q-73 -35 -188 -51.5t-226 -16.5q-273 0 -387.5 121.5t-114.5 407.5zM193 1343l129 183l385 -301l-78 -111z M354 571h344q90 0 90 117q0 81 -42.5 114.5t-155.5 33.5q-131 0 -181.5 -54.5t-54.5 -210.5z" />
<glyph unicode="&#xe9;" horiz-adv-x="1122" d="M94 504q0 149 27.5 250t88.5 163t150 88.5t220 26.5q239 0 347.5 -87t108.5 -261q0 -287 -268 -287h-410q14 -131 73.5 -175t195.5 -44q144 0 360 25l23 -160q-73 -35 -188 -51.5t-226 -16.5q-273 0 -387.5 121.5t-114.5 407.5zM354 571h344q90 0 90 117 q0 81 -42.5 114.5t-155.5 33.5q-131 0 -181.5 -54.5t-54.5 -210.5zM428 1225l385 301l129 -183l-436 -229z" />
<glyph unicode="&#xea;" horiz-adv-x="1122" d="M94 504q0 149 27.5 250t88.5 163t150 88.5t220 26.5q239 0 347.5 -87t108.5 -261q0 -287 -268 -287h-410q14 -131 73.5 -175t195.5 -44q144 0 360 25l23 -160q-73 -35 -188 -51.5t-226 -16.5q-273 0 -387.5 121.5t-114.5 407.5zM225 1214l269 269h180l270 -271l-80 -100 l-272 197h-17l-274 -197zM354 571h344q90 0 90 117q0 81 -42.5 114.5t-155.5 33.5q-131 0 -181.5 -54.5t-54.5 -210.5z" />
<glyph unicode="&#xeb;" horiz-adv-x="1122" d="M94 504q0 149 27.5 250t88.5 163t150 88.5t220 26.5q239 0 347.5 -87t108.5 -261q0 -287 -268 -287h-410q14 -131 73.5 -175t195.5 -44q144 0 360 25l23 -160q-73 -35 -188 -51.5t-226 -16.5q-273 0 -387.5 121.5t-114.5 407.5zM299 1255v113q0 64 59 64h82q30 0 46 -17 t16 -47v-113q0 -61 -62 -61h-82q-31 0 -45 14.5t-14 46.5zM354 571h344q90 0 90 117q0 81 -42.5 114.5t-155.5 33.5q-131 0 -181.5 -54.5t-54.5 -210.5zM664 1255v113q0 64 61 64h82q29 0 45 -17t16 -47v-113q0 -61 -61 -61h-82q-61 0 -61 61z" />
<glyph unicode="&#xec;" horiz-adv-x="544" d="M-117 1343l129 183l385 -301l-78 -111zM147 0v1004h250v-1004h-250z" />
<glyph unicode="&#xed;" horiz-adv-x="544" d="M119 1225l385 301l127 -183l-434 -229zM147 0v1004h250v-1004h-250z" />
<glyph unicode="&#xee;" horiz-adv-x="544" d="M-84 1214l268 269h181l268 -271l-78 -100l-272 197h-17l-274 -197zM147 0v1004h250v-1004h-250z" />
<glyph unicode="&#xef;" horiz-adv-x="544" d="M-12 1255v113q0 64 61 64h82q30 0 46 -17t16 -47v-113q0 -61 -62 -61h-82q-61 0 -61 61zM147 0v1004h250v-1004h-250zM354 1255v113q0 64 62 64h82q29 0 45 -17t16 -47v-113q0 -61 -61 -61h-82q-32 0 -47 14.5t-15 46.5z" />
<glyph unicode="&#xf0;" d="M96 444q0 240 99 359t327 119q141 0 250 -56q-36 181 -131 273l-147 -117l-82 98l118 94q-106 48 -282 41l24 175q248 13 424 -82l154 125l82 -101l-125 -100q248 -214 248 -688q0 -153 -23 -261.5t-77 -189.5t-149 -120.5t-233 -39.5q-246 0 -361.5 113t-115.5 358z M356 449q0 -153 50 -215t169 -62q58 0 98 17t64.5 46.5t37.5 84t17.5 115.5t4.5 155q0 19 -1 53.5t-1 50.5q-102 29 -224 29q-119 0 -167 -64.5t-48 -209.5z" />
<glyph unicode="&#xf1;" horiz-adv-x="1208" d="M139 0v1004h209l17 -148q231 176 434 176q134 0 205 -71.5t71 -206.5v-754h-250v678q0 84 -22.5 113.5t-83.5 29.5q-70 0 -143 -29t-187 -94v-698h-250zM276 1186q-18 134 31 203t133 63q70 -5 168 -49.5t150 -50.5q52 -9 70 12.5t18 77.5h108q18 -128 -28.5 -198 t-134.5 -64q-60 4 -118.5 27.5t-110.5 48t-91 30.5q-52 6 -69 -17t-17 -83h-109z" />
<glyph unicode="&#xf2;" horiz-adv-x="1179" d="M94 502q0 289 113.5 409.5t384.5 120.5q270 0 381.5 -120.5t111.5 -409.5t-111.5 -409t-381.5 -120q-272 0 -385 120t-113 409zM201 1343l127 183l385 -301l-78 -111zM354 502q0 -193 50 -261.5t188 -68.5q136 0 185.5 69t49.5 261q0 194 -49.5 263t-185.5 69 q-94 0 -144.5 -29.5t-72 -99.5t-21.5 -203z" />
<glyph unicode="&#xf3;" horiz-adv-x="1179" d="M94 502q0 289 113.5 409.5t384.5 120.5q270 0 381.5 -120.5t111.5 -409.5t-111.5 -409t-381.5 -120q-272 0 -385 120t-113 409zM354 502q0 -193 50 -261.5t188 -68.5q136 0 185.5 69t49.5 261q0 194 -49.5 263t-185.5 69q-94 0 -144.5 -29.5t-72 -99.5t-21.5 -203z M434 1225l385 301l129 -183l-436 -229z" />
<glyph unicode="&#xf4;" horiz-adv-x="1179" d="M94 502q0 289 113.5 409.5t384.5 120.5q270 0 381.5 -120.5t111.5 -409.5t-111.5 -409t-381.5 -120q-272 0 -385 120t-113 409zM231 1214l269 269h180l270 -271l-80 -100l-272 197h-16l-275 -197zM354 502q0 -193 50 -261.5t188 -68.5q136 0 185.5 69t49.5 261 q0 194 -49.5 263t-185.5 69q-94 0 -144.5 -29.5t-72 -99.5t-21.5 -203z" />
<glyph unicode="&#xf5;" horiz-adv-x="1179" d="M94 502q0 289 113.5 409.5t384.5 120.5q270 0 381.5 -120.5t111.5 -409.5t-111.5 -409t-381.5 -120q-272 0 -385 120t-113 409zM248 1186q-18 133 31.5 202.5t132.5 63.5q70 -5 167.5 -49.5t149.5 -50.5q53 -9 70.5 12.5t17.5 77.5h109q20 -128 -27 -198t-135 -64 q-60 4 -119 27.5t-111 48t-90 30.5q-53 6 -69.5 -16.5t-16.5 -83.5h-110zM354 502q0 -193 50 -261.5t188 -68.5q136 0 185.5 69t49.5 261q0 194 -49.5 263t-185.5 69q-94 0 -144.5 -29.5t-72 -99.5t-21.5 -203z" />
<glyph unicode="&#xf6;" horiz-adv-x="1179" d="M94 502q0 289 113.5 409.5t384.5 120.5q270 0 381.5 -120.5t111.5 -409.5t-111.5 -409t-381.5 -120q-272 0 -385 120t-113 409zM305 1255v113q0 64 60 64h81q30 0 46 -17t16 -47v-113q0 -61 -62 -61h-81q-60 0 -60 61zM354 502q0 -193 50 -261.5t188 -68.5 q136 0 185.5 69t49.5 261q0 194 -49.5 263t-185.5 69q-94 0 -144.5 -29.5t-72 -99.5t-21.5 -203zM670 1255v113q0 64 63 64h80q29 0 45 -17t16 -47v-113q0 -61 -61 -61h-80q-63 0 -63 61z" />
<glyph unicode="&#xf7;" horiz-adv-x="1146" d="M113 512v180h921v-180h-921zM451 188v82q0 51 19.5 70.5t70.5 19.5h61q51 0 70.5 -19.5t19.5 -70.5v-82q0 -51 -19.5 -70.5t-70.5 -19.5h-61q-51 0 -70.5 19.5t-19.5 70.5zM451 930v84q0 51 19.5 70.5t70.5 19.5h61q51 0 70.5 -19.5t19.5 -70.5v-84q0 -51 -19.5 -69.5 t-70.5 -18.5h-61q-51 0 -70.5 18.5t-19.5 69.5z" />
<glyph unicode="&#xf8;" horiz-adv-x="1179" d="M94 502q0 289 113.5 409.5t384.5 120.5q92 0 174 -16l72 155l96 -47l-66 -139q115 -52 166 -168t51 -315q0 -289 -111.5 -409t-381.5 -120q-92 0 -186 17l-72 -158l-96 45l67 146q-111 53 -161 168t-50 311zM354 502q0 -193 52 -262l272 585q-37 9 -86 9 q-94 0 -144.5 -29.5t-72 -99.5t-21.5 -203zM496 182q34 -10 96 -10q136 0 185.5 69t49.5 261q0 106 -13 170.5t-44 101.5z" />
<glyph unicode="&#xf9;" horiz-adv-x="1185" d="M133 252v752h250v-678q-2 -80 25.5 -111t97.5 -31q61 0 127 26.5t166 84.5v709h248v-1004h-197l-19 135q-213 -162 -419 -162q-137 0 -208 70.5t-71 208.5zM209 1354l127 184l385 -301l-78 -111z" />
<glyph unicode="&#xfa;" horiz-adv-x="1185" d="M133 252v752h250v-678q-2 -80 25.5 -111t97.5 -31q61 0 127 26.5t166 84.5v709h248v-1004h-197l-19 135q-213 -162 -419 -162q-137 0 -208 70.5t-71 208.5zM444 1237l383 301l129 -184l-436 -228z" />
<glyph unicode="&#xfb;" horiz-adv-x="1185" d="M133 252v752h250v-678q-2 -80 25.5 -111t97.5 -31q61 0 127 26.5t166 84.5v709h248v-1004h-197l-19 135q-213 -162 -419 -162q-137 0 -208 70.5t-71 208.5zM240 1227l270 268h178l270 -270l-79 -101l-273 195h-16l-275 -195z" />
<glyph unicode="&#xfc;" horiz-adv-x="1185" d="M133 252v752h250v-678q-2 -80 25.5 -111t97.5 -31q61 0 127 26.5t166 84.5v709h248v-1004h-197l-19 135q-213 -162 -419 -162q-137 0 -208 70.5t-71 208.5zM313 1268v112q0 62 60 62h84q59 0 59 -62v-112q0 -62 -59 -62h-84q-60 0 -60 62zM680 1268v112q0 62 61 62h80 q29 0 46.5 -16.5t17.5 -45.5v-112q0 -62 -64 -62h-80q-32 0 -46.5 15t-14.5 47z" />
<glyph unicode="&#xfd;" horiz-adv-x="1118" d="M25 1004h264l219 -691q22 -70 33 -133h28q7 23 41 133l215 691h267l-373 -1035q-21 -60 -49 -113.5t-72.5 -107t-97.5 -90t-127.5 -58t-159.5 -16.5l-20 158q119 33 187.5 89t106.5 146l11 23h-49q-31 0 -54 16t-30 45zM410 1225l383 301l129 -183l-437 -229z" />
<glyph unicode="&#xfe;" horiz-adv-x="1196" d="M139 -399v1833h250v-306q0 -126 -8 -225q151 125 354 125q194 0 278.5 -128t84.5 -406q0 -197 -41.5 -312t-121 -162t-210.5 -47q-187 0 -342 82q6 -92 6 -190v-264h-250zM389 227q152 -61 248 -61q76 0 119 28t64.5 99.5t21.5 200.5q0 131 -21 203.5t-61.5 100 t-112.5 27.5q-111 0 -258 -108v-490z" />
<glyph unicode="&#xff;" horiz-adv-x="1118" d="M25 1004h264l219 -691q22 -70 33 -133h28q7 23 41 133l215 691h267l-373 -1035q-21 -60 -49 -113.5t-72.5 -107t-97.5 -90t-127.5 -58t-159.5 -16.5l-20 158q119 33 187.5 89t106.5 146l11 23h-49q-31 0 -54 16t-30 45zM279 1255v113q0 64 59 64h84q59 0 59 -64v-113 q0 -32 -14 -46.5t-45 -14.5h-84q-31 0 -45 14.5t-14 46.5zM645 1255v113q0 64 62 64h79q29 0 46.5 -17.5t17.5 -46.5v-113q0 -61 -64 -61h-79q-32 0 -47 14.5t-15 46.5z" />
<glyph unicode="&#x100;" horiz-adv-x="1302" d="M10 0l424 1346q9 32 34 49.5t58 17.5h250q33 0 58 -17.5t34 -49.5l424 -1346h-262l-117 399h-524l-117 -399h-262zM356 1593v172h594v-172h-594zM451 610h401l-141 488q-3 13 -10.5 38t-12.5 45.5t-8 37.5h-55l-33 -121z" />
<glyph unicode="&#x101;" horiz-adv-x="1142" d="M88 268v103q0 120 78 186t219 66h377v61q-1 86 -38.5 114.5t-145.5 28.5q-157 0 -420 -20l-25 176q107 20 254.5 34.5t247.5 14.5q194 0 285.5 -78t91.5 -272v-682h-197l-27 154q-66 -73 -163 -125t-219 -52q-142 0 -230 76.5t-88 214.5zM264 1225v172h596v-172h-596z M336 301q0 -64 31.5 -93.5t99.5 -29.5q64 0 143.5 30t151.5 89v156h-320q-59 -3 -82.5 -31t-23.5 -82v-39z" />
<glyph unicode="&#x102;" horiz-adv-x="1302" d="M10 0l424 1346q9 32 34 49.5t58 17.5h250q33 0 58 -17.5t34 -49.5l424 -1346h-262l-117 399h-524l-117 -399h-262zM328 1810l121 17q0 -135 204 -135q98 0 149.5 35t51.5 100l121 -17q12 -127 -76.5 -209.5t-245.5 -82.5q-159 0 -248 82.5t-77 209.5zM451 610h401 l-141 488q-3 13 -10.5 38t-12.5 45.5t-8 37.5h-55l-33 -121z" />
<glyph unicode="&#x103;" horiz-adv-x="1142" d="M88 268v103q0 120 78 186t219 66h377v61q-1 86 -38.5 114.5t-145.5 28.5q-157 0 -420 -20l-25 176q107 20 254.5 34.5t247.5 14.5q194 0 285.5 -78t91.5 -272v-682h-197l-27 154q-66 -73 -163 -125t-219 -52q-142 0 -230 76.5t-88 214.5zM238 1442l120 16 q0 -137 205 -137q98 0 149.5 35.5t51.5 101.5l121 -16q12 -128 -77 -210.5t-247 -82.5t-247.5 83t-75.5 210zM336 301q0 -64 31.5 -93.5t99.5 -29.5q64 0 143.5 30t151.5 89v156h-320q-59 -3 -82.5 -31t-23.5 -82v-39z" />
<glyph unicode="&#x104;" horiz-adv-x="1302" d="M10 0l424 1346q9 32 34 49.5t58 17.5h250q33 0 58 -17.5t34 -49.5l424 -1346q-99 -128 -135 -217q-28 -66 13.5 -87t127.5 7l27 -98q-141 -55 -223.5 -40t-111.5 71.5t-1 130.5q41 120 195 233h-154l-117 399h-524l-117 -399h-262zM451 610h401l-141 488q-3 13 -10.5 38 t-12.5 45.5t-8 37.5h-55l-33 -121z" />
<glyph unicode="&#x105;" horiz-adv-x="1142" d="M88 268v103q0 120 78 186t219 66h377v61q-1 86 -38.5 114.5t-145.5 28.5q-157 0 -420 -20l-25 176q107 20 254.5 34.5t247.5 14.5q194 0 285.5 -78t91.5 -272v-682q-95 -118 -135 -217q-28 -66 13.5 -87t127.5 7l26 -98q-142 -55 -224.5 -40t-111 71t-1.5 131 q40 119 196 233h-88l-27 154q-66 -73 -163 -125t-219 -52q-142 0 -230 76.5t-88 214.5zM336 301q0 -64 31.5 -93.5t99.5 -29.5q64 0 143.5 30t151.5 89v156h-320q-59 -3 -82.5 -31t-23.5 -82v-39z" />
<glyph unicode="&#x106;" horiz-adv-x="1183" d="M109 707q0 205 30 342t99 225t177 126t269 38q138 0 225 -10t181 -35l-25 -195q-178 14 -381 14q-119 0 -183.5 -46.5t-93 -154t-28.5 -304.5q0 -148 14.5 -242.5t51 -155t93.5 -84.5t146 -24q261 0 412 20l22 -192q-95 -30 -192 -42t-242 -12q-215 0 -339 71.5 t-180 229.5t-56 431zM506 1593l385 303l129 -184l-436 -229z" />
<glyph unicode="&#x107;" horiz-adv-x="1019" d="M94 504q0 290 111.5 409t380.5 119q212 0 350 -57l-29 -156q-100 4 -278 4q-156 0 -215.5 -67t-59.5 -252q0 -187 59.5 -255.5t215.5 -68.5q155 0 301 21l22 -164q-150 -62 -368 -62q-269 0 -379.5 119t-110.5 410zM395 1225l385 301l129 -183l-436 -229z" />
<glyph unicode="&#x10a;" horiz-adv-x="1183" d="M109 707q0 205 30 342t99 225t177 126t269 38q138 0 225 -10t181 -35l-25 -195q-178 14 -381 14q-119 0 -183.5 -46.5t-93 -154t-28.5 -304.5q0 -148 14.5 -242.5t51 -155t93.5 -84.5t146 -24q261 0 412 20l22 -192q-95 -30 -192 -42t-242 -12q-215 0 -339 71.5 t-180 229.5t-56 431zM553 1612v110q0 72 70 72h77q72 0 72 -72v-110q0 -70 -72 -70h-77q-70 0 -70 70z" />
<glyph unicode="&#x10b;" horiz-adv-x="1019" d="M94 504q0 290 111.5 409t380.5 119q212 0 350 -57l-29 -156q-100 4 -278 4q-156 0 -215.5 -67t-59.5 -252q0 -187 59.5 -255.5t215.5 -68.5q155 0 301 21l22 -164q-150 -62 -368 -62q-269 0 -379.5 119t-110.5 410zM442 1243v111q0 71 72 71h76q72 0 72 -71v-111 q0 -69 -72 -69h-76q-72 0 -72 69z" />
<glyph unicode="&#x10c;" horiz-adv-x="1183" d="M109 707q0 205 30 342t99 225t177 126t269 38q138 0 225 -10t181 -35l-25 -195q-178 14 -381 14q-119 0 -183.5 -46.5t-93 -154t-28.5 -304.5q0 -148 14.5 -242.5t51 -155t93.5 -84.5t146 -24q261 0 412 20l22 -192q-95 -30 -192 -42t-242 -12q-215 0 -339 71.5 t-180 229.5t-56 431zM307 1786l76 102l272 -166h17l270 166l78 -102l-303 -268h-107z" />
<glyph unicode="&#x10d;" horiz-adv-x="1019" d="M94 504q0 290 111.5 409t380.5 119q212 0 350 -57l-29 -156q-100 4 -278 4q-156 0 -215.5 -67t-59.5 -252q0 -187 59.5 -255.5t215.5 -68.5q155 0 301 21l22 -164q-150 -62 -368 -62q-269 0 -379.5 119t-110.5 410zM197 1415l75 105l273 -168h16l270 168l80 -105 l-305 -268h-106z" />
<glyph unicode="&#x10e;" horiz-adv-x="1374" d="M158 0v1413q296 19 528 19q163 0 270 -35t177.5 -120.5t100.5 -222.5t30 -347t-30 -347t-100.5 -222.5t-177.5 -120.5t-270 -35q-247 0 -528 18zM301 1786l76 102l272 -166h17l270 166l80 -102l-305 -268h-107zM414 201q160 -4 272 -4q89 0 146.5 24.5t94 85t51.5 156 t15 244.5q0 198 -28.5 307t-94 157t-184.5 48q-55 0 -144.5 -1t-127.5 -1v-1016z" />
<glyph unicode="&#x10f;" horiz-adv-x="1193" d="M96 508q0 148 24 250t74 162t119.5 86t167.5 26q193 0 334 -88q-10 82 -10 201v289h250v-1434h-197l-20 137q-174 -162 -389 -162q-185 0 -269 135t-84 398zM352 510q0 -131 20.5 -202t59.5 -96.5t109 -25.5t121 22t143 83v497q-160 41 -250 41q-59 0 -94.5 -12 t-61.5 -46.5t-36.5 -97t-10.5 -163.5zM1145 1286v86q3 37 21.5 51.5t62.5 14.5h59q43 0 60 -14.5t16 -51.5v-98q0 -139 -80 -260l-100 24q22 87 22 191q-29 0 -45 15t-16 42z" />
<glyph unicode="&#x110;" horiz-adv-x="1382" d="M39 678v135h127v600q296 19 528 19q164 0 271 -35t177 -120.5t100 -222.5t30 -347t-30 -347t-100 -222.5t-177 -120.5t-271 -35q-247 0 -528 18v678h-127zM424 201q156 -4 270 -4q89 0 146.5 24.5t94 85t51.5 156t15 244.5q0 198 -28.5 307t-94 157t-184.5 48 q-54 0 -143.5 -1t-126.5 -1v-404h274v-135h-274v-477z" />
<glyph unicode="&#x111;" horiz-adv-x="1185" d="M96 508q0 148 24 250t74 162t119.5 86t167.5 26q193 0 334 -88q-10 82 -10 201v10h-287v131h287v148h250v-148h129v-131h-129v-1155h-197l-20 137q-174 -162 -389 -162q-185 0 -269 135t-84 398zM352 510q0 -131 20.5 -202t59.5 -96.5t109 -25.5t121 22t143 83v497 q-160 41 -250 41q-59 0 -94.5 -12t-61.5 -46.5t-36.5 -97t-10.5 -163.5z" />
<glyph unicode="&#x112;" d="M145 264v885q1 124 83.5 196t220.5 72q436 0 622 -16l-12 -197h-553q-56 0 -79.5 -26.5t-23.5 -92.5v-247h580v-197h-580v-315q0 -66 23.5 -92.5t79.5 -26.5h553l12 -195q-186 -16 -622 -16q-140 0 -221.5 72t-82.5 196zM342 1628v172h594v-172h-594z" />
<glyph unicode="&#x113;" horiz-adv-x="1122" d="M94 504q0 149 27.5 250t88.5 163t150 88.5t220 26.5q239 0 347.5 -87t108.5 -261q0 -287 -268 -287h-410q14 -131 73.5 -175t195.5 -44q144 0 360 25l23 -160q-73 -35 -188 -51.5t-226 -16.5q-273 0 -387.5 121.5t-114.5 407.5zM287 1225v172h596v-172h-596zM354 571h344 q90 0 90 117q0 81 -42.5 114.5t-155.5 33.5q-131 0 -181.5 -54.5t-54.5 -210.5z" />
<glyph unicode="&#x116;" d="M145 264v885q1 124 83.5 196t220.5 72q436 0 622 -16l-12 -197h-553q-56 0 -79.5 -26.5t-23.5 -92.5v-247h580v-197h-580v-315q0 -66 23.5 -92.5t79.5 -26.5h553l12 -195q-186 -16 -622 -16q-140 0 -221.5 72t-82.5 196zM528 1647v110q0 70 72 70h78q70 0 70 -70v-110 q0 -72 -70 -72h-78q-72 0 -72 72z" />
<glyph unicode="&#x117;" horiz-adv-x="1122" d="M94 504q0 149 27.5 250t88.5 163t150 88.5t220 26.5q239 0 347.5 -87t108.5 -261q0 -287 -268 -287h-410q14 -131 73.5 -175t195.5 -44q144 0 360 25l23 -160q-73 -35 -188 -51.5t-226 -16.5q-273 0 -387.5 121.5t-114.5 407.5zM354 571h344q90 0 90 117 q0 81 -42.5 114.5t-155.5 33.5q-131 0 -181.5 -54.5t-54.5 -210.5zM475 1243v111q0 71 70 71h78q71 0 71 -71v-111q0 -69 -71 -69h-78q-70 0 -70 69z" />
<glyph unicode="&#x118;" d="M145 264v885q1 124 83.5 196t220.5 72q436 0 622 -16l-12 -197h-553q-56 0 -79.5 -26.5t-23.5 -92.5v-247h580v-197h-580v-315q0 -66 23.5 -92.5t79.5 -26.5h553l12 -195q-95 -118 -135 -217q-28 -64 13.5 -85.5t127.5 5.5l27 -96q-142 -55 -224.5 -40.5t-111.5 71 t-2 131.5q41 112 184 223q-160 -8 -501 -8q-140 0 -221.5 72t-82.5 196z" />
<glyph unicode="&#x119;" horiz-adv-x="1122" d="M94 504q0 149 27.5 250t88.5 163t150 88.5t220 26.5q239 0 347.5 -87t108.5 -261q0 -287 -268 -287h-410q14 -131 73.5 -175t195.5 -44q144 0 360 25l23 -160q-101 -130 -136 -217q-28 -66 14.5 -87t129.5 7l24 -98q-141 -55 -223.5 -40t-111 71.5t-0.5 130.5 q30 92 135 186q-126 -21 -246 -21q-273 0 -387.5 121.5t-114.5 407.5zM354 571h344q90 0 90 117q0 81 -42.5 114.5t-155.5 33.5q-131 0 -181.5 -54.5t-54.5 -210.5z" />
<glyph unicode="&#x11a;" d="M145 264v885q1 124 83.5 196t220.5 72q436 0 622 -16l-12 -197h-553q-56 0 -79.5 -26.5t-23.5 -92.5v-247h580v-197h-580v-315q0 -66 23.5 -92.5t79.5 -26.5h553l12 -195q-186 -16 -622 -16q-140 0 -221.5 72t-82.5 196zM285 1819l75 102l271 -166h16l273 166l77 -102 l-303 -269h-108z" />
<glyph unicode="&#x11b;" horiz-adv-x="1122" d="M94 504q0 149 27.5 250t88.5 163t150 88.5t220 26.5q239 0 347.5 -87t108.5 -261q0 -287 -268 -287h-410q14 -131 73.5 -175t195.5 -44q144 0 360 25l23 -160q-73 -35 -188 -51.5t-226 -16.5q-273 0 -387.5 121.5t-114.5 407.5zM229 1415l76 105l273 -168h16l270 168 l78 -105l-303 -268h-107zM354 571h344q90 0 90 117q0 81 -42.5 114.5t-155.5 33.5q-131 0 -181.5 -54.5t-54.5 -210.5z" />
<glyph unicode="&#x11e;" horiz-adv-x="1300" d="M111 713q0 214 31.5 352t107 223t189 118.5t290.5 33.5q238 0 406 -47l-21 -191q-200 12 -373 12q-73 0 -120.5 -6t-92 -25.5t-69.5 -53.5t-45 -92t-27.5 -140.5t-7.5 -198.5q0 -284 55.5 -393.5t198.5 -109.5q138 0 297 98v522h250v-815h-191l-22 139 q-71 -67 -176.5 -116.5t-237.5 -49.5q-233 0 -337.5 177.5t-104.5 562.5zM354 1810l121 17q0 -65 51.5 -100t153.5 -35q99 0 151 35t50 100l123 -17q12 -126 -77 -209t-247 -83t-248 83t-78 209z" />
<glyph unicode="&#x11f;" d="M63 -94q0 79 36.5 128t121.5 93q-67 63 -56 162.5t83 146.5q-75 36 -108.5 102.5t-33.5 168.5q0 179 100.5 252t354.5 73q149 0 252 -28h317l-14 -121l-131 -15q27 -67 27 -159q0 -174 -100.5 -249t-352.5 -75q-110 0 -184 14q-14 -26 -15 -54.5t17.5 -52t56.5 -28.5 l367 -51q147 -20 211.5 -90t64.5 -203q0 -184 -109.5 -252.5t-396.5 -68.5q-197 0 -306 29.5t-155.5 95t-46.5 182.5zM240 1442l120 16q0 -137 205 -137q98 0 149.5 35.5t51.5 101.5l121 -16q12 -128 -77 -210.5t-245 -82.5q-159 0 -248 82.5t-77 210.5zM303 -68 q0 -87 49.5 -111t216.5 -24q165 0 217 24.5t52 108.5q0 26 -5.5 43t-14.5 28t-33 18t-47 10.5t-70 9.5l-287 35q-40 -37 -59 -68.5t-19 -73.5zM334 709q0 -84 49 -117t176 -33t175 33t48 117q0 85 -47.5 116t-175.5 31t-176.5 -31.5t-48.5 -115.5z" />
<glyph unicode="&#x120;" horiz-adv-x="1300" d="M111 713q0 214 31.5 352t107 223t189 118.5t290.5 33.5q238 0 406 -47l-21 -191q-200 12 -373 12q-73 0 -120.5 -6t-92 -25.5t-69.5 -53.5t-45 -92t-27.5 -140.5t-7.5 -198.5q0 -284 55.5 -393.5t198.5 -109.5q138 0 297 98v522h250v-815h-191l-22 139 q-71 -67 -176.5 -116.5t-237.5 -49.5q-233 0 -337.5 177.5t-104.5 562.5zM569 1612v110q0 35 19 53.5t53 18.5h78q72 0 72 -72v-110q0 -70 -72 -70h-78q-34 0 -53 18t-19 52z" />
<glyph unicode="&#x121;" d="M63 -94q0 79 36.5 128t121.5 93q-67 63 -56 162.5t83 146.5q-75 36 -108.5 102.5t-33.5 168.5q0 179 100.5 252t354.5 73q149 0 252 -28h317l-14 -121l-131 -15q27 -67 27 -159q0 -174 -100.5 -249t-352.5 -75q-110 0 -184 14q-14 -26 -15 -54.5t17.5 -52t56.5 -28.5 l367 -51q147 -20 211.5 -90t64.5 -203q0 -184 -109.5 -252.5t-396.5 -68.5q-197 0 -306 29.5t-155.5 95t-46.5 182.5zM303 -68q0 -87 49.5 -111t216.5 -24q165 0 217 24.5t52 108.5q0 26 -5.5 43t-14.5 28t-33 18t-47 10.5t-70 9.5l-287 35q-40 -37 -59 -68.5t-19 -73.5z M334 709q0 -84 49 -117t176 -33t175 33t48 117q0 85 -47.5 116t-175.5 31t-176.5 -31.5t-48.5 -115.5zM455 1243v111q0 71 71 71h78q70 0 70 -71v-111q0 -69 -70 -69h-78q-71 0 -71 69z" />
<glyph unicode="&#x122;" horiz-adv-x="1300" d="M111 713q0 214 31.5 352t107 223t189 118.5t290.5 33.5q238 0 406 -47l-21 -191q-200 12 -373 12q-73 0 -120.5 -6t-92 -25.5t-69.5 -53.5t-45 -92t-27.5 -140.5t-7.5 -198.5q0 -284 55.5 -393.5t198.5 -109.5q138 0 297 98v522h250v-815h-191l-22 139 q-71 -67 -176.5 -116.5t-237.5 -49.5q-233 0 -337.5 177.5t-104.5 562.5zM561 -186q3 41 22 57t62 16h62q44 0 60.5 -16t16.5 -57v-109q-3 -162 -82 -289l-102 27q25 109 25 211q-31 0 -47.5 17t-16.5 48v95z" />
<glyph unicode="&#x123;" d="M63 -94q0 79 36.5 128t121.5 93q-67 63 -56 162.5t83 146.5q-75 36 -108.5 102.5t-33.5 168.5q0 179 100.5 252t354.5 73q149 0 252 -28h317l-14 -121l-131 -15q27 -67 27 -159q0 -174 -100.5 -249t-352.5 -75q-110 0 -184 14q-14 -26 -15 -54.5t17.5 -52t56.5 -28.5 l367 -51q147 -20 211.5 -90t64.5 -203q0 -184 -109.5 -252.5t-396.5 -68.5q-197 0 -306 29.5t-155.5 95t-46.5 182.5zM303 -68q0 -87 49.5 -111t216.5 -24q165 0 217 24.5t52 108.5q0 26 -5.5 43t-14.5 28t-33 18t-47 10.5t-70 9.5l-287 35q-40 -37 -59 -68.5t-19 -73.5z M334 709q0 -84 49 -117t176 -33t175 33t48 117q0 85 -47.5 116t-175.5 31t-176.5 -31.5t-48.5 -115.5zM483 1206v109q3 156 82 289l103 -27q-25 -109 -25 -211q31 0 47.5 -17t16.5 -46v-97q-3 -40 -21.5 -55.5t-62.5 -15.5h-60q-45 0 -62.5 15.5t-17.5 55.5z" />
<glyph unicode="&#x126;" horiz-adv-x="1402" d="M33 1057v127h133v229h256v-229h559v229h256v-229h131v-127h-131v-1057h-256v647h-559v-647h-256v1057h-133zM422 858h559v199h-559v-199z" />
<glyph unicode="&#x127;" horiz-adv-x="1216" d="M4 1155v131h143v148h250v-148h273v-131h-271v-90q0 -89 -16 -203q223 170 424 170q134 0 205 -71.5t71 -206.5v-754h-249v678q0 84 -23.5 113.5t-85.5 29.5q-69 0 -143 -29t-185 -94v-698h-250v1155h-143z" />
<glyph unicode="&#x12a;" horiz-adv-x="571" d="M-10 1593v172h596v-172h-596zM158 0v1413h256v-1413h-256z" />
<glyph unicode="&#x12b;" horiz-adv-x="544" d="M-23 1225v172h594v-172h-594zM147 0v1004h250v-1004h-250z" />
<glyph unicode="&#x12e;" horiz-adv-x="571" d="M80 -233q34 116 194 233h-116v1413h256v-1413h-31q-99 -128 -135 -217q-28 -66 13.5 -87t127.5 7l27 -98q-142 -55 -224.5 -40t-111 71.5t-0.5 130.5z" />
<glyph unicode="&#x12f;" horiz-adv-x="544" d="M72 -233q41 121 194 233h-119v1004h250v-1004h-22q-99 -128 -135 -217q-28 -66 13.5 -87t127.5 7l27 -98q-141 -55 -223.5 -40t-111.5 71.5t-1 130.5zM164 1243v111q0 71 72 71h77q72 0 72 -71v-111q0 -69 -72 -69h-77q-72 0 -72 69z" />
<glyph unicode="&#x130;" horiz-adv-x="571" d="M158 0v1413h256v-1413h-256zM178 1612v110q0 72 70 72h78q71 0 71 -72v-110q0 -70 -71 -70h-78q-70 0 -70 70z" />
<glyph unicode="&#x131;" horiz-adv-x="544" d="M147 0v1004h250v-1004h-250z" />
<glyph unicode="&#x132;" horiz-adv-x="1296" d="M158 0v1413h256v-1413h-256zM623 12l28 178h97q141 0 141 127v1096h256v-1102q0 -160 -77.5 -247t-217.5 -87q-50 0 -120 10.5t-107 24.5z" />
<glyph unicode="&#x133;" horiz-adv-x="1089" d="M141 1255v113q0 34 18.5 53t53.5 19h115q71 0 71 -72v-113q0 -71 -71 -71h-115q-72 0 -72 71zM147 0v1004h248v-1004h-248zM573 -301q63 75 91 149.5t28 169.5v986h248v-986q0 -132 -61 -247t-166 -181zM688 1260v110q0 72 72 72h114q35 0 53.5 -19t18.5 -53v-110 q0 -72 -72 -72h-114q-72 0 -72 72z" />
<glyph unicode="&#x136;" horiz-adv-x="1253" d="M158 0v1413h256v-416q0 -83 -15 -163h140l387 579h278l-381 -569q-36 -57 -94 -107v-6q72 -60 111 -121l391 -610h-287l-405 637h-140q15 -71 15 -139v-498h-256zM547 -186q3 41 21.5 57t62.5 16h59q46 0 63 -16t17 -57v-109q-3 -156 -82 -289l-102 27q24 105 24 211 q-63 0 -63 65v95z" />
<glyph unicode="&#x137;" horiz-adv-x="1093" d="M139 0v1434h252v-611q0 -96 -14 -176h108l275 357h282l-280 -357q-16 -25 -40.5 -49t-43.5 -35v-4q39 -24 84 -96l313 -463h-282l-306 479h-110q12 -106 12 -153v-326h-250zM471 -184q3 41 22 57t62 16h61q44 0 61 -16t17 -57v-109q-3 -158 -82 -289l-102 27 q25 112 25 213q-64 0 -64 63v95z" />
<glyph unicode="&#x139;" horiz-adv-x="1067" d="M133 1593l385 303l127 -184l-434 -229zM154 289v1124h256v-1083q0 -65 26.5 -91t93.5 -26h492l10 -199q-200 -18 -561 -18q-317 0 -317 293z" />
<glyph unicode="&#x13a;" horiz-adv-x="643" d="M117 1632l385 301l129 -182l-436 -229zM141 252v1182h250v-1121q-3 -116 119 -116h86l29 -185q-31 -16 -97 -25.5t-116 -9.5q-126 0 -198.5 72t-72.5 203z" />
<glyph unicode="&#x13b;" horiz-adv-x="1067" d="M154 289v1124h256v-1083q0 -65 26.5 -91t93.5 -26h492l10 -199q-200 -18 -561 -18q-317 0 -317 293zM489 -186q3 41 21.5 57t62.5 16h60q46 0 63 -16t17 -57v-109q-3 -156 -82 -289l-103 27q25 109 25 211q-31 0 -47.5 17t-16.5 48v95z" />
<glyph unicode="&#x13c;" horiz-adv-x="643" d="M141 252v1182h250v-1121q-3 -116 119 -116h86l29 -185q-31 -16 -97 -25.5t-116 -9.5q-126 0 -198.5 72t-72.5 203zM250 -186q3 41 22 57t62 16h59q46 0 63 -16t17 -57v-109q-3 -156 -82 -289l-102 27q24 105 24 211q-63 0 -63 65v95z" />
<glyph unicode="&#x13d;" horiz-adv-x="1067" d="M154 289v1124h256v-1083q0 -65 26.5 -91t93.5 -26h492l10 -199q-200 -18 -561 -18q-317 0 -317 293zM612 1247v94q3 41 22 57.5t62 16.5h62q44 0 61 -16.5t17 -57.5v-108q0 -155 -82 -287l-103 25q25 113 25 213q-30 0 -47 17t-17 46z" />
<glyph unicode="&#x13e;" horiz-adv-x="643" d="M141 252v1182h250v-1121q-3 -116 119 -116h86l29 -185q-31 -16 -97 -25.5t-116 -9.5q-126 0 -198.5 72t-72.5 203zM481 1286v86q3 37 21 51.5t61 14.5h60q44 0 60.5 -14.5t18.5 -51.5v-98q-3 -142 -81 -260l-101 24q23 91 23 191q-29 0 -45.5 15.5t-16.5 41.5z" />
<glyph unicode="&#x13f;" horiz-adv-x="1067" d="M154 289v1124h256v-1083q0 -65 26.5 -91t93.5 -26h492l10 -199q-200 -18 -561 -18q-317 0 -317 293zM713 770v111q0 69 71 69h78q72 0 72 -69v-111q0 -72 -72 -72h-78q-71 0 -71 72z" />
<glyph unicode="&#x140;" horiz-adv-x="718" d="M141 252v1182h250v-1121q-3 -116 119 -116h86l29 -185q-31 -16 -97 -25.5t-116 -9.5q-126 0 -198.5 72t-72.5 203zM512 743v111q0 70 72 70h78q69 0 69 -70v-111q0 -71 -69 -71h-78q-72 0 -72 71z" />
<glyph unicode="&#x141;" horiz-adv-x="1081" d="M35 604v148l131 53v608h256v-504l225 92v-147l-225 -92v-432q0 -65 27 -91t94 -26h491l10 -199q-200 -18 -559 -18q-319 0 -319 293v368z" />
<glyph unicode="&#x142;" horiz-adv-x="704" d="M31 590v147l155 64v633h248v-531l209 84v-149l-209 -84v-441q0 -116 121 -116h86l29 -185q-31 -16 -97 -25.5t-116 -9.5q-126 0 -198.5 72t-72.5 203v401z" />
<glyph unicode="&#x143;" horiz-adv-x="1464" d="M158 0v1319q0 46 25 70t71 24h199q40 0 63 -18t43 -60l385 -841q85 -191 98 -224h25q-10 130 -10 230v913h250v-1319q0 -46 -24.5 -70t-70.5 -24h-202q-40 0 -64.5 18.5t-42.5 59.5l-397 866q-71 150 -84 211h-25q13 -94 13 -213v-942h-252zM590 1593l385 303l127 -184 l-434 -229z" />
<glyph unicode="&#x144;" horiz-adv-x="1208" d="M139 0v1004h209l17 -148q231 176 434 176q134 0 205 -71.5t71 -206.5v-754h-250v678q0 84 -22.5 113.5t-83.5 29.5q-70 0 -143 -29t-187 -94v-698h-250zM463 1225l385 301l127 -183l-434 -229z" />
<glyph unicode="&#x145;" horiz-adv-x="1464" d="M158 0v1319q0 46 25 70t71 24h199q40 0 63 -18t43 -60l385 -841q85 -191 98 -224h25q-10 130 -10 230v913h250v-1319q0 -46 -24.5 -70t-70.5 -24h-202q-40 0 -64.5 18.5t-42.5 59.5l-397 866q-71 150 -84 211h-25q13 -94 13 -213v-942h-252zM600 -186q3 41 21.5 57 t62.5 16h59q45 0 62.5 -16t17.5 -57v-109q-3 -158 -84 -289l-100 27q23 101 23 211q-29 0 -45.5 17t-16.5 48v95z" />
<glyph unicode="&#x146;" horiz-adv-x="1208" d="M139 0v1004h209l17 -148q231 176 434 176q134 0 205 -71.5t71 -206.5v-754h-250v678q0 84 -22.5 113.5t-83.5 29.5q-70 0 -143 -29t-187 -94v-698h-250zM485 -184q3 41 22 57t62 16h60q46 0 63 -16t17 -57v-109q-3 -153 -82 -289l-103 27q25 112 25 213q-64 0 -64 63v95z " />
<glyph unicode="&#x147;" horiz-adv-x="1464" d="M158 0v1319q0 46 25 70t71 24h199q40 0 63 -18t43 -60l385 -841q85 -191 98 -224h25q-10 130 -10 230v913h250v-1319q0 -46 -24.5 -70t-70.5 -24h-202q-40 0 -64.5 18.5t-42.5 59.5l-397 866q-71 150 -84 211h-25q13 -94 13 -213v-942h-252zM391 1786l76 102l272 -166h17 l270 166l78 -102l-303 -268h-109z" />
<glyph unicode="&#x148;" horiz-adv-x="1208" d="M139 0v1004h209l17 -148q231 176 434 176q134 0 205 -71.5t71 -206.5v-754h-250v678q0 84 -22.5 113.5t-83.5 29.5q-70 0 -143 -29t-187 -94v-698h-250zM264 1415l76 105l272 -168h17l270 168l78 -105l-303 -268h-109z" />
<glyph unicode="&#x14a;" horiz-adv-x="1464" d="M158 0v1319q0 94 96 94h160q41 0 63.5 -18t44.5 -60l420 -807q35 -66 98 -221h25q-10 123 -10 223v883h252v-1548q0 -142 -78.5 -222.5t-208.5 -78.5q-49 0 -111 9.5t-102 25.5l27 161h92q145 0 145 125v117h-65q-14 0 -27 11.5t-20 23t-19 33.5l-436 839q-33 65 -86 209 h-21q13 -91 13 -211v-907h-252z" />
<glyph unicode="&#x14b;" horiz-adv-x="1208" d="M139 0v1004h195l20 -156q228 184 443 184q137 0 207.5 -71t70.5 -207v-867q0 -145 -70.5 -223.5t-201.5 -77.5q-135 0 -215 35l28 158h82q127 0 127 129v770q0 73 -23.5 101t-88.5 28q-117 0 -324 -111v-696h-250z" />
<glyph unicode="&#x14c;" horiz-adv-x="1382" d="M109 707q0 213 29.5 351.5t100.5 225t178.5 121.5t272.5 35q133 0 227 -23t164.5 -73.5t112 -137t61 -207.5t19.5 -292t-19.5 -292.5t-61 -208t-112 -137t-164.5 -73.5t-227 -23q-110 0 -192.5 15t-149 50.5t-110.5 91t-73.5 138t-42.5 190t-13 249.5zM379 707 q0 -200 28.5 -309.5t95 -157t187.5 -47.5q122 0 189 47.5t96 157t29 309.5t-29 309.5t-96 157t-189 47.5q-121 0 -187.5 -47.5t-95 -157t-28.5 -309.5zM391 1593v172h596v-172h-596z" />
<glyph unicode="&#x14d;" horiz-adv-x="1179" d="M94 502q0 289 113.5 409.5t384.5 120.5q270 0 381.5 -120.5t111.5 -409.5t-111.5 -409t-381.5 -120q-272 0 -385 120t-113 409zM293 1225v172h596v-172h-596zM354 502q0 -193 50 -261.5t188 -68.5q136 0 185.5 69t49.5 261q0 194 -49.5 263t-185.5 69q-94 0 -144.5 -29.5 t-72 -99.5t-21.5 -203z" />
<glyph unicode="&#x150;" horiz-adv-x="1382" d="M109 707q0 213 29.5 351.5t100.5 225t178.5 121.5t272.5 35q133 0 227 -23t164.5 -73.5t112 -137t61 -207.5t19.5 -292t-19.5 -292.5t-61 -208t-112 -137t-164.5 -73.5t-227 -23q-110 0 -192.5 15t-149 50.5t-110.5 91t-73.5 138t-42.5 190t-13 249.5zM377 1548l229 373 l172 -119l-297 -334zM379 707q0 -200 28.5 -309.5t95 -157t187.5 -47.5q122 0 189 47.5t96 157t29 309.5t-29 309.5t-96 157t-189 47.5q-121 0 -187.5 -47.5t-95 -157t-28.5 -309.5zM745 1548l226 373l172 -119l-297 -334z" />
<glyph unicode="&#x151;" horiz-adv-x="1179" d="M94 502q0 289 113.5 409.5t384.5 120.5q270 0 381.5 -120.5t111.5 -409.5t-111.5 -409t-381.5 -120q-272 0 -385 120t-113 409zM279 1180l227 370l172 -116l-295 -336zM354 502q0 -193 50 -261.5t188 -68.5q136 0 185.5 69t49.5 261q0 194 -49.5 263t-185.5 69 q-94 0 -144.5 -29.5t-72 -99.5t-21.5 -203zM645 1178l227 372l172 -116l-296 -336z" />
<glyph unicode="&#x152;" horiz-adv-x="1904" d="M109 707q0 213 29.5 351.5t100.5 225t178.5 121.5t272.5 35q110 0 186.5 -14t165.5 -48q67 39 150 39q434 0 620 -16l-12 -197h-514q-66 0 -92.5 -26.5t-26.5 -92.5v-245h557v-199h-557v-315q0 -66 26.5 -92.5t92.5 -26.5h514l12 -195q-193 -16 -638 -16q-84 0 -148 45 q-77 -37 -152.5 -52.5t-183.5 -15.5q-110 0 -192.5 15t-149 50.5t-110.5 91t-73.5 138t-42.5 190t-13 249.5zM379 707q0 -200 28.5 -309.5t95 -157t187.5 -47.5q136 0 225 24q-6 35 -6 72v835q0 38 9 72q-109 25 -228 25q-122 0 -187.5 -46.5t-94.5 -156t-29 -311.5z" />
<glyph unicode="&#x153;" horiz-adv-x="1849" d="M94 502q0 289 113 409.5t383 120.5q250 0 360 -102q106 100 344 100q469 0 469 -323q0 -170 -73.5 -234.5t-253.5 -64.5h-351q7 -72 24.5 -117t52 -70t79.5 -34t117 -9q140 0 356 25l23 -160q-75 -35 -189.5 -51.5t-224.5 -16.5q-255 0 -367 103q-117 -105 -366 -105 q-270 0 -383 120t-113 409zM354 502q0 -193 49.5 -261.5t186.5 -68.5q128 0 178.5 58.5t56.5 218.5l-2 59q0 9 1 27t1 26q-6 157 -57 215t-178 58q-137 0 -186.5 -69t-49.5 -263zM1081 573h326q65 0 89.5 30t21.5 108q-6 64 -56.5 93.5t-161.5 29.5q-120 0 -167.5 -55 t-51.5 -206z" />
<glyph unicode="&#x154;" horiz-adv-x="1288" d="M158 0v1413q192 19 514 19q135 0 224.5 -19.5t151 -67t88.5 -127t27 -200.5q0 -164 -61 -251t-203 -105v-11q61 -14 114 -65t74 -144l127 -442h-272l-113 438q-22 68 -60 97.5t-103 29.5l-254 2v-567h-254zM412 776h254q136 2 186.5 49t50.5 176t-50 174.5t-187 45.5 h-254v-445zM475 1593l385 303l127 -184l-434 -229z" />
<glyph unicode="&#x155;" horiz-adv-x="845" d="M139 0v1004h195l22 -148q213 176 414 176h49l-26 -233h-72q-67 0 -139 -21t-193 -69v-709h-250zM322 1225l383 301l129 -183l-437 -229z" />
<glyph unicode="&#x156;" horiz-adv-x="1288" d="M158 0v1413q192 19 514 19q135 0 224.5 -19.5t151 -67t88.5 -127t27 -200.5q0 -164 -61 -251t-203 -105v-11q61 -14 114 -65t74 -144l127 -442h-272l-113 438q-22 68 -60 97.5t-103 29.5l-254 2v-567h-254zM412 776h254q136 2 186.5 49t50.5 176t-50 174.5t-187 45.5 h-254v-445zM565 -186q1 41 20 57t62 16h62q44 0 60.5 -15.5t18.5 -57.5v-109q-3 -160 -83 -289l-103 27q25 97 25 211q-31 0 -47 17t-15 48v95z" />
<glyph unicode="&#x157;" horiz-adv-x="845" d="M133 -184q1 41 20 57t62 16h61q44 0 61 -16t19 -57v-109q-3 -155 -84 -289l-102 27q25 100 25 213q-65 0 -62 63v95zM139 0v1004h195l22 -148q213 176 414 176h49l-26 -233h-72q-67 0 -139 -21t-193 -69v-709h-250z" />
<glyph unicode="&#x158;" horiz-adv-x="1288" d="M158 0v1413q192 19 514 19q135 0 224.5 -19.5t151 -67t88.5 -127t27 -200.5q0 -164 -61 -251t-203 -105v-11q61 -14 114 -65t74 -144l127 -442h-272l-113 438q-22 68 -60 97.5t-103 29.5l-254 2v-567h-254zM276 1786l76 102l273 -166h16l270 166l78 -102l-303 -268h-108z M412 776h254q136 2 186.5 49t50.5 176t-50 174.5t-187 45.5h-254v-445z" />
<glyph unicode="&#x159;" horiz-adv-x="845" d="M121 1415l76 105l272 -168h16l271 168l80 -105l-304 -268h-108zM139 0v1004h195l22 -148q213 176 414 176h49l-26 -233h-72q-67 0 -139 -21t-193 -69v-709h-250z" />
<glyph unicode="&#x15a;" horiz-adv-x="1167" d="M98 1059q0 97 19 164t54 109.5t97 65.5t134.5 31.5t181.5 8.5q261 0 444 -47l-16 -183q-263 9 -420 9q-59 0 -91.5 -2.5t-65 -11t-47 -26t-23.5 -47t-9 -75.5q0 -89 34 -125t124 -64l272 -84q161 -52 226 -150t65 -261q0 -81 -11.5 -141t-38.5 -104.5t-65 -73.5 t-96.5 -46t-127.5 -24t-163 -7q-233 0 -458 45l16 189q357 -8 449 -8q141 0 188 32.5t47 139.5q0 48 -8 78.5t-29 51t-44.5 31.5t-67.5 25l-285 90q-153 50 -219 148.5t-66 261.5zM424 1593l385 303l127 -184l-434 -229z" />
<glyph unicode="&#x15b;" horiz-adv-x="1058" d="M88 748q0 162 92 223t318 61q238 -3 444 -37l-18 -172q-254 8 -383 8q-136 0 -174.5 -13t-38.5 -73q0 -15 2.5 -26.5t5 -20t11.5 -16t14 -11.5t20 -9.5t22.5 -7.5t29 -8t32.5 -9l270 -74q130 -37 185 -99t55 -190q0 -74 -17.5 -125.5t-50 -85t-89 -52.5t-125 -26.5 t-167.5 -7.5q-226 0 -420 33l17 174q107 -8 342 -8q162 0 216 18.5t54 77.5q0 13 -1.5 23t-6.5 18.5t-9 14.5t-14 12t-15.5 9.5t-21 8.5t-23 7t-27.5 7.5t-29 8.5l-264 72q-131 38 -183.5 105.5t-52.5 189.5zM383 1225l385 301l127 -183l-434 -229z" />
<glyph unicode="&#x15e;" horiz-adv-x="1167" d="M98 1059q0 97 19 164t54 109.5t97 65.5t134.5 31.5t181.5 8.5q261 0 444 -47l-16 -183q-263 9 -420 9q-59 0 -91.5 -2.5t-65 -11t-47 -26t-23.5 -47t-9 -75.5q0 -89 34 -125t124 -64l272 -84q161 -52 226 -150t65 -261q0 -81 -11.5 -141t-38.5 -104.5t-65 -73.5 t-96.5 -46t-127.5 -24t-163 -7q-233 0 -458 45l16 189q357 -8 449 -8q141 0 188 32.5t47 139.5q0 48 -8 78.5t-29 51t-44.5 31.5t-67.5 25l-285 90q-153 50 -219 148.5t-66 261.5zM373 -512l35 121q75 0 123.5 33t52.5 92q1 28 -23 36.5t-102 8.5l24 108q150 16 211 -9.5 t58 -123.5q-4 -142 -111.5 -214.5t-267.5 -51.5z" />
<glyph unicode="&#x15f;" horiz-adv-x="1058" d="M88 748q0 162 92 223t318 61q238 -3 444 -37l-18 -172q-254 8 -383 8q-136 0 -174.5 -13t-38.5 -73q0 -15 2.5 -26.5t5 -20t11.5 -16t14 -11.5t20 -9.5t22.5 -7.5t29 -8t32.5 -9l270 -74q130 -37 185 -99t55 -190q0 -74 -17.5 -125.5t-50 -85t-89 -52.5t-125 -26.5 t-167.5 -7.5q-226 0 -420 33l17 174q107 -8 342 -8q162 0 216 18.5t54 77.5q0 13 -1.5 23t-6.5 18.5t-9 14.5t-14 12t-15.5 9.5t-21 8.5t-23 7t-27.5 7.5t-29 8.5l-264 72q-131 38 -183.5 105.5t-52.5 189.5zM299 -504l35 121q75 -2 123.5 31t52.5 92q1 29 -22.5 37 t-102.5 8l25 109q150 16 210.5 -10t57.5 -124q-4 -142 -111.5 -214t-267.5 -50z" />
<glyph unicode="&#x160;" horiz-adv-x="1167" d="M98 1059q0 97 19 164t54 109.5t97 65.5t134.5 31.5t181.5 8.5q261 0 444 -47l-16 -183q-263 9 -420 9q-59 0 -91.5 -2.5t-65 -11t-47 -26t-23.5 -47t-9 -75.5q0 -89 34 -125t124 -64l272 -84q161 -52 226 -150t65 -261q0 -81 -11.5 -141t-38.5 -104.5t-65 -73.5 t-96.5 -46t-127.5 -24t-163 -7q-233 0 -458 45l16 189q357 -8 449 -8q141 0 188 32.5t47 139.5q0 48 -8 78.5t-29 51t-44.5 31.5t-67.5 25l-285 90q-153 50 -219 148.5t-66 261.5zM225 1786l76 102l272 -166h17l270 166l78 -102l-303 -268h-109z" />
<glyph unicode="&#x161;" horiz-adv-x="1058" d="M88 748q0 162 92 223t318 61q238 -3 444 -37l-18 -172q-254 8 -383 8q-136 0 -174.5 -13t-38.5 -73q0 -15 2.5 -26.5t5 -20t11.5 -16t14 -11.5t20 -9.5t22.5 -7.5t29 -8t32.5 -9l270 -74q130 -37 185 -99t55 -190q0 -74 -17.5 -125.5t-50 -85t-89 -52.5t-125 -26.5 t-167.5 -7.5q-226 0 -420 33l17 174q107 -8 342 -8q162 0 216 18.5t54 77.5q0 13 -1.5 23t-6.5 18.5t-9 14.5t-14 12t-15.5 9.5t-21 8.5t-23 7t-27.5 7.5t-29 8.5l-264 72q-131 38 -183.5 105.5t-52.5 189.5zM184 1415l76 105l272 -168h17l270 168l78 -105l-303 -268h-109z " />
<glyph unicode="&#x162;" horiz-adv-x="1212" d="M43 1194v219h1126v-219h-436v-1194h-258v1194h-432zM381 -485l35 120q75 -2 123.5 31t52.5 92q1 29 -22.5 37t-102.5 8l25 109q150 16 210.5 -9.5t57.5 -123.5q-4 -142 -111.5 -214t-267.5 -50z" />
<glyph unicode="&#x163;" horiz-adv-x="819" d="M45 823v170l180 11v288h248v-288h295v-181h-295v-510q0 -66 26.5 -91t94.5 -25h137l27 -185q-48 -16 -126.5 -25.5t-131.5 -9.5q-132 0 -202.5 76.5t-70.5 216.5v553h-182zM240 -504l36 121q75 -2 123.5 31.5t51.5 93.5q3 28 -21 36.5t-102 8.5l24 109q150 16 211 -10 t58 -124q-4 -142 -112 -214.5t-269 -51.5z" />
<glyph unicode="&#x164;" horiz-adv-x="1212" d="M43 1194v219h1126v-219h-436v-1194h-258v1194h-432zM250 1786l76 102l272 -166h16l271 166l80 -102l-306 -268h-106z" />
<glyph unicode="&#x165;" horiz-adv-x="819" d="M45 823v170l180 11v288h248v-288h295v-181h-295v-510q0 -66 26.5 -91t94.5 -25h137l27 -185q-48 -16 -126.5 -25.5t-131.5 -9.5q-132 0 -202.5 76.5t-70.5 216.5v553h-182zM567 1438v94q3 41 22 57.5t62 16.5h62q44 0 61 -16.5t17 -57.5v-109q-3 -160 -82 -288l-103 26 q25 109 25 211q-31 0 -47.5 17.5t-16.5 48.5z" />
<glyph unicode="&#x166;" horiz-adv-x="1212" d="M45 1194v219h1124v-219h-434v-340h273v-133h-273v-721h-258v721h-274v133h274v340h-432z" />
<glyph unicode="&#x167;" horiz-adv-x="819" d="M45 823v170l180 11v288h248v-288h295v-181h-295v-168h238v-129h-238v-213q0 -66 26.5 -91t94.5 -25h137l27 -185q-48 -16 -126.5 -25.5t-131.5 -9.5q-132 0 -202.5 76.5t-70.5 216.5v256h-127v129h127v168h-182z" />
<glyph unicode="&#x16a;" horiz-adv-x="1374" d="M147 553v860h256v-860q0 -203 62.5 -281.5t222.5 -78.5q157 0 219 78.5t62 281.5v860h258v-860q0 -317 -119.5 -448.5t-409.5 -131.5q-302 0 -426.5 131.5t-124.5 448.5zM391 1593v172h596v-172h-596z" />
<glyph unicode="&#x16b;" horiz-adv-x="1185" d="M133 252v752h250v-678q-2 -80 25.5 -111t97.5 -31q61 0 127 26.5t166 84.5v709h248v-1004h-197l-19 135q-213 -162 -419 -162q-137 0 -208 70.5t-71 208.5zM301 1237v172h596v-172h-596z" />
<glyph unicode="&#x16e;" horiz-adv-x="1374" d="M147 553v860h256v-860q0 -203 62.5 -281.5t222.5 -78.5q157 0 219 78.5t62 281.5v860h258v-860q0 -317 -119.5 -448.5t-409.5 -131.5q-302 0 -426.5 131.5t-124.5 448.5zM457 1686q0 96 68 161.5t165 65.5q95 0 163.5 -65.5t68.5 -161.5t-68 -161t-164 -65q-97 0 -165 65 t-68 161zM582 1686q0 -50 30.5 -79.5t77.5 -29.5q46 0 76.5 29.5t30.5 79.5q0 51 -30.5 81.5t-76.5 30.5q-47 0 -77.5 -30.5t-30.5 -81.5z" />
<glyph unicode="&#x16f;" horiz-adv-x="1185" d="M133 252v752h250v-678q-2 -80 25.5 -111t97.5 -31q61 0 127 26.5t166 84.5v709h248v-1004h-197l-19 135q-213 -162 -419 -162q-137 0 -208 70.5t-71 208.5zM367 1329q0 96 68 161.5t165 65.5q95 0 163 -65.5t68 -161.5t-67.5 -160.5t-163.5 -64.5q-98 0 -165.5 64.5 t-67.5 160.5zM492 1329q0 -51 30.5 -80.5t77.5 -29.5q46 0 76.5 29.5t30.5 80.5q0 50 -31 80.5t-76 30.5q-47 0 -77.5 -30.5t-30.5 -80.5z" />
<glyph unicode="&#x170;" horiz-adv-x="1374" d="M147 553v860h256v-860q0 -203 62.5 -281.5t222.5 -78.5q157 0 219 78.5t62 281.5v860h258v-860q0 -317 -119.5 -448.5t-409.5 -131.5q-302 0 -426.5 131.5t-124.5 448.5zM377 1548l229 373l172 -119l-297 -334zM745 1548l226 373l172 -119l-297 -334z" />
<glyph unicode="&#x171;" horiz-adv-x="1185" d="M133 252v752h250v-678q-2 -80 25.5 -111t97.5 -31q61 0 127 26.5t166 84.5v709h248v-1004h-197l-19 135q-213 -162 -419 -162q-137 0 -208 70.5t-71 208.5zM287 1190l229 373l172 -117l-297 -336zM655 1190l226 373l172 -117l-297 -336z" />
<glyph unicode="&#x172;" horiz-adv-x="1374" d="M147 553v860h256v-860q0 -203 62.5 -281.5t222.5 -78.5q157 0 219 78.5t62 281.5v860h258v-860q0 -298 -105 -431.5t-354 -146.5q-91 -118 -131 -211q-28 -66 14 -86.5t129 7.5l25 -99q-141 -55 -223.5 -40t-111.5 71.5t-1 130.5q34 112 184 225q-276 9 -391 142 t-115 438z" />
<glyph unicode="&#x173;" horiz-adv-x="1185" d="M133 252v752h250v-678q-2 -80 25.5 -111t97.5 -31q61 0 127 26.5t166 84.5v709h248v-1004h6q-95 -118 -135 -217q-28 -66 13.5 -87t127.5 7l26 -98q-142 -55 -224.5 -40t-111 71t-1.5 131q40 119 196 233h-94l-19 135q-213 -162 -419 -162q-137 0 -208 70.5t-71 208.5z " />
<glyph unicode="&#x174;" horiz-adv-x="1968" d="M59 1413h267l168 -1030q12 -69 22 -193h43q15 100 33 193l174 948q6 37 31 59.5t63 22.5h250q35 0 60.5 -22.5t31.5 -59.5l174 -950q21 -111 29 -191h45q4 29 11.5 93.5t11.5 95.5l169 1034h267l-244 -1341q-8 -32 -33.5 -52t-60.5 -20h-268q-36 0 -62.5 20.5t-32.5 53.5 l-178 985q-9 51 -26 166h-41q-15 -100 -27 -166l-176 -985q-6 -33 -33 -53.5t-63 -20.5h-267q-35 0 -61.5 20t-32.5 52zM627 1583l268 268h180l271 -272l-80 -100l-273 196h-16l-275 -196z" />
<glyph unicode="&#x175;" horiz-adv-x="1708" d="M39 1004h254l166 -691q21 -93 26 -159h27q3 13 14.5 70.5t16.5 88.5l123 617q6 34 29.5 54t58.5 20h202q35 0 60 -20.5t31 -55.5l118 -615q5 -30 16 -84.5t15 -74.5h27q18 124 26 159l166 691h254l-264 -936q-7 -32 -31 -50t-57 -18h-211q-35 0 -60.5 21.5t-31.5 56.5 l-121 616q-4 20 -12 76.5t-15 87.5h-24l-29 -164l-117 -616q-6 -35 -32 -56.5t-62 -21.5h-207q-34 0 -59 18t-31 50zM498 1214l268 269h180l271 -271l-80 -100l-273 197h-16l-275 -197z" />
<glyph unicode="&#x176;" horiz-adv-x="1206" d="M10 1413h271l258 -549q16 -33 57 -170h16q39 131 58 170l258 549h266l-463 -936v-477h-256v481zM244 1583l268 270h180l269 -272l-78 -100l-273 196h-16l-275 -196z" />
<glyph unicode="&#x177;" horiz-adv-x="1118" d="M25 1004h264l219 -691q22 -70 33 -133h28q7 23 41 133l215 691h267l-373 -1035q-21 -60 -49 -113.5t-72.5 -107t-97.5 -90t-127.5 -58t-159.5 -16.5l-20 158q119 33 187.5 89t106.5 146l11 23h-49q-31 0 -54 16t-30 45zM205 1214l270 269h178l271 -271l-80 -100l-273 197 h-16l-274 -197z" />
<glyph unicode="&#x178;" horiz-adv-x="1206" d="M10 1413h271l258 -549q16 -33 57 -170h16q39 131 58 170l258 549h266l-463 -936v-477h-256v481zM315 1624v113q0 63 62 63h82q61 0 61 -63v-113q0 -61 -61 -61h-82q-62 0 -62 61zM682 1624v113q0 63 61 63h82q62 0 62 -63v-113q0 -61 -62 -61h-82q-61 0 -61 61z" />
<glyph unicode="&#x179;" horiz-adv-x="1175" d="M92 0v209l696 995h-684v209h967v-209l-696 -995h710v-209h-993zM440 1593l385 303l127 -184l-434 -229z" />
<glyph unicode="&#x17a;" horiz-adv-x="1060" d="M92 0v190l590 623h-582v191h861v-191l-590 -623h598v-190h-877zM377 1225l385 301l129 -183l-436 -229z" />
<glyph unicode="&#x17b;" horiz-adv-x="1175" d="M92 0v209l696 995h-684v209h967v-209l-696 -995h710v-209h-993zM485 1612v110q0 72 72 72h78q34 0 53 -18.5t19 -53.5v-110q0 -34 -19 -52t-53 -18h-78q-72 0 -72 70z" />
<glyph unicode="&#x17c;" horiz-adv-x="1060" d="M92 0v190l590 623h-582v191h861v-191l-590 -623h598v-190h-877zM424 1243v111q0 71 72 71h75q72 0 72 -71v-111q0 -69 -72 -69h-75q-72 0 -72 69z" />
<glyph unicode="&#x17d;" horiz-adv-x="1175" d="M92 0v209l696 995h-684v209h967v-209l-696 -995h710v-209h-993zM242 1786l75 102l273 -166h16l271 166l77 -102l-303 -268h-108z" />
<glyph unicode="&#x17e;" horiz-adv-x="1060" d="M92 0v190l590 623h-582v191h861v-191l-590 -623h598v-190h-877zM178 1415l76 105l272 -168h17l270 168l80 -105l-305 -268h-107z" />
<glyph unicode="&#x192;" horiz-adv-x="950" d="M-78 -301l33 178h133q78 0 113.5 31.5t42.5 107.5l57 629h-201l13 174l204 8l29 306q12 145 96.5 224t241.5 79q148 0 242 -17l-35 -178h-146q-79 0 -112 -28t-39 -111l-27 -275h264l-16 -182h-264l-62 -659q-13 -149 -90 -227t-239 -78q-143 0 -238 18z" />
<glyph unicode="&#x218;" horiz-adv-x="1167" d="M98 1059q0 97 19 164t54 109.5t97 65.5t134.5 31.5t181.5 8.5q261 0 444 -47l-16 -183q-263 9 -420 9q-59 0 -91.5 -2.5t-65 -11t-47 -26t-23.5 -47t-9 -75.5q0 -89 34 -125t124 -64l272 -84q161 -52 226 -150t65 -261q0 -81 -11.5 -141t-38.5 -104.5t-65 -73.5 t-96.5 -46t-127.5 -24t-163 -7q-233 0 -458 45l16 189q357 -8 449 -8q141 0 188 32.5t47 139.5q0 48 -8 78.5t-29 51t-44.5 31.5t-67.5 25l-285 90q-153 50 -219 148.5t-66 261.5zM465 -186q3 41 21.5 57t62.5 16h59q45 0 62.5 -16t17.5 -57v-109q-3 -158 -84 -289l-100 27 q22 96 22 211q-29 0 -45 17t-16 48v95z" />
<glyph unicode="&#x219;" horiz-adv-x="1058" d="M88 748q0 162 92 223t318 61q238 -3 444 -37l-18 -172q-254 8 -383 8q-136 0 -174.5 -13t-38.5 -73q0 -15 2.5 -26.5t5 -20t11.5 -16t14 -11.5t20 -9.5t22.5 -7.5t29 -8t32.5 -9l270 -74q130 -37 185 -99t55 -190q0 -74 -17.5 -125.5t-50 -85t-89 -52.5t-125 -26.5 t-167.5 -7.5q-226 0 -420 33l17 174q107 -8 342 -8q162 0 216 18.5t54 77.5q0 13 -1.5 23t-6.5 18.5t-9 14.5t-14 12t-15.5 9.5t-21 8.5t-23 7t-27.5 7.5t-29 8.5l-264 72q-131 38 -183.5 105.5t-52.5 189.5zM422 -184q1 41 20 57t64 16h59q45 0 62.5 -16t17.5 -57v-109 q-3 -155 -84 -289l-100 27q22 99 22 213q-64 0 -61 63v95z" />
<glyph unicode="&#x21a;" horiz-adv-x="1212" d="M43 1194v219h1126v-219h-436v-1194h-258v1194h-432zM469 -186q3 41 22 57t62 16h61q44 0 61 -16t17 -57v-109q-3 -162 -82 -289l-102 27q24 105 24 211q-63 0 -63 65v95z" />
<glyph unicode="&#x21b;" horiz-adv-x="819" d="M45 823v170l180 11v288h248v-288h295v-181h-295v-510q0 -66 26.5 -91t94.5 -25h137l27 -185q-48 -16 -126.5 -25.5t-131.5 -9.5q-132 0 -202.5 76.5t-70.5 216.5v553h-182zM358 -186q3 41 22 57t62 16h62q44 0 61 -16t17 -57v-109q0 -157 -82 -289l-103 27q25 97 25 211 q-31 0 -47.5 17t-16.5 48v95z" />
<glyph unicode="&#x2c6;" horiz-adv-x="892" d="M90 1202l268 271h181l270 -273l-80 -100l-272 196h-17l-274 -196z" />
<glyph unicode="&#x2da;" horiz-adv-x="626" d="M82 1309q0 95 67.5 161t163.5 66q95 0 163.5 -66.5t68.5 -160.5q0 -97 -68 -162.5t-164 -65.5q-97 0 -164 65t-67 163zM205 1309q0 -51 31 -81t77 -30t77.5 30t31.5 81q0 50 -31.5 80t-77.5 30q-47 0 -77.5 -30t-30.5 -80z" />
<glyph unicode="&#x2dc;" horiz-adv-x="882" d="M102 1182q-18 132 32 202t132 64q70 -5 168 -50.5t150 -51.5q52 -7 70 14t18 78h108q20 -128 -28 -199t-136 -65q-60 4 -118 27.5t-110 48t-91 30.5q-52 6 -69 -16.5t-17 -81.5h-109z" />
<glyph unicode="&#x3a9;" horiz-adv-x="1472" d="M100 0v219h185q69 0 139 -22q-155 119 -219.5 249t-63.5 336q0 336 139.5 497t456.5 161q315 0 454.5 -162t139.5 -500q0 -210 -63.5 -338.5t-218.5 -242.5q80 22 139 22h184v-219h-545v207q133 101 185.5 220.5t52.5 317.5q0 261 -74.5 369.5t-255.5 108.5 q-183 0 -255 -108t-72 -374q0 -141 25 -236t73 -160t137 -138v-207h-543z" />
<glyph unicode="&#x3c0;" horiz-adv-x="1320" d="M49 815v191h1223v-191h-174v-815h-248v815h-379v-815h-248v815h-174z" />
<glyph unicode="&#x401;" d="M147 264v885q0 124 80.5 196t218.5 72q437 0 623 -16l-10 -197h-555q-56 0 -78.5 -26.5t-22.5 -92.5v-247h578v-197h-578v-315q0 -66 22.5 -92.5t78.5 -26.5h555l10 -195q-186 -16 -623 -16q-139 0 -219 71.5t-80 196.5zM350 1659v113q0 61 62 61h82q61 0 61 -61v-113 q0 -64 -61 -64h-82q-62 0 -62 64zM717 1659v113q0 61 61 61h82q29 0 45.5 -16t16.5 -45v-113q0 -64 -62 -64h-82q-61 0 -61 64z" />
<glyph unicode="&#x402;" horiz-adv-x="1550" d="M43 1194v219h1124v-219h-434v-379q180 100 387 100q64 0 113.5 -9.5t97 -37.5t78 -75t49.5 -125.5t19 -184.5q0 -141 -37.5 -241t-109 -156.5t-166.5 -80.5t-220 -19l-24 184q83 8 136.5 24t92.5 48.5t55.5 85.5t16.5 133q0 81 -10 129t-36 72t-57.5 31t-87.5 7 q-142 0 -297 -77v-623h-258v1194h-432z" />
<glyph unicode="&#x403;" horiz-adv-x="1073" d="M156 0v1124q0 130 79 211.5t203 81.5q420 0 602 -18l-12 -195h-496q-68 0 -94 -28t-26 -101v-1075h-256zM449 1593l385 303l129 -184l-437 -229z" />
<glyph unicode="&#x404;" horiz-adv-x="1193" d="M109 707q0 205 30 342t100.5 225t180.5 126t274 38q140 0 229 -10t183 -35l-25 -195q-191 12 -387 12q-163 0 -234 -81.5t-83 -288.5h581v-193h-585q4 -171 36.5 -266.5t99.5 -136.5t185 -41q254 0 400 20l24 -194q-91 -29 -186.5 -41.5t-237.5 -12.5q-219 0 -345 71.5 t-183 229.5t-57 431z" />
<glyph unicode="&#x405;" horiz-adv-x="1167" d="M98 1059q0 97 19 164t54 109.5t97 65.5t134.5 31.5t181.5 8.5q261 0 444 -47l-16 -183q-263 9 -420 9q-59 0 -91.5 -2.5t-65 -11t-47 -26t-23.5 -47t-9 -75.5q0 -89 34 -125t124 -64l272 -84q161 -52 226 -150t65 -261q0 -81 -11.5 -141t-38.5 -104.5t-65 -73.5 t-96.5 -46t-127.5 -24t-163 -7q-233 0 -458 45l16 189q357 -8 449 -8q141 0 188 32.5t47 139.5q0 48 -8 78.5t-29 51t-44.5 31.5t-67.5 25l-285 90q-153 50 -219 148.5t-66 261.5z" />
<glyph unicode="&#x406;" horiz-adv-x="573" d="M160 0v1413h256v-1413h-256z" />
<glyph unicode="&#x407;" horiz-adv-x="573" d="M2 1622v115q0 61 61 61h82q60 0 60 -61v-115q0 -61 -60 -61h-82q-61 0 -61 61zM160 0v1413h256v-1413h-256zM369 1622v115q0 61 61 61h82q61 0 61 -61v-115q0 -61 -61 -61h-82q-61 0 -61 61z" />
<glyph unicode="&#x408;" horiz-adv-x="724" d="M51 12l27 178h96q143 0 143 127v1096h254v-1102q0 -161 -77 -247.5t-218 -86.5q-50 0 -119 10.5t-106 24.5z" />
<glyph unicode="&#x409;" horiz-adv-x="1992" d="M39 170q63 22 109.5 61.5t87.5 124.5q17 38 30.5 77t24.5 94.5t17.5 90t14.5 113.5t11 111.5t11 138t11 141.5q15 291 322 291h508v-541h237q277 0 383.5 -97t106.5 -349q0 -130 -24.5 -215t-81 -135.5t-137.5 -71t-204 -20.5q-342 0 -532 16v1214h-215 q-59 0 -85.5 -32.5t-31.5 -96.5q-34 -365 -57 -516.5t-72 -281.5q-64 -161 -159 -226t-257 -65zM1186 199l237 -2q144 0 188 45.5t44 189.5q0 71 -8.5 113.5t-33.5 73.5t-70.5 43t-119.5 12h-237v-475z" />
<glyph unicode="&#x40a;" horiz-adv-x="2000" d="M160 0v1413h256v-547h524v547h254v-547h240q274 0 380.5 -96t106.5 -346q0 -129 -24.5 -214t-80 -135t-136.5 -70.5t-203 -20.5q-347 0 -537 16v666h-524v-666h-256zM1194 199l240 -2q141 0 185 45t44 186q0 71 -8.5 113t-33 73t-69.5 43.5t-118 12.5h-240v-471z" />
<glyph unicode="&#x40b;" horiz-adv-x="1589" d="M43 1194v219h1124v-219h-434v-375q103 49 215 74t201 25q175 0 258.5 -81t83.5 -251v-586h-256v532q0 93 -37.5 128.5t-138.5 35.5q-84 0 -157 -16t-169 -57v-623h-258v1194h-432z" />
<glyph unicode="&#x40c;" horiz-adv-x="1267" d="M160 0v1413h256v-416q0 -64 -15 -163h119q46 0 85.5 14.5t68.5 33.5t58.5 62.5t48.5 78t46 106.5t42.5 120t46.5 145q4 13 6 19h260q-96 -290 -122 -357q-71 -177 -157 -247q-70 -55 -172 -68v-8q63 -7 111 -26.5t86.5 -55t69 -82.5t60.5 -116.5t58 -149t64 -186.5 q25 -76 39 -117h-269q-101 305 -129 375q-64 159 -138 214q-63 48 -163 48h-119q15 -88 15 -139v-498h-256zM489 1593l385 303l130 -184l-437 -229z" />
<glyph unicode="&#x40d;" horiz-adv-x="1435" d="M160 0v1413h246v-913q0 -99 -17 -185h14q27 79 78 170l533 928h262v-1413h-248v926q0 84 16 178h-12q-46 -118 -78 -172l-534 -932h-260zM336 1712l127 184l385 -303l-78 -110z" />
<glyph unicode="&#x40e;" horiz-adv-x="1185" d="M27 1413h262l252 -772q7 -27 37 -27h67l266 799h265l-363 -1055q-30 -86 -59.5 -146t-70 -112.5t-94.5 -81t-122 -34.5q-60 -4 -149 5t-148 25l29 187q82 -4 115.5 -5.5t78 2t59 11t37.5 28.5t34 46t30 71l18 52h-73q-68 0 -105.5 28.5t-58.5 89.5zM268 1810l121 17 q0 -65 51.5 -100t153.5 -35q99 0 151 35t50 100l123 -17q12 -126 -77 -209t-247 -83t-248 83t-78 209z" />
<glyph unicode="&#x40f;" horiz-adv-x="1398" d="M160 0v1413h256v-1214h565v1214h258v-1413h-434l-10 -309h-177l-12 309h-446z" />
<glyph unicode="&#x410;" horiz-adv-x="1302" d="M10 0l424 1346q9 32 34 49.5t58 17.5h250q33 0 58 -17.5t34 -49.5l424 -1346h-262l-117 399h-524l-117 -399h-262zM451 610h401l-141 488q-3 13 -10.5 38t-12.5 45.5t-8 37.5h-55l-33 -121z" />
<glyph unicode="&#x411;" horiz-adv-x="1243" d="M160 0v1413q273 14 461 14q190 0 452 -14l-20 -207h-637v-379h248q277 0 385 -92.5t108 -333.5q0 -81 -11.5 -143t-31 -106.5t-55 -75.5t-73.5 -49.5t-97.5 -28.5t-116.5 -13t-139 -3q-254 0 -467 18h-6zM416 193l248 -3q76 0 120 9t71 35.5t35.5 67t8.5 110.5 q0 69 -8.5 109t-34 68.5t-71 39t-121.5 10.5h-248v-446z" />
<glyph unicode="&#x412;" horiz-adv-x="1286" d="M160 0v1413q185 17 497 17q139 0 228 -16.5t148.5 -59t84.5 -113t25 -180.5q0 -155 -57.5 -233.5t-186.5 -90.5v-8q154 -13 220.5 -107t66.5 -270q0 -109 -25.5 -180t-84 -113t-142.5 -58.5t-213 -16.5q-367 0 -561 16zM410 193l270 -3q144 0 196 42t52 167 q0 140 -54.5 189t-203.5 51h-260v-446zM410 825h258q131 0 179 41.5t48 161.5q0 116 -53 155.5t-197 39.5h-235v-398z" />
<glyph unicode="&#x413;" horiz-adv-x="1073" d="M156 0v1124q0 130 79 211.5t203 81.5q420 0 602 -18l-12 -195h-496q-68 0 -94 -28t-26 -101v-1075h-256z" />
<glyph unicode="&#x414;" horiz-adv-x="1468" d="M41 199h145q86 202 128.5 427t62.5 498q8 133 93 211t228 78h535v-1214h180v-508h-178l-23 309h-970l-23 -309h-178v508zM430 199h547v1015h-221q-70 0 -99 -28.5t-34 -102.5q-25 -306 -67 -508t-126 -376z" />
<glyph unicode="&#x415;" d="M147 264v885q0 124 80.5 196t218.5 72q437 0 623 -16l-10 -197h-555q-56 0 -78.5 -26.5t-22.5 -92.5v-247h578v-197h-578v-315q0 -66 22.5 -92.5t78.5 -26.5h555l10 -195q-186 -16 -623 -16q-139 0 -219 71.5t-80 196.5z" />
<glyph unicode="&#x416;" horiz-adv-x="1896" d="M49 0q105 326 141 413q72 178 158 248q73 59 187 72v8q-40 5 -74 16t-62 27t-53.5 41.5t-45.5 51.5t-40.5 65.5t-36.5 76.5t-35 91.5t-35 102t-38 116.5q-6 18 -9 28t-8.5 26t-9.5 30h260q94 -279 129 -358q69 -154 149 -198q42 -23 95 -23h121q-15 99 -15 163v416h246 v-416q0 -89 -14 -163h110q112 0 187 109q58 84 138 314q12 32 35 102q13 36 19 54h260q-94 -290 -121 -357q-69 -177 -154 -246q-70 -57 -173 -69v-8q147 -17 232 -117q74 -86 150 -304q21 -58 103 -312h-268q-13 36 -36 104q-41 120 -60.5 173.5t-51 130.5t-53 107 t-54.5 65.5t-68.5 46t-82.5 10.5h-112q14 -82 14 -139v-498h-246v498q0 59 17 139h-121q-129 0 -194.5 -106.5t-178.5 -435.5q-22 -62 -33 -95h-268z" />
<glyph unicode="&#x417;" horiz-adv-x="1140" d="M66 39l20 182q244 -33 449 -33q138 0 187.5 42t49.5 169q0 137 -53.5 186.5t-196.5 51.5h-256v192h256q124 0 170.5 41t46.5 158q0 118 -50.5 158.5t-186.5 40.5q-53 0 -111.5 -3t-91.5 -5.5t-97.5 -8.5t-82.5 -8l-21 191q180 37 422 37q136 0 222.5 -16.5t144.5 -59 t82 -113t24 -180.5q0 -155 -55.5 -233.5t-181.5 -90.5v-8q151 -13 215.5 -107t64.5 -270q0 -109 -25 -180t-82 -113t-139 -58.5t-208 -16.5q-315 0 -516 55z" />
<glyph unicode="&#x418;" horiz-adv-x="1435" d="M160 0v1413h246v-913q0 -99 -17 -185h14q27 79 78 170l533 928h262v-1413h-248v926q0 84 16 178h-12q-46 -118 -78 -172l-534 -932h-260z" />
<glyph unicode="&#x419;" horiz-adv-x="1435" d="M160 0v1413h246v-913q0 -99 -17 -185h14q27 79 78 170l533 928h262v-1413h-248v926q0 84 16 178h-12q-46 -118 -78 -172l-534 -932h-260zM401 1819h177q-3 -172 149 -172q148 0 145 172h177q12 -127 -77 -214t-245 -87q-158 0 -249 87t-77 214z" />
<glyph unicode="&#x41a;" horiz-adv-x="1267" d="M160 0v1413h256v-416q0 -64 -15 -163h119q46 0 85.5 14.5t68.5 33.5t58.5 62.5t48.5 78t46 106.5t42.5 120t46.5 145q4 13 6 19h260q-96 -290 -122 -357q-71 -177 -157 -247q-70 -55 -172 -68v-8q63 -7 111 -26.5t86.5 -55t69 -82.5t60.5 -116.5t58 -149t64 -186.5 q25 -76 39 -117h-269q-101 305 -129 375q-64 159 -138 214q-63 48 -163 48h-119q15 -88 15 -139v-498h-256z" />
<glyph unicode="&#x41b;" horiz-adv-x="1361" d="M14 195q78 19 127.5 54.5t75.5 104.5q47 120 71.5 279t49.5 493q12 141 91.5 214t223.5 73h549v-1413h-258v1214h-219q-64 0 -97.5 -31.5t-39.5 -97.5q-30 -351 -54 -512t-75 -286q-64 -160 -168.5 -231.5t-255.5 -59.5z" />
<glyph unicode="&#x41c;" horiz-adv-x="1832" d="M133 0l53 1313q3 100 101 100h264q83 0 104 -86l203 -766q24 -101 41 -192h31q24 114 43 194l201 764q21 86 108 86h262q97 0 103 -100l55 -1313h-250l-49 1206h-37l-244 -940q-22 -86 -108 -86h-195q-88 0 -110 86l-246 940h-37l-43 -1206h-250z" />
<glyph unicode="&#x41d;" horiz-adv-x="1390" d="M160 0v1413h256v-555h557v555h258v-1413h-258v647h-557v-647h-256z" />
<glyph unicode="&#x41e;" horiz-adv-x="1382" d="M109 707q0 213 29.5 351.5t100.5 225t178.5 121.5t272.5 35q133 0 227 -23t164.5 -73.5t112 -137t61 -207.5t19.5 -292t-19.5 -292.5t-61 -208t-112 -137t-164.5 -73.5t-227 -23q-110 0 -192.5 15t-149 50.5t-110.5 91t-73.5 138t-42.5 190t-13 249.5zM379 707 q0 -200 28.5 -309.5t95 -157t187.5 -47.5q122 0 189 47.5t96 157t29 309.5t-29 309.5t-96 157t-189 47.5q-121 0 -187.5 -47.5t-95 -157t-28.5 -309.5z" />
<glyph unicode="&#x41f;" horiz-adv-x="1388" d="M160 0v1413h1069v-1413h-256v1214h-557v-1214h-256z" />
<glyph unicode="&#x420;" horiz-adv-x="1230" d="M160 0v1413q192 19 512 19q141 0 230.5 -20.5t148.5 -73.5t82.5 -139t23.5 -222t-23.5 -222.5t-79.5 -139t-139 -73t-213 -20.5q-141 0 -284 17v-539h-258zM418 731h248q92 1 140.5 22t70.5 73t22 151q0 145 -49 194.5t-184 49.5h-248v-490z" />
<glyph unicode="&#x421;" horiz-adv-x="1183" d="M109 707q0 205 30 342t99 225t177 126t269 38q138 0 225 -10t181 -35l-25 -195q-178 14 -381 14q-119 0 -183.5 -46.5t-93 -154t-28.5 -304.5q0 -148 14.5 -242.5t51 -155t93.5 -84.5t146 -24q261 0 412 20l22 -192q-95 -30 -192 -42t-242 -12q-215 0 -339 71.5 t-180 229.5t-56 431z" />
<glyph unicode="&#x422;" horiz-adv-x="1212" d="M43 1194v219h1126v-219h-436v-1194h-258v1194h-432z" />
<glyph unicode="&#x423;" horiz-adv-x="1185" d="M27 1413h262l252 -772q7 -27 37 -27h67l266 799h265l-363 -1055q-30 -86 -59.5 -146t-70 -112.5t-94.5 -81t-122 -34.5q-60 -4 -149 5t-148 25l29 187q82 -4 115.5 -5.5t78 2t59 11t37.5 28.5t34 46t30 71l18 52h-73q-68 0 -105.5 28.5t-58.5 89.5z" />
<glyph unicode="&#x424;" horiz-adv-x="1697" d="M80 721q0 218 62.5 345.5t200.5 189t378 71.5v191h256v-191q355 -17 498.5 -151t144.5 -455q-1 -313 -144.5 -445t-496.5 -149v-188h-258v188q-356 17 -498.5 148.5t-142.5 445.5zM340 721q0 -212 81.5 -293.5t309.5 -93.5v788q-117 -6 -190.5 -28t-119 -70t-63.5 -119.5 t-18 -183.5zM967 334q116 6 189 27.5t119 68t64 115t19 176.5q-1 149 -36 231t-118 121.5t-237 48.5v-788z" />
<glyph unicode="&#x425;" horiz-adv-x="1282" d="M35 0l375 727l-349 686h269l288 -590h44l288 590h271l-351 -686l377 -727h-272l-316 639h-38l-316 -639h-270z" />
<glyph unicode="&#x426;" horiz-adv-x="1439" d="M160 0v1413h256v-1214h536v1214h258v-1214h172v-508h-178l-20 309h-1024z" />
<glyph unicode="&#x427;" horiz-adv-x="1312" d="M109 827v586h256v-532q-2 -87 38 -124.5t136 -37.5q91 0 172 17.5t186 60.5v616h256v-1413h-256v608q-111 -56 -233.5 -85t-217.5 -29q-172 0 -254.5 81.5t-82.5 251.5z" />
<glyph unicode="&#x428;" horiz-adv-x="1947" d="M160 0v1413h252v-1214h436v1214h250v-1214h438v1214h252v-1413h-1628z" />
<glyph unicode="&#x429;" horiz-adv-x="2004" d="M160 0v1413h252v-1214h432v1214h248v-1214h434v1214h250v-1214h172v-508h-179l-20 309h-1589z" />
<glyph unicode="&#x42a;" horiz-adv-x="1544" d="M41 1194v219h696v-541h236q188 0 293 -42t151.5 -138t46.5 -268q0 -129 -24.5 -213.5t-80.5 -135t-137.5 -71t-205.5 -20.5q-347 0 -537 16v1194h-438zM737 199l236 -2q75 0 119 9.5t70.5 37t35 69.5t8.5 115q0 72 -8.5 115t-33.5 74.5t-70.5 44t-120.5 12.5h-236v-475z " />
<glyph unicode="&#x42b;" horiz-adv-x="1787" d="M160 0v1413h256v-541h241q277 0 384.5 -97.5t107.5 -350.5q0 -129 -24.5 -214t-81 -135t-138 -70.5t-205.5 -20.5q-347 0 -534 16h-6zM416 199l241 -2q145 0 189.5 45t44.5 186q0 72 -8.5 115t-34 74.5t-71 44t-120.5 12.5h-241v-475zM1372 0v1413h256v-1413h-256z" />
<glyph unicode="&#x42c;" horiz-adv-x="1230" d="M160 0v1413h256v-541h243q277 0 384.5 -97.5t107.5 -350.5q0 -129 -24.5 -214t-81 -135t-138 -70.5t-205.5 -20.5q-349 0 -536 16h-6zM416 199l243 -2q145 0 189.5 45t44.5 186q0 72 -8.5 115t-34 74.5t-71 44t-120.5 12.5h-243v-475z" />
<glyph unicode="&#x42d;" horiz-adv-x="1193" d="M76 29l24 194q146 -20 400 -20q118 0 185 41t99 136.5t35 266.5h-583v193h581q-12 207 -83 288.5t-234 81.5q-196 0 -389 -12l-23 195q94 25 182.5 35t227.5 10q164 0 274 -38t181 -126t101.5 -225t30.5 -342q0 -273 -57.5 -431t-184 -229.5t-345.5 -71.5 q-141 0 -235.5 12t-186.5 42z" />
<glyph unicode="&#x42e;" horiz-adv-x="1945" d="M162 0v1413h256v-582h287q12 232 70 364t171 188.5t305 56.5q133 0 227 -23t164.5 -73.5t112 -137t61 -207.5t19.5 -292t-19.5 -292.5t-61 -208t-112 -137t-164.5 -73.5t-227 -23q-149 0 -248 32t-166.5 110t-98.5 203t-36 315h-284v-633h-256zM952 707 q0 -200 27.5 -309.5t91 -157t180.5 -47.5q121 0 187.5 47.5t96 157t30.5 309.5q-1 200 -30.5 309.5t-96 157t-187.5 47.5q-117 0 -180.5 -47.5t-91 -157t-27.5 -309.5z" />
<glyph unicode="&#x42f;" horiz-adv-x="1275" d="M74 0l119 432q24 93 81 142t125 61l-2 12q-146 18 -208 108.5t-60 262.5q0 223 110.5 318.5t366.5 95.5q320 0 512 -19v-1413h-258v555l-244 -2q-66 0 -104.5 -30t-58.5 -99l-109 -424h-270zM385 1001q0 -129 50 -183t177 -54h248v457h-248q-130 0 -178 -45.5t-49 -174.5 z" />
<glyph unicode="&#x430;" horiz-adv-x="1150" d="M92 268v103q0 120 78 186t219 66h377v61q-1 86 -38.5 114.5t-145.5 28.5q-155 0 -422 -20l-23 176q107 20 254 34.5t246 14.5q196 0 287.5 -78t91.5 -272v-682h-197l-26 154q-66 -73 -163.5 -125t-219.5 -52q-142 0 -230 76.5t-88 214.5zM340 301q0 -65 31 -94t100 -29 q64 0 143.5 30t151.5 89v156h-320q-60 -3 -83 -30.5t-23 -82.5v-39z" />
<glyph unicode="&#x431;" horiz-adv-x="1196" d="M125 608q0 112 5.5 196t20 167t40.5 144t66.5 114.5t100 91t138.5 61.5q68 21 162.5 34.5t177 33t159.5 63.5l54 -194q-78 -46 -153.5 -65t-165.5 -29.5t-152 -28.5q-198 -55 -242 -258q-22 -85 -27 -150h4q25 41 51 69.5t68.5 57t106 43.5t147.5 15q224 0 317 -111.5 t93 -365.5q0 -130 -22.5 -222.5t-77 -161.5t-149.5 -103t-235 -34q-68 0 -125.5 7.5t-102 24.5t-80.5 37t-62.5 51.5t-46 62t-32 74.5t-20.5 82t-12 92t-5 97.5t-1 104.5zM383 492q0 -183 49 -250.5t178 -67.5q127 0 176.5 67t49.5 248q0 171 -45 230t-170 59 q-76 0 -123 -16t-72.5 -53.5t-34 -87t-8.5 -129.5z" />
<glyph unicode="&#x432;" horiz-adv-x="1148" d="M141 -2v1006q164 12 447 12q243 0 336.5 -56t93.5 -212q0 -108 -50.5 -163.5t-164.5 -64.5v-6q136 -10 195 -75.5t59 -190.5q0 -151 -93.5 -206.5t-318.5 -55.5q-319 0 -504 12zM375 170h229q115 0 159 26.5t44 104.5q0 75 -46.5 105t-164.5 30h-221v-266zM375 598h221 q107 0 148.5 27t41.5 98q0 64 -45 87.5t-163 23.5h-203v-236z" />
<glyph unicode="&#x433;" horiz-adv-x="970" d="M137 0v780q0 234 244 234q389 0 555 -23l-10 -174h-439q-54 0 -78 -24.5t-24 -79.5v-713h-248z" />
<glyph unicode="&#x434;" horiz-adv-x="1251" d="M53 190h125q100 236 131 570q18 244 281 244h448v-814h152v-483h-162l-18 293h-777l-18 -293h-162v483zM397 190h408v631h-162q-54 0 -81 -26t-32 -80q-36 -335 -133 -525z" />
<glyph unicode="&#x435;" horiz-adv-x="1128" d="M98 504q0 198 51.5 314t155.5 165t279 49q239 0 346.5 -86.5t107.5 -261.5q2 -138 -64.5 -212.5t-201.5 -74.5h-410q13 -131 73 -175t196 -44q144 0 360 25l23 -160q-75 -35 -189.5 -51.5t-224.5 -16.5q-273 0 -387.5 121.5t-114.5 407.5zM356 571h346q91 0 91 117 q0 81 -43.5 114.5t-155.5 33.5q-132 0 -182 -54.5t-56 -210.5z" />
<glyph unicode="&#x436;" horiz-adv-x="1652" d="M55 0q87 260 124 336q53 107 126 147q52 28 139 39v6q-61 7 -104.5 26t-74.5 48t-58.5 83t-51 116t-57.5 161q-9 28 -14 42h246q26 -73 40.5 -112t35.5 -89t35.5 -74t34.5 -52t39.5 -39.5t44 -19.5t54.5 -8h117q-10 49 -10 117v277h217v-277q0 -68 -10 -117h110 q27 0 48.5 4.5t41.5 18t35 26.5t32 42.5t29 52.5t30.5 69.5t31 81.5t35.5 99h248q-80 -230 -108 -290q-50 -108 -121 -148q-51 -28 -132 -38v-6q57 -7 96.5 -19t75 -43.5t58 -60t52 -98t50 -126.5t59.5 -175h-251q-91 248 -125 312q-45 86 -101 108q-29 11 -71 12h-123 q10 -52 10 -90v-342h-217v342q0 38 10 90h-129q-34 -1 -59 -7.5t-49 -29.5t-40.5 -47t-41 -79.5t-44 -105t-54.5 -144.5q-5 -13 -7 -19h-252z" />
<glyph unicode="&#x437;" horiz-adv-x="1042" d="M68 14l18 183q218 -19 395 -19q126 0 168.5 23.5t42.5 99.5q0 72 -44.5 97.5t-166.5 27.5h-266v172h264q108 0 146.5 25t38.5 96q0 63 -45 83.5t-175 20.5q-167 0 -325 -18l-17 182q135 39 332 39q108 0 181.5 -6.5t133 -23.5t92.5 -48t50.5 -78.5t17.5 -115.5 q0 -114 -48.5 -169t-162.5 -65v-6q131 -10 190.5 -74t59.5 -190q0 -85 -25.5 -139t-84.5 -83.5t-137.5 -40t-202.5 -10.5q-250 0 -430 37z" />
<glyph unicode="&#x438;" horiz-adv-x="1218" d="M143 0v1004h222v-586q0 -66 -9 -142h6q33 73 74 127l432 601h205v-1004h-223v580q0 6 10 149h-6q-19 -54 -74 -135l-432 -594h-205z" />
<glyph unicode="&#x439;" horiz-adv-x="1218" d="M143 0v1004h222v-586q0 -66 -9 -142h6q33 73 74 127l432 601h205v-1004h-223v580q0 6 10 149h-6q-19 -54 -74 -135l-432 -594h-205zM281 1450h178q-3 -172 149 -172q73 0 110 43.5t34 128.5h178q12 -127 -77.5 -214t-244.5 -87q-158 0 -248.5 87t-78.5 214z" />
<glyph unicode="&#x43a;" horiz-adv-x="1128" d="M143 0v1004h248v-275q0 -58 -12 -117h102q37 0 67 7.5t53.5 19.5t45 38.5t37 51.5t34.5 73.5t33 89t37 112.5h252q-80 -233 -110 -295q-50 -105 -121 -144q-50 -28 -133 -39v-6q58 -7 98.5 -18.5t76.5 -42.5t58.5 -59t52.5 -97.5t50.5 -126.5t60.5 -176h-260 q-96 278 -147 353.5t-172 76.5h-11h-102q10 -52 10 -88v-342h-248z" />
<glyph unicode="&#x43b;" horiz-adv-x="1183" d="M33 176q83 15 117.5 39.5t56.5 81.5q45 134 74 455q12 128 79.5 190t200.5 62h479v-1004h-249v819h-166q-58 0 -82 -23.5t-31 -88.5q-50 -365 -84 -480q-70 -259 -371 -237z" />
<glyph unicode="&#x43c;" horiz-adv-x="1570" d="M125 0l35 915q0 89 90 89h237q75 0 93 -78l155 -500q15 -47 35 -147h27q18 93 32 147l156 500q21 78 96 78h240q43 0 65.5 -23t22.5 -66l37 -915h-227l-33 821h-33l-195 -622q-21 -78 -94 -78h-162q-75 0 -96 78l-194 622h-31l-31 -821h-225z" />
<glyph unicode="&#x43d;" horiz-adv-x="1214" d="M143 0v1004h246v-381h438v381h244v-1004h-244v440h-438v-440h-246z" />
<glyph unicode="&#x43e;" horiz-adv-x="1187" d="M98 502q0 289 113 409.5t383 120.5q271 0 383.5 -120.5t112.5 -409.5t-112.5 -409t-383.5 -120q-270 0 -383 120t-113 409zM358 502q0 -193 49.5 -261.5t186.5 -68.5t187 68.5t50 261.5q0 194 -50 263t-187 69t-186.5 -69t-49.5 -263z" />
<glyph unicode="&#x43f;" horiz-adv-x="1198" d="M143 0v1006h910v-1006h-242v815h-426v-815h-242z" />
<glyph unicode="&#x440;" horiz-adv-x="1218" d="M143 -399v1403h205l19 -150q69 78 183.5 127t225.5 49q178 0 260 -136.5t82 -399.5q0 -146 -24 -246.5t-74 -160.5t-119.5 -86t-167.5 -26q-204 0 -348 99q9 -104 6 -209v-264h-248zM391 221q8 -2 40 -9.5t41.5 -9.5t35.5 -7.5t39 -7t34.5 -4.5t39.5 -4t38 -1 q78 0 119.5 24t62.5 93t21 201q0 187 -39.5 258t-136.5 71q-69 0 -133.5 -29.5t-161.5 -95.5v-479z" />
<glyph unicode="&#x441;" horiz-adv-x="1026" d="M98 504q0 290 111.5 409t380.5 119q209 0 350 -57l-29 -156q-102 4 -280 4q-155 0 -214 -67t-59 -252q0 -187 59.5 -255.5t213.5 -68.5q158 0 301 21l24 -164q-153 -62 -368 -62q-269 0 -379.5 119t-110.5 410z" />
<glyph unicode="&#x442;" horiz-adv-x="1030" d="M47 807v197h936v-197h-344v-807h-246v807h-346z" />
<glyph unicode="&#x443;" horiz-adv-x="1124" d="M27 1004h266l219 -691q28 -105 33 -133h26q25 70 41 133l215 691h269l-373 -1035q-78 -225 -221 -317q-80 -55 -188.5 -68t-223.5 8l23 172q170 -11 247 37q79 52 134 179l8 20h-49q-31 0 -54 16t-30 45z" />
<glyph unicode="&#x444;" horiz-adv-x="1503" d="M96 502q0 265 124.5 387t418.5 139v406h225v-406q294 -17 418.5 -139t124.5 -387t-124.5 -386.5t-418.5 -138.5v-376h-225v379q-294 17 -418.5 138t-124.5 384zM334 502q0 -172 68 -244t245 -84v657q-176 -12 -244.5 -84.5t-68.5 -244.5zM856 174q177 12 245 84t68 244 t-68.5 244.5t-244.5 84.5v-657z" />
<glyph unicode="&#x445;" horiz-adv-x="1126" d="M35 0l315 516l-291 488h260l228 -394h33l227 394h260l-293 -488l318 -516h-265l-252 430h-26l-252 -430h-262z" />
<glyph unicode="&#x446;" horiz-adv-x="1251" d="M143 0v1004h246v-814h408v814h245v-814h150v-483h-164l-22 293h-863z" />
<glyph unicode="&#x447;" horiz-adv-x="1126" d="M98 555v449h246v-367q0 -63 26 -88t91 -25q134 0 274 54v426h244v-1004h-244v391q-89 -29 -188 -45t-170 -16q-140 0 -209.5 55t-69.5 170z" />
<glyph unicode="&#x448;" horiz-adv-x="1683" d="M143 0v1004h240v-814h348v814h221v-814h348v814h240v-1004h-1397z" />
<glyph unicode="&#x449;" horiz-adv-x="1748" d="M143 0v1004h240v-814h348v814h219v-814h350v814h240v-814h150v-483h-164l-23 293h-1360z" />
<glyph unicode="&#x44a;" horiz-adv-x="1312" d="M45 815v189h582v-361h180q169 0 261 -30.5t131.5 -100.5t39.5 -199q0 -95 -22 -158t-71.5 -100t-120 -52t-177.5 -15q-294 0 -461 12v815h-342zM627 174h180q105 0 143.5 30t38.5 120q0 86 -37 116.5t-145 30.5h-180v-297z" />
<glyph unicode="&#x44b;" horiz-adv-x="1542" d="M143 0v1004h240v-361h186q168 0 260 -30.5t132 -101t40 -198.5q0 -95 -22 -158t-71.5 -100t-120 -52t-177.5 -15q-294 0 -458 12h-9zM383 174h186q106 0 144.5 30t38.5 120q0 85 -38 116t-145 31h-186v-297zM1149 0v1004h248v-1004h-248z" />
<glyph unicode="&#x44c;" horiz-adv-x="1077" d="M143 0v1004h240v-361h186q249 0 342 -70.5t93 -259.5q0 -95 -22 -158t-72 -100t-120.5 -52t-177.5 -15q-296 0 -460 12h-9zM383 174h186q106 0 144.5 30t38.5 120q0 85 -37.5 116t-145.5 31h-186v-297z" />
<glyph unicode="&#x44d;" horiz-adv-x="1069" d="M76 25l20 168q146 -11 355 -11q145 0 202 49t64 195h-504v172h502q-12 128 -70.5 175.5t-193.5 45.5q-173 0 -345 -6l-22 166q80 25 160 34t207 9q195 0 306.5 -50t162.5 -163t51 -311q0 -287 -116.5 -404t-403.5 -117q-230 0 -375 48z" />
<glyph unicode="&#x44e;" horiz-adv-x="1669" d="M143 0v1004h248v-396h221q8 124 36.5 205.5t86 130.5t139 68.5t203.5 19.5q140 0 229.5 -24t150.5 -84.5t86.5 -162t25.5 -259.5q0 -154 -25.5 -253t-86 -159t-151 -84t-229.5 -24q-125 0 -208 20.5t-140.5 71.5t-85 135.5t-33.5 214.5h-219v-424h-248zM842 506 q0 -190 47 -257t182 -67q140 0 190.5 67.5t51.5 256.5q-1 188 -51.5 254.5t-190.5 66.5q-135 0 -182 -66t-47 -255z" />
<glyph unicode="&#x44f;" horiz-adv-x="1136" d="M63 0l89 307q30 104 192 123v8q-120 23 -170.5 89.5t-50.5 185.5q0 111 35 175.5t124 98t246 33.5q319 0 467 -14v-1006h-243v354h-226q-117 0 -135 -86l-72 -268h-256zM365 682q0 -91 31.5 -122.5t135.5 -31.5h220v299l-220 2q-106 0 -136.5 -28t-30.5 -119z" />
<glyph unicode="&#x451;" horiz-adv-x="1128" d="M98 504q0 198 51.5 314t155.5 165t279 49q239 0 346.5 -86.5t107.5 -261.5q2 -138 -64.5 -212.5t-201.5 -74.5h-410q13 -131 73 -175t196 -44q144 0 360 25l23 -160q-75 -35 -189.5 -51.5t-224.5 -16.5q-273 0 -387.5 121.5t-114.5 407.5zM301 1255v113q0 64 61 64h82 q30 0 46 -17t16 -47v-113q0 -61 -62 -61h-82q-61 0 -61 61zM356 571h346q91 0 91 117q0 81 -43.5 114.5t-155.5 33.5q-132 0 -182 -54.5t-56 -210.5zM668 1255v113q0 64 61 64h82q29 0 45 -17t16 -47v-113q0 -61 -61 -61h-82q-32 0 -46.5 14.5t-14.5 46.5z" />
<glyph unicode="&#x452;" horiz-adv-x="1222" d="M47 993v131h146v310h247v-310h355v-131h-355v-123q0 -92 -10 -180q211 146 416 146q138 0 209 -70t71 -207v-559h-249v485q0 75 -31 104t-113 29q-64 0 -131 -22.5t-162 -73.5v-522h-247v993h-146z" />
<glyph unicode="&#x453;" horiz-adv-x="970" d="M137 0v780q0 234 244 234q389 0 555 -23l-10 -174h-439q-54 0 -78 -24.5t-24 -79.5v-713h-248zM393 1225l385 301l129 -183l-436 -229z" />
<glyph unicode="&#x454;" horiz-adv-x="1069" d="M98 498q0 292 115.5 408t402.5 116q128 0 207 -9t160 -34l-22 -166q-169 6 -345 6q-133 2 -192 -45.5t-72 -175.5h504v-172h-506q5 -75 20.5 -122t48.5 -74.5t79 -37.5t118 -10q212 0 355 11l22 -168q-149 -48 -377 -48q-286 0 -402 117t-116 404z" />
<glyph unicode="&#x455;" horiz-adv-x="1064" d="M92 748q0 162 92 223t318 61q234 -3 444 -37l-18 -172q-258 8 -383 8q-136 0 -174.5 -13t-38.5 -73q0 -15 2.5 -26.5t5 -20t11.5 -16t14 -11.5t20 -9.5t22.5 -7.5t29 -8t32.5 -9l268 -74q130 -37 186 -99.5t56 -189.5q0 -74 -17.5 -125.5t-50.5 -85t-89.5 -52.5 t-124.5 -26.5t-167 -7.5q-225 0 -419 33l14 174q109 -8 344 -8q162 0 215 18.5t53 77.5q0 11 -2 20.5t-4 17t-8 14.5t-10 11.5t-14 9.5t-15.5 8t-19.5 7t-21.5 6.5t-25.5 7t-27 7.5l-264 72q-130 38 -182 105.5t-52 189.5z" />
<glyph unicode="&#x456;" horiz-adv-x="550" d="M147 1255v113q0 72 72 72h115q35 0 53.5 -19t18.5 -53v-113q0 -71 -72 -71h-115q-72 0 -72 71zM152 0v1004h247v-1004h-247z" />
<glyph unicode="&#x457;" horiz-adv-x="550" d="M-8 1255v113q0 64 59 64h82q30 0 46 -17t16 -47v-113q0 -61 -62 -61h-82q-31 0 -45 14.5t-14 46.5zM152 0v1004h247v-1004h-247zM356 1255v113q0 30 16 47t46 17h82q29 0 45 -17t16 -47v-113q0 -61 -61 -61h-82q-62 0 -62 61z" />
<glyph unicode="&#x458;" horiz-adv-x="552" d="M35 -301q63 75 90 149t27 170v986h249v-986q0 -133 -61 -247.5t-168 -180.5zM147 1260v110q0 72 72 72h115q72 0 72 -72v-110q0 -72 -72 -72h-115q-72 0 -72 72z" />
<glyph unicode="&#x459;" horiz-adv-x="1677" d="M49 160q23 7 35.5 11t34.5 14t36.5 21.5t30.5 31.5t27 45q34 70 50.5 168t41.5 331q24 222 256 222h428v-363h185q246 0 338 -70t92 -258q0 -95 -22 -158t-72 -100t-120.5 -52t-177.5 -15q-287 0 -456 12v827h-121q-56 0 -79.5 -19.5t-27.5 -70.5q-24 -202 -44.5 -316.5 t-51.5 -203.5q-44 -129 -142 -184t-222 -41zM989 174l185 -2q105 0 143.5 30t38.5 122q0 85 -37.5 116t-144.5 31h-185v-297z" />
<glyph unicode="&#x45a;" horiz-adv-x="1683" d="M143 0v1004h230v-369h389v369h233v-369h187q246 0 337 -68.5t91 -253.5q0 -186 -88.5 -255.5t-298.5 -69.5q-292 0 -461 12v465h-389v-465h-230zM995 174l187 -2q104 0 142 30t38 120q0 84 -37 114.5t-143 30.5h-187v-293z" />
<glyph unicode="&#x45b;" horiz-adv-x="1222" d="M47 993v131h146v310h247v-310h355v-131h-355v-123q0 -92 -10 -180q211 146 416 146q277 0 280 -277v-541q0 -132 -61 -247t-166 -181l-137 109q62 74 88.5 147.5t26.5 169.5v469q0 74 -31.5 103.5t-112.5 29.5q-64 0 -131 -22.5t-162 -73.5v-522h-247v993h-146z" />
<glyph unicode="&#x45c;" horiz-adv-x="1128" d="M143 0v1004h248v-275q0 -58 -12 -117h102q37 0 67 7.5t53.5 19.5t45 38.5t37 51.5t34.5 73.5t33 89t37 112.5h252q-80 -233 -110 -295q-50 -105 -121 -144q-50 -28 -133 -39v-6q58 -7 98.5 -18.5t76.5 -42.5t58.5 -59t52.5 -97.5t50.5 -126.5t60.5 -176h-260 q-96 278 -147 353.5t-172 76.5h-11h-102q10 -52 10 -88v-342h-248zM428 1225l385 301l127 -183l-434 -229z" />
<glyph unicode="&#x45d;" horiz-adv-x="1218" d="M143 0v1004h222v-586q0 -66 -9 -142h6q33 73 74 127l432 601h205v-1004h-223v580q0 6 10 149h-6q-19 -54 -74 -135l-432 -594h-205zM217 1343l127 183l385 -301l-78 -111z" />
<glyph unicode="&#x45e;" horiz-adv-x="1124" d="M27 1004h266l219 -691q28 -105 33 -133h26q25 70 41 133l215 691h269l-373 -1035q-78 -225 -221 -317q-80 -55 -188.5 -68t-223.5 8l23 172q170 -11 247 37q79 52 134 179l8 20h-49q-31 0 -54 16t-30 45zM233 1450h177q-3 -172 149 -172q149 0 146 172h176 q14 -127 -75.5 -214t-246.5 -87q-158 0 -248 87t-78 214z" />
<glyph unicode="&#x45f;" horiz-adv-x="1208" d="M143 0v1004h248v-814h428v814h246v-1004h-360l-19 -336h-166l-18 336h-359z" />
<glyph unicode="&#x490;" horiz-adv-x="1087" d="M156 0v1124q0 130 79 211.5t203 81.5q285 0 422 -10l25 317h168v-344l-13 -176h-508q-68 0 -94 -28t-26 -101v-1075h-256z" />
<glyph unicode="&#x491;" horiz-adv-x="976" d="M139 0v780q0 234 242 234q250 0 371 -6l24 295h164v-312l-12 -174h-439q-54 1 -78 -23.5t-24 -80.5v-713h-248z" />
<glyph unicode="&#x4b0;" horiz-adv-x="1224" d="M20 1413h271l258 -549q27 -58 57 -170h19q30 112 57 170l258 549h266l-413 -833h243v-144h-293v-436h-258v436h-292v144h243z" />
<glyph unicode="&#x4b1;" horiz-adv-x="1228" d="M23 1004h268l258 -541q19 -38 57 -170h19q31 120 55 172l258 539h268l-413 -826h243v-153h-293v-424h-256v424h-294v153h243z" />
<glyph unicode="&#x4b6;" horiz-adv-x="1382" d="M109 827v586h258v-532q-3 -89 38 -127.5t140 -38.5q90 0 169.5 17.5t184.5 62.5v618h258v-1239h172v-483h-178l-23 309h-229v598q-112 -51 -232.5 -77.5t-213.5 -26.5q-177 0 -260.5 81t-83.5 252z" />
<glyph unicode="&#x4b7;" horiz-adv-x="1189" d="M98 555v449h246v-367q0 -63 26 -88t89 -25q137 0 274 54v426h246v-814h151v-483h-165l-21 293h-211v391q-89 -29 -187 -45t-169 -16q-140 0 -209.5 55t-69.5 170z" />
<glyph unicode="&#x4ba;" horiz-adv-x="1314" d="M160 0v1413h256v-596q109 49 233 76t213 27q177 0 260.5 -81.5t83.5 -252.5v-586h-256v532q2 90 -39.5 128t-140.5 38q-175 0 -354 -77v-621h-256z" />
<glyph unicode="&#x4c0;" horiz-adv-x="577" d="M162 0v1413h256v-1413h-256z" />
<glyph unicode="&#x1e80;" horiz-adv-x="1968" d="M59 1413h267l168 -1030q12 -69 22 -193h43q15 100 33 193l174 948q6 37 31 59.5t63 22.5h250q35 0 60.5 -22.5t31.5 -59.5l174 -950q21 -111 29 -191h45q4 29 11.5 93.5t11.5 95.5l169 1034h267l-244 -1341q-8 -32 -33.5 -52t-60.5 -20h-268q-36 0 -62.5 20.5t-32.5 53.5 l-178 985q-9 51 -26 166h-41q-15 -100 -27 -166l-176 -985q-6 -33 -33 -53.5t-63 -20.5h-267q-35 0 -61.5 20t-32.5 52zM596 1710l127 184l385 -303l-78 -110z" />
<glyph unicode="&#x1e81;" horiz-adv-x="1708" d="M39 1004h254l166 -691q21 -93 26 -159h27q3 13 14.5 70.5t16.5 88.5l123 617q6 34 29.5 54t58.5 20h202q35 0 60 -20.5t31 -55.5l118 -615q5 -30 16 -84.5t15 -74.5h27q18 124 26 159l166 691h254l-264 -936q-7 -32 -31 -50t-57 -18h-211q-35 0 -60.5 21.5t-31.5 56.5 l-121 616q-4 20 -12 76.5t-15 87.5h-24l-29 -164l-117 -616q-6 -35 -32 -56.5t-62 -21.5h-207q-34 0 -59 18t-31 50zM467 1343l127 183l385 -301l-78 -111z" />
<glyph unicode="&#x1e82;" horiz-adv-x="1968" d="M59 1413h267l168 -1030q12 -69 22 -193h43q15 100 33 193l174 948q6 37 31 59.5t63 22.5h250q35 0 60.5 -22.5t31.5 -59.5l174 -950q21 -111 29 -191h45q4 29 11.5 93.5t11.5 95.5l169 1034h267l-244 -1341q-8 -32 -33.5 -52t-60.5 -20h-268q-36 0 -62.5 20.5t-32.5 53.5 l-178 985q-9 51 -26 166h-41q-15 -100 -27 -166l-176 -985q-6 -33 -33 -53.5t-63 -20.5h-267q-35 0 -61.5 20t-32.5 52zM829 1591l385 303l129 -184l-436 -229z" />
<glyph unicode="&#x1e83;" horiz-adv-x="1708" d="M39 1004h254l166 -691q21 -93 26 -159h27q3 13 14.5 70.5t16.5 88.5l123 617q6 34 29.5 54t58.5 20h202q35 0 60 -20.5t31 -55.5l118 -615q5 -30 16 -84.5t15 -74.5h27q18 124 26 159l166 691h254l-264 -936q-7 -32 -31 -50t-57 -18h-211q-35 0 -60.5 21.5t-31.5 56.5 l-121 616q-4 20 -12 76.5t-15 87.5h-24l-29 -164l-117 -616q-6 -35 -32 -56.5t-62 -21.5h-207q-34 0 -59 18t-31 50zM700 1225l385 301l129 -183l-436 -229z" />
<glyph unicode="&#x1e84;" horiz-adv-x="1968" d="M59 1413h267l168 -1030q12 -69 22 -193h43q15 100 33 193l174 948q6 37 31 59.5t63 22.5h250q35 0 60.5 -22.5t31.5 -59.5l174 -950q21 -111 29 -191h45q4 29 11.5 93.5t11.5 95.5l169 1034h267l-244 -1341q-8 -32 -33.5 -52t-60.5 -20h-268q-36 0 -62.5 20.5t-32.5 53.5 l-178 985q-9 51 -26 166h-41q-15 -100 -27 -166l-176 -985q-6 -33 -33 -53.5t-63 -20.5h-267q-35 0 -61.5 20t-32.5 52zM700 1622v115q0 61 60 61h82q61 0 61 -61v-115q0 -61 -61 -61h-82q-60 0 -60 61zM1065 1622v115q0 61 63 61h80q29 0 45.5 -16t16.5 -45v-115 q0 -61 -62 -61h-80q-63 0 -63 61z" />
<glyph unicode="&#x1e85;" horiz-adv-x="1708" d="M39 1004h254l166 -691q21 -93 26 -159h27q3 13 14.5 70.5t16.5 88.5l123 617q6 34 29.5 54t58.5 20h202q35 0 60 -20.5t31 -55.5l118 -615q5 -30 16 -84.5t15 -74.5h27q18 124 26 159l166 691h254l-264 -936q-7 -32 -31 -50t-57 -18h-211q-35 0 -60.5 21.5t-31.5 56.5 l-121 616q-4 20 -12 76.5t-15 87.5h-24l-29 -164l-117 -616q-6 -35 -32 -56.5t-62 -21.5h-207q-34 0 -59 18t-31 50zM571 1255v113q0 64 60 64h84q59 0 59 -64v-113q0 -32 -14 -46.5t-45 -14.5h-84q-60 0 -60 61zM936 1255v113q0 64 63 64h80q29 0 46.5 -17.5t17.5 -46.5 v-113q0 -61 -64 -61h-80q-63 0 -63 61z" />
<glyph unicode="&#x1ef2;" horiz-adv-x="1206" d="M10 1413h271l258 -549q16 -33 57 -170h16q39 131 58 170l258 549h266l-463 -936v-477h-256v481zM211 1712l129 184l385 -303l-78 -110z" />
<glyph unicode="&#x1ef3;" horiz-adv-x="1118" d="M25 1004h264l219 -691q22 -70 33 -133h28q7 23 41 133l215 691h267l-373 -1035q-21 -60 -49 -113.5t-72.5 -107t-97.5 -90t-127.5 -58t-159.5 -16.5l-20 158q119 33 187.5 89t106.5 146l11 23h-49q-31 0 -54 16t-30 45zM174 1343l127 183l385 -301l-78 -111z" />
<glyph unicode="&#x2000;" horiz-adv-x="966" />
<glyph unicode="&#x2001;" horiz-adv-x="1933" />
<glyph unicode="&#x2002;" horiz-adv-x="966" />
<glyph unicode="&#x2003;" horiz-adv-x="1933" />
<glyph unicode="&#x2004;" horiz-adv-x="644" />
<glyph unicode="&#x2005;" horiz-adv-x="483" />
<glyph unicode="&#x2006;" horiz-adv-x="322" />
<glyph unicode="&#x2007;" horiz-adv-x="322" />
<glyph unicode="&#x2008;" horiz-adv-x="241" />
<glyph unicode="&#x2009;" horiz-adv-x="386" />
<glyph unicode="&#x200a;" horiz-adv-x="107" />
<glyph unicode="&#x2010;" horiz-adv-x="876" d="M131 432v176h614v-176h-614z" />
<glyph unicode="&#x2011;" horiz-adv-x="876" d="M131 432v176h614v-176h-614z" />
<glyph unicode="&#x2012;" horiz-adv-x="876" d="M131 432v176h614v-176h-614z" />
<glyph unicode="&#x2013;" horiz-adv-x="1175" d="M131 432v176h913v-176h-913z" />
<glyph unicode="&#x2014;" horiz-adv-x="1789" d="M131 432v176h1528v-176h-1528z" />
<glyph unicode="&#x2018;" horiz-adv-x="458" d="M111 1051v118q3 175 90 318l110 -29q-26 -113 -26 -231q34 0 51.5 -19t15.5 -53v-104q-3 -44 -23 -62t-67 -18h-65q-49 0 -67.5 17.5t-18.5 62.5z" />
<glyph unicode="&#x2019;" horiz-adv-x="452" d="M102 1288v105q3 44 24 62t69 18h65q47 0 65.5 -17.5t20.5 -62.5v-119q-3 -175 -90 -318l-111 29q24 104 27 232q-34 0 -52 18.5t-18 52.5z" />
<glyph unicode="&#x201a;" horiz-adv-x="481" d="M119 74v104q3 45 23.5 63.5t68.5 18.5h65q47 0 66.5 -18t19.5 -64v-121q-3 -176 -90 -319l-110 29q26 113 26 235q-33 0 -51 19t-18 53z" />
<glyph unicode="&#x201c;" horiz-adv-x="808" d="M111 1051v118q3 175 90 318l110 -29q-26 -113 -26 -231q34 0 51.5 -19t15.5 -53v-104q-3 -44 -23 -62t-67 -18h-65q-49 0 -67.5 17.5t-18.5 62.5zM461 1051v118q3 175 90 318l111 -29q-27 -117 -27 -231q34 0 52 -19t18 -53v-104q-3 -44 -24 -62t-69 -18h-65 q-47 0 -66.5 18t-19.5 62z" />
<glyph unicode="&#x201d;" horiz-adv-x="802" d="M102 1288v105q3 44 24 62t69 18h65q47 0 65.5 -17.5t20.5 -62.5v-119q-3 -175 -90 -318l-111 29q24 104 27 232q-34 0 -52 18.5t-18 52.5zM455 1288v105q1 44 21.5 62t68.5 18h65q49 0 67.5 -17.5t18.5 -62.5v-119q-3 -175 -90 -318l-110 29q26 113 26 232 q-34 0 -51.5 18.5t-15.5 52.5z" />
<glyph unicode="&#x201e;" horiz-adv-x="831" d="M119 68v104q3 45 23.5 63.5t68.5 18.5h65q47 0 65.5 -18t20.5 -64v-119q-3 -174 -90 -317l-110 28q23 99 26 234q-33 0 -51 18.5t-18 51.5zM471 68v104q1 45 21.5 63.5t68.5 18.5h66q49 0 67.5 -18t18.5 -64v-119q-3 -174 -90 -317l-111 28q27 117 27 234q-34 0 -52 19 t-16 51z" />
<glyph unicode="&#x2020;" horiz-adv-x="950" d="M74 803v201h264v-177zM367 -225l12 1083v135l-12 422h217l-13 -422v-135l13 -1083h-217zM612 827v177h265v-201z" />
<glyph unicode="&#x2021;" horiz-adv-x="1028" d="M113 186v201l264 -25v-176h-264zM113 803v201h264v-177zM408 1364l170 51l32 -362v-754l11 -467l-170 -57l-33 356v760zM651 186v176l264 25v-201h-264zM651 827v177h264v-201z" />
<glyph unicode="&#x2022;" horiz-adv-x="755" d="M166 539v28q0 108 44 150.5t159 42.5h26q109 0 152 -43t43 -150v-28q0 -115 -43 -159t-152 -44h-26q-115 0 -159 44t-44 159z" />
<glyph unicode="&#x2026;" horiz-adv-x="1802" d="M111 88v105q0 49 19.5 68.5t68.5 19.5h75q50 0 69 -19.5t19 -68.5v-105q0 -50 -19 -69t-69 -19h-75q-49 0 -68.5 19t-19.5 69zM766 88v105q0 49 19 68.5t69 19.5h76q50 0 69 -19.5t19 -68.5v-105q0 -50 -19 -69t-69 -19h-76q-50 0 -69 19t-19 69zM1421 88v105 q0 49 19.5 68.5t68.5 19.5h76q49 0 68.5 -19.5t19.5 -68.5v-105q0 -50 -19.5 -69t-68.5 -19h-76q-49 0 -68.5 19t-19.5 69z" />
<glyph unicode="&#x202f;" horiz-adv-x="386" />
<glyph unicode="&#x2030;" horiz-adv-x="2627" d="M80 1020q0 231 76 325.5t266 94.5t266 -94.5t76 -325.5q0 -230 -76.5 -325t-265.5 -95t-265.5 95t-76.5 325zM266 1020q0 -161 32 -216.5t122 -55.5q92 0 125 55.5t33 216.5q0 160 -33 216t-125 56q-90 0 -122 -56t-32 -216zM399 0l877 1413h164l-875 -1413h-166z M1081 399q0 230 76 325t264 95q189 0 265.5 -95t76.5 -325q0 -233 -76 -327.5t-266 -94.5q-188 0 -264 94.5t-76 327.5zM1268 399q-1 -161 30.5 -217.5t122.5 -56.5q90 0 123 57t33 217t-33 215.5t-123 55.5q-91 0 -122.5 -55.5t-30.5 -215.5zM1862 399q0 230 75.5 325 t264.5 95t264.5 -95t75.5 -325q0 -233 -75 -327.5t-265 -94.5t-265 94.5t-75 327.5zM2046 399q0 -161 32 -217.5t122 -56.5q92 0 124.5 56.5t32.5 217.5t-32 216t-125 55q-90 0 -122 -55.5t-32 -215.5z" />
<glyph unicode="&#x2039;" horiz-adv-x="630" d="M80 487v54l326 405l131 -84l-234 -348l236 -356l-131 -84z" />
<glyph unicode="&#x203a;" horiz-adv-x="634" d="M92 158l236 356l-234 348l131 84l328 -405v-54l-330 -413z" />
<glyph unicode="&#x2044;" horiz-adv-x="327" d="M-358 0l876 1413h168l-876 -1413h-168z" />
<glyph unicode="&#x205f;" horiz-adv-x="483" />
<glyph unicode="&#x20ac;" horiz-adv-x="1302" d="M90 516v141h154v50v71h-152v144h164q33 263 170 389.5t410 126.5q191 0 348 -45l-23 -195q-180 30 -342 14q-128 -7 -198 -77t-95 -213h486l-17 -144h-483v-76v-45h432l-14 -141h-408q22 -158 92 -233.5t205 -81.5q187 -13 371 20l22 -192q-167 -54 -376 -54 q-279 0 -416.5 132t-167.5 409h-162z" />
<glyph unicode="&#x2122;" horiz-adv-x="1992" d="M123 1284v141h684v-141h-254v-637h-174v637h-256zM893 647l31 713q3 65 63 65h168q54 0 70 -55l116 -393q5 -19 12.5 -57t12.5 -56h18q3 13 11.5 53.5t15.5 61.5l113 391q15 55 69 55h172q63 0 66 -65l29 -713h-160l-31 645h-20l-146 -485q-15 -55 -69 -55h-117 q-54 0 -70 55l-145 485h-21l-28 -645h-160z" />
<glyph unicode="&#x2202;" horiz-adv-x="1185" d="M94 475q5 94 32.5 174t78.5 143.5t134 100t189 35.5q187 -3 303 -127q2 111 -12.5 184t-50.5 128.5t-104.5 85.5t-167 44t-246.5 14v183q137 2 240.5 -5.5t196.5 -28t157 -57.5t114.5 -94t78 -137t39 -185.5t5.5 -242.5q-18 -366 -142.5 -540.5t-389.5 -174.5 q-108 0 -191.5 29.5t-134 77t-81.5 114t-41.5 135t-6.5 144.5zM342 473q-8 -133 44.5 -209t168.5 -76q60 0 105 22.5t73 60t47 99.5t28.5 127t16.5 156q-114 74 -237 74q-232 0 -246 -254z" />
<glyph unicode="&#x220f;" horiz-adv-x="1470" d="M72 1212v201h1327v-201h-193v-1417h-248v1417h-446v-1417h-248v1417h-192z" />
<glyph unicode="&#x2211;" horiz-adv-x="1218" d="M92 -57l340 753l-315 518v199h987v-199h-709l314 -518l-342 -753h757v-199h-1032v199z" />
<glyph unicode="&#x221a;" horiz-adv-x="1175" d="M53 1004h203l213 -842h27l440 1632h205l-486 -1778q-6 -16 -26 -16h-293q-24 0 -27 16z" />
<glyph unicode="&#x221e;" horiz-adv-x="1583" d="M104 635q0 142 87 214.5t223 72.5q202 0 381 -183q78 76 178.5 129.5t212.5 53.5q126 0 209.5 -73t83.5 -214q0 -147 -91 -229t-229 -82q-190 0 -364 174q-182 -174 -377 -174q-132 0 -223 82.5t-91 228.5zM309 627q0 -131 150 -131q68 0 119.5 31t109.5 94 q-39 46 -65.5 70t-70.5 41.5t-101 17.5q-142 0 -142 -123zM901 612q98 -116 225 -116q71 0 110.5 33t39.5 98q0 123 -139 123q-79 0 -130.5 -35t-105.5 -103z" />
<glyph unicode="&#x222b;" horiz-adv-x="743" d="M59 -446l17 178h125q62 0 86.5 31t21.5 108l-94 1319q-9 133 55.5 202.5t186.5 69.5q143 0 227 -8l-14 -178h-131q-60 0 -84.5 -29t-20.5 -102l94 -1327q11 -140 -47 -206.5t-205 -66.5q-152 0 -217 9z" />
<glyph unicode="&#x2248;" horiz-adv-x="1196" d="M143 256q-27 148 35 218.5t184 64.5q63 -3 226 -55t227 -56q47 -1 61.5 19t14.5 81h162q25 -139 -32.5 -210t-191.5 -68q-68 1 -229 53t-221 55q-46 3 -61 -18t-15 -84h-160zM143 653q-27 147 35 217t184 64q62 -3 225 -54.5t228 -54.5q46 -3 61 17.5t15 81.5h162 q25 -140 -33 -211.5t-191 -67.5q-68 1 -229 54.5t-221 56.5q-46 1 -61 -20t-15 -83h-160z" />
<glyph unicode="&#x2260;" horiz-adv-x="1261" d="M168 297v180h317l154 254h-471v180h582l133 224l65 -33l-114 -191h258v-180h-369l-154 -254h523v-180h-631l-154 -252l-63 33l133 219h-209z" />
<glyph unicode="&#x2264;" horiz-adv-x="1142" d="M121 129v184h891v-184h-891zM143 662v194l858 272v-196l-645 -174l645 -162v-195z" />
<glyph unicode="&#x2265;" horiz-adv-x="1142" d="M131 129v184h893v-184h-893zM143 401v195l643 162l-643 174v196l856 -272v-194z" />
<glyph unicode="&#x25ca;" horiz-adv-x="1167" d="M61 690q-11 18 0 37l506 688q7 11 17.5 11t17.5 -11l504 -688q11 -19 0 -37l-504 -692q-8 -10 -18 -10t-17 10zM258 709l328 -467l323 467l-323 462z" />
<glyph unicode="&#x25fc;" horiz-adv-x="1003" d="M0 0v1004h1004v-1004h-1004z" />
</font>
</defs>
</svg>
